<?xml version="1.0" encoding="utf-8"?>
<!-- Generator: Adobe Illustrator 22.0.1, SVG Export Plug-In . SVG Version: 6.00 Build 0)  -->
<svg version="1.1" id="Layer_1" xmlns="http://www.w3.org/2000/svg" xmlns:xlink="http://www.w3.org/1999/xlink" x="0px" y="0px"
	 viewBox="0 0 1728 2320" style="enable-background:new 0 0 1728 2320;" xml:space="preserve">
<style type="text/css">
	.st0{fill:#FFFFFF;stroke:#231F20;stroke-width:13.4785;stroke-linejoin:round;stroke-miterlimit:10;}
	.st1{fill:#5AFF75;stroke:#231F20;stroke-width:13.4785;stroke-linejoin:round;stroke-miterlimit:10;}
</style>
<path class="st0" d="M568.6,603.6l-97-97v1146.6h97C568.6,1653.1,583,589.2,568.6,603.6z"/>
<rect x="568.6" y="603.6" transform="matrix(-1 -4.489399e-11 4.489399e-11 -1 1892.0012 2256.6609)" class="st1" width="754.8" height="1049.5"/>
<polygon class="st0" points="1323.4,848 683.6,848 193,1338.6 1147.3,1338.6 1324.3,1161.6 "/>
<polygon class="st0" points="471.6,506.5 1323.4,506.5 1323.4,603.6 568.6,603.6 "/>
<rect x="193" y="1338.6" class="st0" width="957.1" height="138.4"/>
<path class="st0" d="M1150.1,1477l173.4-173.4v-142l-175.2,175.2C1148.3,1336.8,1150.1,1483.4,1150.1,1477z"/>
</svg>
