<?xml version="1.0" encoding="utf-8"?>
<!-- Generator: Adobe Illustrator 21.1.0, SVG Export Plug-In . SVG Version: 6.00 Build 0)  -->
<svg version="1.1" id="Layer_1" xmlns="http://www.w3.org/2000/svg" xmlns:xlink="http://www.w3.org/1999/xlink" x="0px" y="0px"
	 viewBox="0 0 1920 2025" style="enable-background:new 0 0 1920 2025;" xml:space="preserve">
<style type="text/css">
	.st0{fill:#086AFF;}
	.st1{fill:none;stroke:#FFFFFF;stroke-width:2;stroke-linecap:square;stroke-miterlimit:10;}
	.st2{fill:none;stroke:#FFFFFF;stroke-width:2;stroke-linecap:square;stroke-linejoin:round;stroke-miterlimit:10;}
	.st3{fill:none;stroke:#FFFFFF;stroke-width:5.3912;stroke-linecap:square;stroke-miterlimit:10;}
	.st4{fill:none;stroke:#FFFFFF;stroke-width:5.3912;stroke-linecap:square;stroke-linejoin:round;stroke-miterlimit:10;}
	.st5{fill:none;stroke:#FFFFFF;stroke-width:10.7823;stroke-linecap:square;stroke-miterlimit:10;}
	.st6{fill:none;stroke:#FFFFFF;stroke-width:10.7823;stroke-linecap:square;stroke-linejoin:round;stroke-miterlimit:10;}
</style>
<rect x="0" class="st0" width="1920" height="2025"/>
<g>
	<line class="st1" x1="499.3" y1="34.8" x2="499.3" y2="134.5"/>
	<path class="st1" d="M563,56h-25.3c-3.6,0-6.6-3.9-6.6-8.8c0-1.2,0-2.5,0-3.7c0-4.8-2.9-8.8-6.6-8.8h-25.3"/>
	<path class="st1" d="M563,155.7h-25.3c-3.6,0-6.6-3.9-6.6-8.8c0-1.2,0-2.5,0-3.7c0-4.8-2.9-8.8-6.6-8.8h-25.3"/>
</g>
<g>
	<line class="st1" x1="1137.9" y1="52" x2="1137.9" y2="142.9"/>
	<path class="st1" d="M1169.5,53.3h-25.3c-3.6,0-6.6-3.9-6.6-8.8c0-1.2,0-2.5,0-3.7c0-4.8-2.9-8.8-6.6-8.8h-25.3"/>
	<path class="st1" d="M1169.5,151.5h-25.3c-3.6,0-6.6-3.9-6.6-8.8c0-1.2,0-2.5,0-3.7c0-4.8-2.9-8.8-6.6-8.8h-25.3"/>
</g>
<g>
	<line class="st1" x1="972.4" y1="105.9" x2="972.4" y2="156"/>
	<line class="st1" x1="907.2" y1="34.9" x2="907.2" y2="134.6"/>
	<path class="st1" d="M970.9,56.1h-25.3c-3.6,0-6.6-3.9-6.6-8.8c0-1.2,0-2.5,0-3.7c0-4.8-2.9-8.8-6.6-8.8h-25.3"/>
	<path class="st1" d="M972.2,106h-19.8c-2.9,0-5.2-3.9-5.2-8.8c0-1.2,0-2.5,0-3.7c0-4.8-2.3-8.8-5.2-8.8h-19.8"/>
	<path class="st1" d="M970.9,155.8h-25.3c-3.6,0-6.6-3.9-6.6-8.8c0-1.2,0-2.5,0-3.7c0-4.8-2.9-8.8-6.6-8.8h-25.3"/>
</g>
<g>
	<line class="st1" x1="293.1" y1="34.8" x2="293.1" y2="134.5"/>
	<line class="st1" x1="357" y1="56.2" x2="357" y2="155.9"/>
	<path class="st1" d="M356.8,56h-25.3c-3.6,0-6.6-3.9-6.6-8.8c0-1.2,0-2.5,0-3.7c0-4.8-2.9-8.8-6.6-8.8h-25.3"/>
	<path class="st1" d="M356.8,103.4h-25.3c-3.6,0-6.6-3.9-6.6-8.8c0-1.2,0-2.5,0-3.7c0-4.8-2.9-8.8-6.6-8.8h-25.3"/>
</g>
<g>
	<line class="st1" x1="1003.5" y1="33.5" x2="1003.5" y2="133.2"/>
	<line class="st1" x1="1067.4" y1="54.9" x2="1067.4" y2="154.6"/>
	<path class="st1" d="M1067.2,103h-25.3c-3.6,0-6.6-3.9-6.6-8.8c0-1.2,0-2.5,0-3.7c0-4.8-2.9-8.8-6.6-8.8h-25.3"/>
</g>
<g>
	<line class="st1" x1="1324.2" y1="46.9" x2="1324.2" y2="146.6"/>
	<path class="st1" d="M1383.6,62.3l-17.9,20.3c-2.6,2.9-7.1,2.5-10.1-0.9c-0.8-0.9-1.5-1.7-2.3-2.6c-3-3.4-7.5-3.8-10.1-0.9
		l-17.9,20.3"/>
	<path class="st1" d="M1385.1,145.8l-17.9-20.3c-2.6-2.9-2.2-8.1,0.8-11.5c0.8-0.9,1.5-1.7,2.3-2.6c3-3.4,3.4-8.6,0.8-11.5
		l-17.9-20.3"/>
</g>
<g>
	<line class="st1" x1="499.2" y1="201.1" x2="499.2" y2="302.3"/>
	<line class="st1" x1="562.9" y1="222.9" x2="562.9" y2="270.6"/>
	<path class="st1" d="M562.9,222.7h-25.3c-3.6,0-6.6-4-6.6-8.9c0-1.2,0-2.5,0-3.7c0-4.9-2.9-8.9-6.6-8.9h-25.3"/>
	<path class="st1" d="M562.9,270.7h-25.3c-3.6,0-6.6-4-6.6-8.9c0-1.2,0-2.5,0-3.7c0-4.9-2.9-8.9-6.6-8.9h-25.3"/>
</g>
<path class="st1" d="M1366.3,271.4l-25.5-16.9c-3.7-2.4-4.6-8.4-2.2-13.3c0.6-1.2,1.3-2.5,1.9-3.8c2.5-4.9,1.5-10.9-2.2-13.3
	l-25.5-16.9"/>
<path class="st1" d="M1397.6,320.6l-25.5-16.9c-3.7-2.4-4.6-8.4-2.2-13.3c0.6-1.2,1.3-2.5,1.9-3.8c2.5-4.9,1.5-10.9-2.2-13.3
	l-25.5-16.9"/>
<path class="st1" d="M1343.1,271.4l25.5-16.9c3.7-2.4,4.6-8.4,2.2-13.3c-0.6-1.2-1.3-2.5-1.9-3.8c-2.5-4.9-1.5-10.9,2.2-13.3
	l25.5-16.9"/>
<path class="st1" d="M1311.8,320.6l25.5-16.9c3.7-2.4,4.6-8.4,2.2-13.3c-0.6-1.2-1.3-2.5-1.9-3.8c-2.5-4.9-1.5-10.9,2.2-13.3
	l25.5-16.9"/>
<g>
	<line class="st1" x1="801.2" y1="209.4" x2="801.2" y2="251"/>
	<line class="st1" x1="865.5" y1="272.7" x2="865.5" y2="310.3"/>
	<path class="st1" d="M865,230.6h-25.3c-3.6,0-6.6-4-6.6-8.9c0-1.2,0-2.5,0-3.7c0-4.9-2.9-8.9-6.6-8.9h-25.3"/>
	<path class="st1" d="M865.5,310.3h-25.3c-3.6,0-6.6-4-6.6-8.9c0-1.2,0-2.5,0-3.7c0-4.9-2.9-8.9-6.6-8.9h-25.3"/>
	<path class="st1" d="M865,272.5h-25.3c-3.6,0-6.6-4-6.6-8.9c0-1.2,0-2.5,0-3.7c0-4.9-2.9-8.9-6.6-8.9h-25.3"/>
</g>
<g>
	<line class="st1" x1="801.2" y1="377.9" x2="801.2" y2="419.6"/>
	<line class="st1" x1="865.5" y1="441.3" x2="865.5" y2="478.9"/>
	<path class="st1" d="M865,399.2h-25.3c-3.6,0-6.6-4-6.6-8.9c0-1.2,0-2.5,0-3.7c0-4.9-2.9-8.9-6.6-8.9h-25.3"/>
	<path class="st1" d="M865.5,479h-25.3c-3.6,0-6.6-4-6.6-8.9c0-1.2,0-2.5,0-3.7c0-4.9-2.9-8.9-6.6-8.9h-25.3"/>
	<path class="st1" d="M865,441.1h-25.3c-3.6,0-6.6-4-6.6-8.9c0-1.2,0-2.5,0-3.7c0-4.9-2.9-8.9-6.6-8.9h-25.3"/>
</g>
<line class="st1" x1="915.5" y1="377.9" x2="915.5" y2="419.6"/>
<line class="st1" x1="979.8" y1="441.3" x2="979.8" y2="478.9"/>
<line class="st1" x1="915.6" y1="419" x2="915.6" y2="456.6"/>
<path class="st1" d="M979.4,399.2h-25.3c-3.6,0-6.6-4-6.6-8.9c0-1.2,0-2.5,0-3.7c0-4.9-2.9-8.9-6.6-8.9h-25.3"/>
<path class="st1" d="M979.8,479h-25.3c-3.6,0-6.6-4-6.6-8.9c0-1.2,0-2.5,0-3.7c0-4.9-2.9-8.9-6.6-8.9h-25.3"/>
<path class="st1" d="M979.4,441.1h-25.3c-3.6,0-6.6-4-6.6-8.9c0-1.2,0-2.5,0-3.7c0-4.9-2.9-8.9-6.6-8.9h-25.3"/>
<line class="st1" x1="1281.7" y1="478.7" x2="1281.7" y2="437"/>
<line class="st1" x1="1217.4" y1="415.3" x2="1217.4" y2="377.7"/>
<line class="st1" x1="1281.7" y1="437.6" x2="1281.7" y2="400"/>
<path class="st1" d="M1217.9,457.4h25.3c3.6,0,6.6,4,6.6,8.9c0,1.2,0,2.5,0,3.7c0,4.9,2.9,8.9,6.6,8.9h25.3"/>
<path class="st1" d="M1217.4,377.6h25.3c3.6,0,6.6,4,6.6,8.9c0,1.2,0,2.5,0,3.7c0,4.9,2.9,8.9,6.6,8.9h25.3"/>
<path class="st1" d="M1217.9,415.5h25.3c3.6,0,6.6,4,6.6,8.9c0,1.2,0,2.5,0,3.7c0,4.9,2.9,8.9,6.6,8.9h25.3"/>
<line class="st1" x1="1105.7" y1="377.9" x2="1105.7" y2="419.6"/>
<line class="st1" x1="1105.7" y1="419" x2="1105.7" y2="456.6"/>
<line class="st1" x1="1169.9" y1="399.8" x2="1169.9" y2="479"/>
<path class="st1" d="M1169.5,399.2h-25.3c-3.6,0-6.6-4-6.6-8.9c0-1.2,0-2.5,0-3.7c0-4.9-2.9-8.9-6.6-8.9h-25.3"/>
<path class="st1" d="M1170,479h-25.3c-3.6,0-6.6-4-6.6-8.9c0-1.2,0-2.5,0-3.7c0-4.9-2.9-8.9-6.6-8.9h-25.3"/>
<path class="st1" d="M1169.5,441.1h-25.3c-3.6,0-6.6-4-6.6-8.9c0-1.2,0-2.5,0-3.7c0-4.9-2.9-8.9-6.6-8.9h-25.3"/>
<g>
	<line class="st1" x1="1591.2" y1="209.4" x2="1591.2" y2="251"/>
	<line class="st1" x1="1526.9" y1="272.7" x2="1526.9" y2="310.2"/>
	<path class="st1" d="M1527.4,230.6h25.3c3.6,0,6.6-4,6.6-8.9c0-1.2,0-2.5,0-3.7c0-4.9,2.9-8.9,6.6-8.9h25.3"/>
	<path class="st1" d="M1526.9,310.3h25.3c3.6,0,6.6-4,6.6-8.9c0-1.2,0-2.5,0-3.7c0-4.9,2.9-8.9,6.6-8.9h25.3"/>
	<path class="st1" d="M1527.4,272.5h25.3c3.6,0,6.6-4,6.6-8.9c0-1.2,0-2.5,0-3.7c0-4.9,2.9-8.9,6.6-8.9h25.3"/>
</g>
<line class="st1" x1="1388.2" y1="368.7" x2="1388.2" y2="410.3"/>
<line class="st1" x1="1323.9" y1="432" x2="1323.9" y2="479"/>
<path class="st1" d="M1324.4,389.9h25.3c3.6,0,6.6-4,6.6-8.9c0-1.2,0-2.5,0-3.7c0-4.9,2.9-8.9,6.6-8.9h25.3"/>
<path class="st1" d="M1523.8,368.4V382c0,2,2.2,3.6,4.8,3.6c0.7,0,1.4,0,2,0c2.7,0,4.8,1.6,4.8,3.6v13.7"/>
<path class="st1" d="M1541.8,368.4V382c0,2,2.2,3.6,4.8,3.6c0.7,0,1.4,0,2,0c2.7,0,4.8,1.6,4.8,3.6v13.7"/>
<path class="st1" d="M1601,368.4V382c0,2-2.2,3.6-4.8,3.6c-0.7,0-1.4,0-2,0c-2.7,0-4.8,1.6-4.8,3.6v13.7"/>
<path class="st1" d="M1512.4,445.4v13.7c0,2-2.2,3.6-4.8,3.6c-0.7,0-1.4,0-2,0c-2.7,0-4.8,1.6-4.8,3.6v13.7"/>
<path class="st1" d="M1583,368.4V382c0,2-2.2,3.6-4.8,3.6c-0.7,0-1.4,0-2,0c-2.7,0-4.8,1.6-4.8,3.6v13.7"/>
<path class="st1" d="M1438,367.8v30.4c0,3.6,4,6.6,8.9,6.6c1.2,0,2.5,0,3.7,0c4.9,0,8.9,2.9,8.9,6.6v68.2"/>
<path class="st1" d="M1324.4,431.8h25.3c3.6,0,6.6-4,6.6-8.9c0-1.2,0-2.5,0-3.7c0-4.9,2.9-8.9,6.6-8.9h25.3"/>
<g>
	<line class="st1" x1="564.7" y1="380.4" x2="564.7" y2="421.1"/>
	<line class="st1" x1="500.4" y1="442.3" x2="500.4" y2="478.9"/>
	<path class="st1" d="M500.8,401.2h25.3c3.6,0,6.6-3.9,6.6-8.7c0-1.2,0-2.4,0-3.6c0-4.8,2.9-8.7,6.6-8.7h25.3"/>
	<path class="st1" d="M500.4,479h25.3c3.6,0,6.6-3.9,6.6-8.7c0-1.2,0-2.4,0-3.6c0-4.8,2.9-8.7,6.6-8.7h25.3"/>
	<path class="st1" d="M500.8,442.1h25.3c3.6,0,6.6-3.9,6.6-8.7c0-1.2,0-2.4,0-3.6c0-4.8,2.9-8.7,6.6-8.7h25.3"/>
</g>
<g>
	<line class="st1" x1="699" y1="201.7" x2="699" y2="302.8"/>
	<line class="st1" x1="762.6" y1="223.4" x2="762.6" y2="271.2"/>
	<path class="st1" d="M762.7,223.2h-25.3c-3.6,0-6.6-4-6.6-8.9c0-1.2,0-2.5,0-3.7c0-4.9-2.9-8.9-6.6-8.9H699"/>
	<path class="st1" d="M762.7,271.2h-25.3c-3.6,0-6.6-4-6.6-8.9c0-1.2,0-2.5,0-3.7c0-4.9-2.9-8.9-6.6-8.9H699"/>
	<path class="st1" d="M762.7,302.3l-17.9-20.6c-2-2.4-2.2-6.2-0.7-9.4"/>
</g>
<g>
	<line class="st1" x1="699.6" y1="33.3" x2="699.6" y2="133.1"/>
	<path class="st1" d="M763.3,54.5H738c-3.6,0-6.6-3.9-6.6-8.8c0-1.2,0-2.5,0-3.7c0-4.8-2.9-8.8-6.6-8.8h-25.3"/>
	<path class="st1" d="M763.3,101.9H738c-3.6,0-6.6-3.9-6.6-8.8c0-1.2,0-2.5,0-3.7c0-4.8-2.9-8.8-6.6-8.8h-25.3"/>
	<path class="st1" d="M763.3,154.3H738c-3.6,0-6.6-3.9-6.6-8.8c0-1.2,0-2.5,0-3.7c0-4.8-2.9-8.8-6.6-8.8h-25.3"/>
</g>
<g>
	<line class="st1" x1="661.8" y1="375.9" x2="661.8" y2="463.5"/>
	<path class="st1" d="M598.1,394.5h25.3c3.6,0,6.6-3.4,6.6-7.7c0-1.1,0-2.2,0-3.2c0-4.2,2.9-7.7,6.6-7.7h25.3"/>
	<path class="st1" d="M598.1,436.1h25.3c3.6,0,6.6-3.4,6.6-7.7c0-1.1,0-2.2,0-3.2c0-4.2,2.9-7.7,6.6-7.7h25.3"/>
	<path class="st1" d="M598.1,482.1h25.3c3.6,0,6.6-3.4,6.6-7.7c0-1.1,0-2.2,0-3.2c0-4.2,2.9-7.7,6.6-7.7h25.3"/>
</g>
<line class="st1" x1="801.1" y1="33.3" x2="801.1" y2="133.1"/>
<path class="st1" d="M864.8,54.5h-25.3c-3.6,0-6.6-3.9-6.6-8.8c0-1.2,0-2.5,0-3.7c0-4.8-2.9-8.8-6.6-8.8h-25.3"/>
<path class="st1" d="M864.8,101.9h-25.3c-3.6,0-6.6-3.9-6.6-8.8c0-1.2,0-2.5,0-3.7c0-4.8-2.9-8.8-6.6-8.8h-25.3"/>
<line class="st1" x1="761" y1="378.2" x2="761" y2="476.4"/>
<line class="st1" x1="760.8" y1="444.3" x2="700.4" y2="444.3"/>
<path class="st1" d="M719.2,380.1v25.3c0,3.6-3.4,6.6-7.7,6.6c-1.1,0-2.2,0-3.2,0c-4.2,0-7.7,2.9-7.7,6.6v25.3"/>
<line class="st1" x1="461" y1="53.3" x2="461" y2="147.7"/>
<g>
	<line class="st1" x1="397.1" y1="31.9" x2="397.1" y2="153.2"/>
	<path class="st1" d="M460.7,53.1h-25.3c-3.6,0-6.6-3.9-6.6-8.8c0-1.2,0-2.5,0-3.7c0-4.8-2.9-8.8-6.6-8.8h-25.3"/>
	<path class="st1" d="M460.7,100.4h-25.3c-3.6,0-6.6-3.9-6.6-8.8c0-1.2,0-2.5,0-3.7c0-4.8-2.9-8.8-6.6-8.8h-25.3"/>
	<path class="st1" d="M460.7,147.8h-25.3c-3.6,0-6.6-3.9-6.6-8.8c0-1.2,0-2.5,0-3.7c0-4.8-2.9-8.8-6.6-8.8h-25.3"/>
</g>
<g>
	<line class="st1" x1="661.3" y1="56.2" x2="661.3" y2="150.6"/>
	<line class="st1" x1="597.4" y1="34.8" x2="597.4" y2="156.2"/>
	<path class="st1" d="M661.1,56h-25.3c-3.6,0-6.6-3.9-6.6-8.8c0-1.2,0-2.5,0-3.7c0-4.8-2.9-8.8-6.6-8.8h-25.3"/>
	<path class="st1" d="M661.1,150.7h-25.3c-3.6,0-6.6-3.9-6.6-8.8c0-1.2,0-2.5,0-3.7c0-4.8-2.9-8.8-6.6-8.8h-25.3"/>
</g>
<g>
	<line class="st1" x1="1274.1" y1="58.5" x2="1274.1" y2="152.9"/>
	<path class="st1" d="M1273.9,152.9h-25.3c-3.6,0-6.6-3.9-6.6-8.8c0-1.2,0-2.5,0-3.7c0-4.8-2.9-8.8-6.6-8.8h-25.3"/>
</g>
<g>
	<path class="st1" d="M1486,150.3h-25.3c-3.6,0-6.6-3.9-6.6-8.8c0-1.2,0-2.5,0-3.7c0-4.8-2.9-8.8-6.6-8.8h-25.3"/>
	<line class="st1" x1="1422.4" y1="34.6" x2="1422.4" y2="129.1"/>
</g>
<g>
	<path class="st1" d="M1591.3,57.5h-25.3c-3.6,0-6.6-3.9-6.6-8.8c0-1.2,0-2.5,0-3.7c0-4.8-2.9-8.8-6.6-8.8h-25.3"/>
	<line class="st1" x1="1527.6" y1="37.6" x2="1527.6" y2="132"/>
	<line class="st1" x1="1559.5" y1="49.7" x2="1559.5" y2="144.1"/>
	<line class="st1" x1="1591.3" y1="59.7" x2="1591.3" y2="154.2"/>
</g>
<g>
	<line class="st1" x1="1280.5" y1="324.3" x2="1280.5" y2="228.5"/>
	<g>
		<path class="st1" d="M1214.2,304.1h25.3c3.6,0,6.6,4,6.6,8.9c0,1.2,0,2.5,0,3.7c0,4.9,2.9,8.9,6.6,8.9h25.3"/>
		<line class="st1" x1="1246" y1="312" x2="1246" y2="216.3"/>
		<line class="st1" x1="1214.2" y1="303.9" x2="1214.2" y2="208.1"/>
	</g>
</g>
<g>
	<path class="st1" d="M356.3,224.2H331c-3.6,0-6.6-4-6.6-8.9c0-1.2,0-2.5,0-3.7c0-4.9-2.9-8.9-6.6-8.9h-25.3"/>
	<line class="st1" x1="292.6" y1="204" x2="292.6" y2="299.8"/>
	<line class="st1" x1="356.3" y1="226.5" x2="356.3" y2="322.2"/>
</g>
<g>
	<path class="st1" d="M970.2,217.8H945c-3.6,0-6.6-4-6.6-8.9c0-1.2,0-2.5,0-3.7c0-4.9-2.9-8.9-6.6-8.9h-25.3"/>
	<line class="st1" x1="940.1" y1="220.1" x2="940.1" y2="313.3"/>
</g>
<g>
	<path class="st1" d="M661.2,226.5H636c-3.6,0-6.6-4-6.6-8.9c0-1.2,0-2.5,0-3.7c0-4.9-2.9-8.9-6.6-8.9h-25.3"/>
	<path class="st1" d="M661.2,325.6H636c-3.6,0-6.6-4-6.6-8.9c0-1.2,0-2.5,0-3.7c0-4.9-2.9-8.9-6.6-8.9h-25.3"/>
	<line class="st1" x1="597.5" y1="206.3" x2="597.5" y2="302.1"/>
	<line class="st1" x1="661.2" y1="228.8" x2="661.2" y2="324.5"/>
	<line class="st1" x1="646" y1="302.1" x2="646" y2="345"/>
</g>
<g>
	<path class="st1" d="M464.5,224.2h-25.3c-3.6,0-6.6-4-6.6-8.9c0-1.2,0-2.5,0-3.7c0-4.9-2.9-8.9-6.6-8.9h-25.3"/>
	<path class="st1" d="M464.5,323.3h-25.3c-3.6,0-6.6-4-6.6-8.9c0-1.2,0-2.5,0-3.7c0-4.9-2.9-8.9-6.6-8.9h-25.3"/>
	<line class="st1" x1="400.8" y1="204" x2="400.8" y2="299.7"/>
	<line class="st1" x1="464.5" y1="228" x2="464.5" y2="323.7"/>
</g>
<path class="st1" d="M464.5,393.2h-25.3c-3.6,0-6.6-3.4-6.6-7.7c0-1.1,0-2.2,0-3.2c0-4.2-2.9-7.7-6.6-7.7h-25.3"/>
<line class="st1" x1="464.5" y1="396.5" x2="464.5" y2="479.4"/>
<path class="st1" d="M1067.1,393.2h-25.3c-3.6,0-6.6-3.4-6.6-7.7c0-1.1,0-2.2,0-3.2c0-4.2-2.9-7.7-6.6-7.7h-25.3"/>
<line class="st1" x1="1067.1" y1="396.5" x2="1067.1" y2="479.4"/>
<line class="st1" x1="1080.7" y1="426.9" x2="1049.8" y2="426.9"/>
<g>
	<path class="st2" d="M356.6,479h-25.3c-3.6,0-6.6-3.4-6.6-7.7c0-1.1,0-2.2,0-3.2c0-4.2-2.9-7.7-6.6-7.7h-25.3l63.7-67.2h-25.3
		c-3.6,0-6.6-3.4-6.6-7.7c0-1.1,0-2.2,0-3.2c0-4.2-2.9-7.7-6.6-7.7h-25.3"/>
	<line class="st1" x1="292.9" y1="375.7" x2="292.9" y2="458.7"/>
	<line class="st1" x1="356.6" y1="396.5" x2="356.6" y2="479.4"/>
</g>
<line class="st1" x1="1486.5" y1="222.8" x2="1486.5" y2="318.5"/>
<g>
	<path class="st1" d="M1486.5,320.1h-25.3c-3.6,0-6.6-4-6.6-8.9c0-1.2,0-2.5,0-3.7c0-4.9-2.9-8.9-6.6-8.9h-25.3"/>
	<path class="st1" d="M1486.1,282.3h-25.3c-3.6,0-6.6-4-6.6-8.9c0-1.2,0-2.5,0-3.7c0-4.9-2.9-8.9-6.6-8.9h-25.3"/>
	<line class="st1" x1="1422.4" y1="205.2" x2="1422.4" y2="260.3"/>
</g>
<g>
	<line class="st1" x1="1004.1" y1="200.4" x2="1004.1" y2="296.2"/>
	<g>
		<path class="st1" d="M1067.8,319.7h-25.3c-3.6,0-6.6-4-6.6-8.9c0-1.2,0-2.5,0-3.7c0-4.9-2.9-8.9-6.6-8.9h-25.3"/>
		<line class="st1" x1="1067.8" y1="224.4" x2="1067.8" y2="320.2"/>
	</g>
</g>
<g>
	<path class="st1" d="M1169.6,318.7h-25.3c-3.6,0-6.6-4-6.6-8.9c0-1.2,0-2.5,0-3.7c0-4.9-2.9-8.9-6.6-8.9H1106"/>
	<line class="st1" x1="1106" y1="201" x2="1106" y2="296.7"/>
	<line class="st1" x1="1169.6" y1="222.9" x2="1169.6" y2="318.7"/>
</g>
<rect x="1317.1" y="455.8" class="st0" width="12.8" height="12.8"/>
<rect x="1453.3" y="455.8" class="st0" width="12.8" height="12.8"/>
<g>
	<line class="st3" x1="499.3" y1="715.2" x2="499.3" y2="814.9"/>
	<path class="st3" d="M563,736.4h-25.3c-3.6,0-6.6-3.9-6.6-8.8c0-1.2,0-2.5,0-3.7c0-4.8-2.9-8.8-6.6-8.8h-25.3"/>
	<path class="st3" d="M563,836.1h-25.3c-3.6,0-6.6-3.9-6.6-8.8c0-1.2,0-2.5,0-3.7c0-4.8-2.9-8.8-6.6-8.8h-25.3"/>
</g>
<g>
	<line class="st3" x1="1137.9" y1="732.3" x2="1137.9" y2="823.2"/>
	<path class="st3" d="M1169.5,733.6h-25.3c-3.6,0-6.6-3.9-6.6-8.8c0-1.2,0-2.5,0-3.7c0-4.8-2.9-8.8-6.6-8.8h-25.3"/>
	<path class="st3" d="M1169.5,831.8h-25.3c-3.6,0-6.6-3.9-6.6-8.8c0-1.2,0-2.5,0-3.7c0-4.8-2.9-8.8-6.6-8.8h-25.3"/>
</g>
<g>
	<line class="st3" x1="972.4" y1="786.3" x2="972.4" y2="836.4"/>
	<line class="st3" x1="907.2" y1="715.3" x2="907.2" y2="815"/>
	<path class="st3" d="M970.9,736.5h-25.3c-3.6,0-6.6-3.9-6.6-8.8c0-1.2,0-2.5,0-3.7c0-4.8-2.9-8.8-6.6-8.8h-25.3"/>
	<path class="st3" d="M972.2,786.3h-19.8c-2.9,0-5.2-3.9-5.2-8.8c0-1.2,0-2.5,0-3.7c0-4.8-2.3-8.8-5.2-8.8h-19.8"/>
	<path class="st3" d="M970.9,836.2h-25.3c-3.6,0-6.6-3.9-6.6-8.8c0-1.2,0-2.5,0-3.7c0-4.8-2.9-8.8-6.6-8.8h-25.3"/>
</g>
<g>
	<line class="st3" x1="293.1" y1="715.2" x2="293.1" y2="814.9"/>
	<line class="st3" x1="357" y1="736.6" x2="357" y2="836.3"/>
	<path class="st3" d="M356.8,736.4h-25.3c-3.6,0-6.6-3.9-6.6-8.8c0-1.2,0-2.5,0-3.7c0-4.8-2.9-8.8-6.6-8.8h-25.3"/>
	<path class="st3" d="M356.8,783.7h-25.3c-3.6,0-6.6-3.9-6.6-8.8c0-1.2,0-2.5,0-3.7c0-4.8-2.9-8.8-6.6-8.8h-25.3"/>
</g>
<g>
	<line class="st3" x1="1003.5" y1="713.8" x2="1003.5" y2="813.6"/>
	<line class="st3" x1="1067.4" y1="735.3" x2="1067.4" y2="835"/>
	<path class="st3" d="M1067.2,783.4h-25.3c-3.6,0-6.6-3.9-6.6-8.8c0-1.2,0-2.5,0-3.7c0-4.8-2.9-8.8-6.6-8.8h-25.3"/>
</g>
<g>
	<line class="st3" x1="1324.2" y1="727.3" x2="1324.2" y2="827"/>
	<path class="st3" d="M1383.6,742.6l-17.9,20.3c-2.6,2.9-7.1,2.5-10.1-0.9c-0.8-0.9-1.5-1.7-2.3-2.6c-3-3.4-7.5-3.8-10.1-0.9
		l-17.9,20.3"/>
	<path class="st3" d="M1385.1,826.2l-17.9-20.3c-2.6-2.9-2.2-8.1,0.8-11.5c0.8-0.9,1.5-1.7,2.3-2.6c3-3.4,3.4-8.6,0.8-11.5
		l-17.9-20.3"/>
</g>
<g>
	<line class="st3" x1="499.2" y1="881.5" x2="499.2" y2="982.6"/>
	<line class="st3" x1="562.9" y1="903.2" x2="562.9" y2="951"/>
	<path class="st3" d="M562.9,903h-25.3c-3.6,0-6.6-4-6.6-8.9c0-1.2,0-2.5,0-3.7c0-4.9-2.9-8.9-6.6-8.9h-25.3"/>
	<path class="st3" d="M562.9,951h-25.3c-3.6,0-6.6-4-6.6-8.9c0-1.2,0-2.5,0-3.7c0-4.9-2.9-8.9-6.6-8.9h-25.3"/>
</g>
<path class="st3" d="M1366.3,951.7l-25.5-16.9c-3.7-2.4-4.6-8.4-2.2-13.3c0.6-1.2,1.3-2.5,1.9-3.8c2.5-4.9,1.5-10.9-2.2-13.3
	l-25.5-16.9"/>
<path class="st3" d="M1397.6,1001l-25.5-16.9c-3.7-2.4-4.6-8.4-2.2-13.3c0.6-1.2,1.3-2.5,1.9-3.8c2.5-4.9,1.5-10.9-2.2-13.3
	l-25.5-16.9"/>
<path class="st3" d="M1343.1,951.7l25.5-16.9c3.7-2.4,4.6-8.4,2.2-13.3c-0.6-1.2-1.3-2.5-1.9-3.8c-2.5-4.9-1.5-10.9,2.2-13.3
	l25.5-16.9"/>
<path class="st3" d="M1311.8,1001l25.5-16.9c3.7-2.4,4.6-8.4,2.2-13.3c-0.6-1.2-1.3-2.5-1.9-3.8c-2.5-4.9-1.5-10.9,2.2-13.3
	l25.5-16.9"/>
<g>
	<line class="st3" x1="801.2" y1="889.8" x2="801.2" y2="931.4"/>
	<line class="st3" x1="865.5" y1="953.1" x2="865.5" y2="990.6"/>
	<path class="st3" d="M865,911h-25.3c-3.6,0-6.6-4-6.6-8.9c0-1.2,0-2.5,0-3.7c0-4.9-2.9-8.9-6.6-8.9h-25.3"/>
	<path class="st3" d="M865.5,990.7h-25.3c-3.6,0-6.6-4-6.6-8.9c0-1.2,0-2.5,0-3.7c0-4.9-2.9-8.9-6.6-8.9h-25.3"/>
	<path class="st3" d="M865,952.9h-25.3c-3.6,0-6.6-4-6.6-8.9c0-1.2,0-2.5,0-3.7c0-4.9-2.9-8.9-6.6-8.9h-25.3"/>
</g>
<g>
	<line class="st3" x1="801.2" y1="1058.3" x2="801.2" y2="1100"/>
	<line class="st3" x1="865.5" y1="1121.7" x2="865.5" y2="1159.3"/>
	<path class="st3" d="M865,1079.6h-25.3c-3.6,0-6.6-4-6.6-8.9c0-1.2,0-2.5,0-3.7c0-4.9-2.9-8.9-6.6-8.9h-25.3"/>
	<path class="st3" d="M865.5,1159.3h-25.3c-3.6,0-6.6-4-6.6-8.9c0-1.2,0-2.5,0-3.7c0-4.9-2.9-8.9-6.6-8.9h-25.3"/>
	<path class="st3" d="M865,1121.5h-25.3c-3.6,0-6.6-4-6.6-8.9c0-1.2,0-2.5,0-3.7c0-4.9-2.9-8.9-6.6-8.9h-25.3"/>
</g>
<line class="st3" x1="915.5" y1="1058.3" x2="915.5" y2="1100"/>
<line class="st3" x1="979.8" y1="1121.7" x2="979.8" y2="1159.3"/>
<line class="st3" x1="915.6" y1="1099.4" x2="915.6" y2="1137"/>
<path class="st3" d="M979.4,1079.6h-25.3c-3.6,0-6.6-4-6.6-8.9c0-1.2,0-2.5,0-3.7c0-4.9-2.9-8.9-6.6-8.9h-25.3"/>
<path class="st3" d="M979.8,1159.3h-25.3c-3.6,0-6.6-4-6.6-8.9c0-1.2,0-2.5,0-3.7c0-4.9-2.9-8.9-6.6-8.9h-25.3"/>
<path class="st3" d="M979.4,1121.5h-25.3c-3.6,0-6.6-4-6.6-8.9c0-1.2,0-2.5,0-3.7c0-4.9-2.9-8.9-6.6-8.9h-25.3"/>
<line class="st3" x1="1281.7" y1="1159.1" x2="1281.7" y2="1117.4"/>
<line class="st3" x1="1217.4" y1="1095.7" x2="1217.4" y2="1058.1"/>
<line class="st3" x1="1281.7" y1="1117.9" x2="1281.7" y2="1080.4"/>
<path class="st3" d="M1217.9,1137.8h25.3c3.6,0,6.6,4,6.6,8.9c0,1.2,0,2.5,0,3.7c0,4.9,2.9,8.9,6.6,8.9h25.3"/>
<path class="st3" d="M1217.4,1058h25.3c3.6,0,6.6,4,6.6,8.9c0,1.2,0,2.5,0,3.7c0,4.9,2.9,8.9,6.6,8.9h25.3"/>
<path class="st3" d="M1217.9,1095.9h25.3c3.6,0,6.6,4,6.6,8.9c0,1.2,0,2.5,0,3.7c0,4.9,2.9,8.9,6.6,8.9h25.3"/>
<line class="st3" x1="1105.7" y1="1058.3" x2="1105.7" y2="1100"/>
<line class="st3" x1="1105.7" y1="1099.4" x2="1105.7" y2="1137"/>
<line class="st3" x1="1169.9" y1="1080.1" x2="1169.9" y2="1159.3"/>
<path class="st3" d="M1169.5,1079.6h-25.3c-3.6,0-6.6-4-6.6-8.9c0-1.2,0-2.5,0-3.7c0-4.9-2.9-8.9-6.6-8.9h-25.3"/>
<path class="st3" d="M1170,1159.3h-25.3c-3.6,0-6.6-4-6.6-8.9c0-1.2,0-2.5,0-3.7c0-4.9-2.9-8.9-6.6-8.9h-25.3"/>
<path class="st3" d="M1169.5,1121.5h-25.3c-3.6,0-6.6-4-6.6-8.9c0-1.2,0-2.5,0-3.7c0-4.9-2.9-8.9-6.6-8.9h-25.3"/>
<g>
	<line class="st3" x1="1591.2" y1="889.7" x2="1591.2" y2="931.4"/>
	<line class="st3" x1="1526.9" y1="953.1" x2="1526.9" y2="990.6"/>
	<path class="st3" d="M1527.4,911h25.3c3.6,0,6.6-4,6.6-8.9c0-1.2,0-2.5,0-3.7c0-4.9,2.9-8.9,6.6-8.9h25.3"/>
	<path class="st3" d="M1526.9,990.6h25.3c3.6,0,6.6-4,6.6-8.9c0-1.2,0-2.5,0-3.7c0-4.9,2.9-8.9,6.6-8.9h25.3"/>
	<path class="st3" d="M1527.4,952.9h25.3c3.6,0,6.6-4,6.6-8.9c0-1.2,0-2.5,0-3.7c0-4.9,2.9-8.9,6.6-8.9h25.3"/>
</g>
<line class="st3" x1="1388.2" y1="1049" x2="1388.2" y2="1090.7"/>
<line class="st3" x1="1323.9" y1="1112.4" x2="1323.9" y2="1159.3"/>
<path class="st3" d="M1324.4,1070.3h25.3c3.6,0,6.6-4,6.6-8.9c0-1.2,0-2.5,0-3.7c0-4.9,2.9-8.9,6.6-8.9h25.3"/>
<path class="st3" d="M1523.8,1048.7v13.7c0,2,2.2,3.6,4.8,3.6c0.7,0,1.4,0,2,0c2.7,0,4.8,1.6,4.8,3.6v13.7"/>
<path class="st3" d="M1541.8,1048.7v13.7c0,2,2.2,3.6,4.8,3.6c0.7,0,1.4,0,2,0c2.7,0,4.8,1.6,4.8,3.6v13.7"/>
<path class="st3" d="M1601,1048.7v13.7c0,2-2.2,3.6-4.8,3.6c-0.7,0-1.4,0-2,0c-2.7,0-4.8,1.6-4.8,3.6v13.7"/>
<path class="st3" d="M1512.4,1125.8v13.7c0,2-2.2,3.6-4.8,3.6c-0.7,0-1.4,0-2,0c-2.7,0-4.8,1.6-4.8,3.6v13.7"/>
<path class="st3" d="M1583,1048.7v13.7c0,2-2.2,3.6-4.8,3.6c-0.7,0-1.4,0-2,0c-2.7,0-4.8,1.6-4.8,3.6v13.7"/>
<path class="st3" d="M1438,1048.2v30.4c0,3.6,4,6.6,8.9,6.6c1.2,0,2.5,0,3.7,0c4.9,0,8.9,2.9,8.9,6.6v68.2"/>
<path class="st3" d="M1324.4,1112.2h25.3c3.6,0,6.6-4,6.6-8.9c0-1.2,0-2.5,0-3.7c0-4.9,2.9-8.9,6.6-8.9h25.3"/>
<g>
	<line class="st3" x1="564.7" y1="1060.8" x2="564.7" y2="1101.4"/>
	<line class="st3" x1="500.4" y1="1122.6" x2="500.4" y2="1159.3"/>
	<path class="st3" d="M500.8,1081.6h25.3c3.6,0,6.6-3.9,6.6-8.7c0-1.2,0-2.4,0-3.6c0-4.8,2.9-8.7,6.6-8.7h25.3"/>
	<path class="st3" d="M500.4,1159.3h25.3c3.6,0,6.6-3.9,6.6-8.7c0-1.2,0-2.4,0-3.6c0-4.8,2.9-8.7,6.6-8.7h25.3"/>
	<path class="st3" d="M500.8,1122.4h25.3c3.6,0,6.6-3.9,6.6-8.7c0-1.2,0-2.4,0-3.6c0-4.8,2.9-8.7,6.6-8.7h25.3"/>
</g>
<g>
	<line class="st3" x1="699" y1="882.1" x2="699" y2="983.2"/>
	<line class="st3" x1="762.6" y1="903.8" x2="762.6" y2="951.5"/>
	<path class="st3" d="M762.7,903.6h-25.3c-3.6,0-6.6-4-6.6-8.9c0-1.2,0-2.5,0-3.7c0-4.9-2.9-8.9-6.6-8.9H699"/>
	<path class="st3" d="M762.7,951.6h-25.3c-3.6,0-6.6-4-6.6-8.9c0-1.2,0-2.5,0-3.7c0-4.9-2.9-8.9-6.6-8.9H699"/>
	<path class="st3" d="M762.7,982.6L744.8,962c-2-2.4-2.2-6.2-0.7-9.4"/>
</g>
<g>
	<line class="st3" x1="699.6" y1="713.7" x2="699.6" y2="813.4"/>
	<path class="st3" d="M763.3,734.9H738c-3.6,0-6.6-3.9-6.6-8.8c0-1.2,0-2.5,0-3.7c0-4.8-2.9-8.8-6.6-8.8h-25.3"/>
	<path class="st3" d="M763.3,782.3H738c-3.6,0-6.6-3.9-6.6-8.8c0-1.2,0-2.5,0-3.7c0-4.8-2.9-8.8-6.6-8.8h-25.3"/>
	<path class="st3" d="M763.3,834.6H738c-3.6,0-6.6-3.9-6.6-8.8c0-1.2,0-2.5,0-3.7c0-4.8-2.9-8.8-6.6-8.8h-25.3"/>
</g>
<g>
	<line class="st3" x1="661.8" y1="1056.3" x2="661.8" y2="1143.9"/>
	<path class="st3" d="M598.1,1074.9h25.3c3.6,0,6.6-3.4,6.6-7.7c0-1.1,0-2.2,0-3.2c0-4.2,2.9-7.7,6.6-7.7h25.3"/>
	<path class="st3" d="M598.1,1116.5h25.3c3.6,0,6.6-3.4,6.6-7.7c0-1.1,0-2.2,0-3.2c0-4.2,2.9-7.7,6.6-7.7h25.3"/>
	<path class="st3" d="M598.1,1162.5h25.3c3.6,0,6.6-3.4,6.6-7.7c0-1.1,0-2.2,0-3.2c0-4.2,2.9-7.7,6.6-7.7h25.3"/>
</g>
<line class="st3" x1="801.1" y1="713.7" x2="801.1" y2="813.4"/>
<path class="st3" d="M864.8,782.3h-25.3c-3.6,0-6.6-3.9-6.6-8.8c0-1.2,0-2.5,0-3.7c0-4.8-2.9-8.8-6.6-8.8h-25.3"/>
<path class="st3" d="M864.8,735.3h-25.3c-3.6,0-6.6-3.9-6.6-8.8c0-1.2,0-2.5,0-3.7c0-4.8-2.9-8.8-6.6-8.8h-25.3"/>
<line class="st3" x1="761" y1="1058.6" x2="761" y2="1156.8"/>
<line class="st3" x1="760.8" y1="1124.7" x2="700.4" y2="1124.7"/>
<path class="st3" d="M719.2,1060.5v25.3c0,3.6-3.4,6.6-7.7,6.6c-1.1,0-2.2,0-3.2,0c-4.2,0-7.7,2.9-7.7,6.6v25.3"/>
<line class="st3" x1="461" y1="733.6" x2="461" y2="828.1"/>
<g>
	<line class="st3" x1="397.1" y1="712.2" x2="397.1" y2="833.6"/>
	<path class="st3" d="M460.7,733.5h-25.3c-3.6,0-6.6-3.9-6.6-8.8c0-1.2,0-2.5,0-3.7c0-4.8-2.9-8.8-6.6-8.8h-25.3"/>
	<path class="st3" d="M460.7,780.8h-25.3c-3.6,0-6.6-3.9-6.6-8.8c0-1.2,0-2.5,0-3.7c0-4.8-2.9-8.8-6.6-8.8h-25.3"/>
	<path class="st3" d="M460.7,828.1h-25.3c-3.6,0-6.6-3.9-6.6-8.8c0-1.2,0-2.5,0-3.7c0-4.8-2.9-8.8-6.6-8.8h-25.3"/>
</g>
<g>
	<line class="st3" x1="661.3" y1="736.6" x2="661.3" y2="831"/>
	<line class="st3" x1="597.4" y1="715.2" x2="597.4" y2="836.5"/>
	<path class="st3" d="M661.1,736.4h-25.3c-3.6,0-6.6-3.9-6.6-8.8c0-1.2,0-2.5,0-3.7c0-4.8-2.9-8.8-6.6-8.8h-25.3"/>
	<path class="st3" d="M661.1,831.1h-25.3c-3.6,0-6.6-3.9-6.6-8.8c0-1.2,0-2.5,0-3.7c0-4.8-2.9-8.8-6.6-8.8h-25.3"/>
</g>
<g>
	<line class="st3" x1="1274.1" y1="738.8" x2="1274.1" y2="833.3"/>
	<path class="st3" d="M1273.9,833.3h-25.3c-3.6,0-6.6-3.9-6.6-8.8c0-1.2,0-2.5,0-3.7c0-4.8-2.9-8.8-6.6-8.8h-25.3"/>
</g>
<g>
	<path class="st3" d="M1486,830.6h-25.3c-3.6,0-6.6-3.9-6.6-8.8c0-1.2,0-2.5,0-3.7c0-4.8-2.9-8.8-6.6-8.8h-25.3"/>
	<line class="st3" x1="1422.4" y1="715" x2="1422.4" y2="809.4"/>
</g>
<g>
	<path class="st3" d="M1591.3,737.9h-25.3c-3.6,0-6.6-3.9-6.6-8.8c0-1.2,0-2.5,0-3.7c0-4.8-2.9-8.8-6.6-8.8h-25.3"/>
	<line class="st3" x1="1527.6" y1="717.9" x2="1527.6" y2="812.4"/>
	<line class="st3" x1="1559.5" y1="730" x2="1559.5" y2="824.4"/>
	<line class="st3" x1="1591.3" y1="740.1" x2="1591.3" y2="834.5"/>
</g>
<g>
	<line class="st3" x1="1280.5" y1="1004.7" x2="1280.5" y2="908.9"/>
	<g>
		<path class="st3" d="M1214.2,984.4h25.3c3.6,0,6.6,4,6.6,8.9c0,1.2,0,2.5,0,3.7c0,4.9,2.9,8.9,6.6,8.9h25.3"/>
		<line class="st3" x1="1246" y1="992.4" x2="1246" y2="896.7"/>
		<line class="st3" x1="1214.2" y1="984.2" x2="1214.2" y2="888.5"/>
	</g>
</g>
<g>
	<path class="st3" d="M356.3,904.6H331c-3.6,0-6.6-4-6.6-8.9c0-1.2,0-2.5,0-3.7c0-4.9-2.9-8.9-6.6-8.9h-25.3"/>
	<line class="st3" x1="292.6" y1="884.4" x2="292.6" y2="980.1"/>
	<line class="st3" x1="356.3" y1="906.8" x2="356.3" y2="1002.6"/>
</g>
<g>
	<path class="st3" d="M970.2,898.2H945c-3.6,0-6.6-4-6.6-8.9c0-1.2,0-2.5,0-3.7c0-4.9-2.9-8.9-6.6-8.9h-25.3"/>
	<line class="st3" x1="940.1" y1="900.4" x2="940.1" y2="993.6"/>
</g>
<g>
	<path class="st3" d="M661.2,906.9H636c-3.6,0-6.6-4-6.6-8.9c0-1.2,0-2.5,0-3.7c0-4.9-2.9-8.9-6.6-8.9h-25.3"/>
	<path class="st3" d="M661.2,1006H636c-3.6,0-6.6-4-6.6-8.9c0-1.2,0-2.5,0-3.7c0-4.9-2.9-8.9-6.6-8.9h-25.3"/>
	<line class="st3" x1="597.5" y1="886.7" x2="597.5" y2="982.4"/>
	<line class="st3" x1="661.2" y1="909.1" x2="661.2" y2="1004.9"/>
	<line class="st3" x1="646" y1="982.4" x2="646" y2="1025.3"/>
</g>
<g>
	<path class="st3" d="M464.5,904.5h-25.3c-3.6,0-6.6-4-6.6-8.9c0-1.2,0-2.5,0-3.7c0-4.9-2.9-8.9-6.6-8.9h-25.3"/>
	<path class="st3" d="M464.5,1003.6h-25.3c-3.6,0-6.6-4-6.6-8.9c0-1.2,0-2.5,0-3.7c0-4.9-2.9-8.9-6.6-8.9h-25.3"/>
	<line class="st3" x1="400.8" y1="884.3" x2="400.8" y2="980.1"/>
	<line class="st3" x1="464.5" y1="908.3" x2="464.5" y2="1004.1"/>
</g>
<path class="st3" d="M464.5,1073.6h-25.3c-3.6,0-6.6-3.4-6.6-7.7c0-1.1,0-2.2,0-3.2c0-4.2-2.9-7.7-6.6-7.7h-25.3"/>
<line class="st3" x1="464.5" y1="1076.9" x2="464.5" y2="1159.8"/>
<path class="st3" d="M1067.1,1073.6h-25.3c-3.6,0-6.6-3.4-6.6-7.7c0-1.1,0-2.2,0-3.2c0-4.2-2.9-7.7-6.6-7.7h-25.3"/>
<line class="st3" x1="1067.1" y1="1076.9" x2="1067.1" y2="1159.8"/>
<line class="st3" x1="1080.7" y1="1107.3" x2="1049.8" y2="1107.3"/>
<g>
	<path class="st4" d="M356.6,1159.4h-25.3c-3.6,0-6.6-3.4-6.6-7.7c0-1.1,0-2.2,0-3.2c0-4.2-2.9-7.7-6.6-7.7h-25.3l63.7-67.2h-25.3
		c-3.6,0-6.6-3.4-6.6-7.7c0-1.1,0-2.2,0-3.2c0-4.2-2.9-7.7-6.6-7.7h-25.3"/>
	<line class="st3" x1="292.9" y1="1056.1" x2="292.9" y2="1139"/>
	<line class="st3" x1="356.6" y1="1076.9" x2="356.6" y2="1159.8"/>
</g>
<line class="st3" x1="1486.5" y1="903.1" x2="1486.5" y2="998.9"/>
<g>
	<path class="st3" d="M1486.5,1000.5h-25.3c-3.6,0-6.6-4-6.6-8.9c0-1.2,0-2.5,0-3.7c0-4.9-2.9-8.9-6.6-8.9h-25.3"/>
	<path class="st3" d="M1486.1,962.7h-25.3c-3.6,0-6.6-4-6.6-8.9c0-1.2,0-2.5,0-3.7c0-4.9-2.9-8.9-6.6-8.9h-25.3"/>
	<line class="st3" x1="1422.4" y1="885.5" x2="1422.4" y2="940.7"/>
</g>
<g>
	<line class="st3" x1="1004.1" y1="880.8" x2="1004.1" y2="976.5"/>
	<g>
		<path class="st3" d="M1067.8,1000.1h-25.3c-3.6,0-6.6-4-6.6-8.9c0-1.2,0-2.5,0-3.7c0-4.9-2.9-8.9-6.6-8.9h-25.3"/>
		<line class="st3" x1="1067.8" y1="904.8" x2="1067.8" y2="1000.5"/>
	</g>
</g>
<g>
	<path class="st3" d="M1169.6,999.1h-25.3c-3.6,0-6.6-4-6.6-8.9c0-1.2,0-2.5,0-3.7c0-4.9-2.9-8.9-6.6-8.9H1106"/>
	<line class="st3" x1="1106" y1="881.3" x2="1106" y2="977.1"/>
	<line class="st3" x1="1169.6" y1="903.3" x2="1169.6" y2="999"/>
</g>
<rect x="1317.1" y="1136.2" class="st0" width="12.8" height="12.8"/>
<rect x="1453.3" y="1136.2" class="st0" width="12.8" height="12.8"/>
<g>
	<line class="st5" x1="499.3" y1="1419.3" x2="499.3" y2="1519"/>
	<path class="st5" d="M563,1440.5h-25.3c-3.6,0-6.6-3.9-6.6-8.8c0-1.2,0-2.5,0-3.7c0-4.8-2.9-8.8-6.6-8.8h-25.3"/>
	<path class="st5" d="M563,1540.2h-25.3c-3.6,0-6.6-3.9-6.6-8.8c0-1.2,0-2.5,0-3.7c0-4.8-2.9-8.8-6.6-8.8h-25.3"/>
</g>
<g>
	<line class="st5" x1="1137.9" y1="1436.4" x2="1137.9" y2="1527.3"/>
	<path class="st5" d="M1169.5,1437.7h-25.3c-3.6,0-6.6-3.9-6.6-8.8c0-1.2,0-2.5,0-3.7c0-4.8-2.9-8.8-6.6-8.8h-25.3"/>
	<path class="st5" d="M1169.5,1535.9h-25.3c-3.6,0-6.6-3.9-6.6-8.8c0-1.2,0-2.5,0-3.7c0-4.8-2.9-8.8-6.6-8.8h-25.3"/>
</g>
<g>
	<line class="st5" x1="972.4" y1="1490.4" x2="972.4" y2="1540.5"/>
	<line class="st5" x1="907.2" y1="1419.3" x2="907.2" y2="1519.1"/>
	<path class="st5" d="M970.9,1440.6h-25.3c-3.6,0-6.6-3.9-6.6-8.8c0-1.2,0-2.5,0-3.7c0-4.8-2.9-8.8-6.6-8.8h-25.3"/>
	<path class="st5" d="M972.2,1490.4h-19.8c-2.9,0-5.2-3.9-5.2-8.8c0-1.2,0-2.5,0-3.7c0-4.8-2.3-8.8-5.2-8.8h-19.8"/>
	<path class="st5" d="M970.9,1540.3h-25.3c-3.6,0-6.6-3.9-6.6-8.8c0-1.2,0-2.5,0-3.7c0-4.8-2.9-8.8-6.6-8.8h-25.3"/>
</g>
<g>
	<line class="st5" x1="293.1" y1="1419.3" x2="293.1" y2="1519"/>
	<line class="st5" x1="357" y1="1440.7" x2="357" y2="1540.4"/>
	<path class="st5" d="M356.8,1440.5h-25.3c-3.6,0-6.6-3.9-6.6-8.8c0-1.2,0-2.5,0-3.7c0-4.8-2.9-8.8-6.6-8.8h-25.3"/>
	<path class="st5" d="M356.8,1487.8h-25.3c-3.6,0-6.6-3.9-6.6-8.8c0-1.2,0-2.5,0-3.7c0-4.8-2.9-8.8-6.6-8.8h-25.3"/>
</g>
<g>
	<line class="st5" x1="1003.5" y1="1417.9" x2="1003.5" y2="1517.6"/>
	<line class="st5" x1="1067.4" y1="1439.3" x2="1067.4" y2="1539.1"/>
	<path class="st5" d="M1067.2,1487.5h-25.3c-3.6,0-6.6-3.9-6.6-8.8c0-1.2,0-2.5,0-3.7c0-4.8-2.9-8.8-6.6-8.8h-25.3"/>
</g>
<g>
	<line class="st5" x1="1324.2" y1="1431.4" x2="1324.2" y2="1531.1"/>
	<path class="st5" d="M1383.6,1446.7l-17.9,20.3c-2.6,2.9-7.1,2.5-10.1-0.9c-0.8-0.9-1.5-1.7-2.3-2.6c-3-3.4-7.5-3.8-10.1-0.9
		l-17.9,20.3"/>
	<path class="st5" d="M1385.1,1530.2l-17.9-20.3c-2.6-2.9-2.2-8.1,0.8-11.5c0.8-0.9,1.5-1.7,2.3-2.6c3-3.4,3.4-8.6,0.8-11.5
		l-17.9-20.3"/>
</g>
<g>
	<line class="st5" x1="499.2" y1="1585.6" x2="499.2" y2="1686.7"/>
	<line class="st5" x1="562.9" y1="1607.3" x2="562.9" y2="1655.1"/>
	<path class="st5" d="M562.9,1607.1h-25.3c-3.6,0-6.6-4-6.6-8.9c0-1.2,0-2.5,0-3.7c0-4.9-2.9-8.9-6.6-8.9h-25.3"/>
	<path class="st5" d="M562.9,1655.1h-25.3c-3.6,0-6.6-4-6.6-8.9c0-1.2,0-2.5,0-3.7c0-4.9-2.9-8.9-6.6-8.9h-25.3"/>
</g>
<path class="st5" d="M1366.3,1655.8l-25.5-16.9c-3.7-2.4-4.6-8.4-2.2-13.3c0.6-1.2,1.3-2.5,1.9-3.8c2.5-4.9,1.5-10.9-2.2-13.3
	l-25.5-16.9"/>
<path class="st5" d="M1397.6,1705.1l-25.5-16.9c-3.7-2.4-4.6-8.4-2.2-13.3c0.6-1.2,1.3-2.5,1.9-3.8c2.5-4.9,1.5-10.9-2.2-13.3
	l-25.5-16.9"/>
<path class="st5" d="M1343.1,1655.8l25.5-16.9c3.7-2.4,4.6-8.4,2.2-13.3c-0.6-1.2-1.3-2.5-1.9-3.8c-2.5-4.9-1.5-10.9,2.2-13.3
	l25.5-16.9"/>
<path class="st5" d="M1311.8,1705.1l25.5-16.9c3.7-2.4,4.6-8.4,2.2-13.3c-0.6-1.2-1.3-2.5-1.9-3.8c-2.5-4.9-1.5-10.9,2.2-13.3
	l25.5-16.9"/>
<g>
	<line class="st5" x1="801.2" y1="1593.9" x2="801.2" y2="1635.5"/>
	<line class="st5" x1="865.5" y1="1657.2" x2="865.5" y2="1694.7"/>
	<path class="st5" d="M865,1615.1h-25.3c-3.6,0-6.6-4-6.6-8.9c0-1.2,0-2.5,0-3.7c0-4.9-2.9-8.9-6.6-8.9h-25.3"/>
	<path class="st5" d="M865.5,1694.8h-25.3c-3.6,0-6.6-4-6.6-8.9c0-1.2,0-2.5,0-3.7c0-4.9-2.9-8.9-6.6-8.9h-25.3"/>
	<path class="st5" d="M865,1657h-25.3c-3.6,0-6.6-4-6.6-8.9c0-1.2,0-2.5,0-3.7c0-4.9-2.9-8.9-6.6-8.9h-25.3"/>
</g>
<g>
	<line class="st5" x1="801.2" y1="1762.4" x2="801.2" y2="1804"/>
	<line class="st5" x1="865.5" y1="1825.8" x2="865.5" y2="1863.4"/>
	<path class="st5" d="M865,1783.6h-25.3c-3.6,0-6.6-4-6.6-8.9c0-1.2,0-2.5,0-3.7c0-4.9-2.9-8.9-6.6-8.9h-25.3"/>
	<path class="st5" d="M865.5,1863.4h-25.3c-3.6,0-6.6-4-6.6-8.9c0-1.2,0-2.5,0-3.7c0-4.9-2.9-8.9-6.6-8.9h-25.3"/>
	<path class="st5" d="M865,1825.6h-25.3c-3.6,0-6.6-4-6.6-8.9c0-1.2,0-2.5,0-3.7c0-4.9-2.9-8.9-6.6-8.9h-25.3"/>
</g>
<line class="st5" x1="915.5" y1="1762.4" x2="915.5" y2="1804"/>
<line class="st5" x1="979.8" y1="1825.8" x2="979.8" y2="1863.4"/>
<line class="st5" x1="915.6" y1="1803.5" x2="915.6" y2="1841.1"/>
<path class="st5" d="M979.4,1783.6h-25.3c-3.6,0-6.6-4-6.6-8.9c0-1.2,0-2.5,0-3.7c0-4.9-2.9-8.9-6.6-8.9h-25.3"/>
<path class="st5" d="M979.8,1863.4h-25.3c-3.6,0-6.6-4-6.6-8.9c0-1.2,0-2.5,0-3.7c0-4.9-2.9-8.9-6.6-8.9h-25.3"/>
<path class="st5" d="M979.4,1825.6h-25.3c-3.6,0-6.6-4-6.6-8.9c0-1.2,0-2.5,0-3.7c0-4.9-2.9-8.9-6.6-8.9h-25.3"/>
<line class="st5" x1="1281.7" y1="1863.2" x2="1281.7" y2="1821.5"/>
<line class="st5" x1="1217.4" y1="1799.7" x2="1217.4" y2="1762.2"/>
<line class="st5" x1="1281.7" y1="1822" x2="1281.7" y2="1784.4"/>
<path class="st5" d="M1217.9,1841.9h25.3c3.6,0,6.6,4,6.6,8.9c0,1.2,0,2.5,0,3.7c0,4.9,2.9,8.9,6.6,8.9h25.3"/>
<path class="st5" d="M1217.4,1762.1h25.3c3.6,0,6.6,4,6.6,8.9c0,1.2,0,2.5,0,3.7c0,4.9,2.9,8.9,6.6,8.9h25.3"/>
<path class="st5" d="M1217.9,1799.9h25.3c3.6,0,6.6,4,6.6,8.9c0,1.2,0,2.5,0,3.7c0,4.9,2.9,8.9,6.6,8.9h25.3"/>
<line class="st5" x1="1105.7" y1="1762.4" x2="1105.7" y2="1804"/>
<line class="st5" x1="1105.7" y1="1803.5" x2="1105.7" y2="1841.1"/>
<line class="st5" x1="1169.9" y1="1784.2" x2="1169.9" y2="1863.4"/>
<path class="st5" d="M1169.5,1783.6h-25.3c-3.6,0-6.6-4-6.6-8.9c0-1.2,0-2.5,0-3.7c0-4.9-2.9-8.9-6.6-8.9h-25.3"/>
<path class="st5" d="M1170,1863.4h-25.3c-3.6,0-6.6-4-6.6-8.9c0-1.2,0-2.5,0-3.7c0-4.9-2.9-8.9-6.6-8.9h-25.3"/>
<path class="st5" d="M1169.5,1825.6h-25.3c-3.6,0-6.6-4-6.6-8.9c0-1.2,0-2.5,0-3.7c0-4.9-2.9-8.9-6.6-8.9h-25.3"/>
<g>
	<line class="st5" x1="1591.2" y1="1593.8" x2="1591.2" y2="1635.4"/>
	<line class="st5" x1="1526.9" y1="1657.1" x2="1526.9" y2="1694.7"/>
	<path class="st5" d="M1527.4,1615.1h25.3c3.6,0,6.6-4,6.6-8.9c0-1.2,0-2.5,0-3.7c0-4.9,2.9-8.9,6.6-8.9h25.3"/>
	<path class="st5" d="M1526.9,1694.7h25.3c3.6,0,6.6-4,6.6-8.9c0-1.2,0-2.5,0-3.7c0-4.9,2.9-8.9,6.6-8.9h25.3"/>
	<path class="st5" d="M1527.4,1656.9h25.3c3.6,0,6.6-4,6.6-8.9c0-1.2,0-2.5,0-3.7c0-4.9,2.9-8.9,6.6-8.9h25.3"/>
</g>
<line class="st5" x1="1388.2" y1="1753.1" x2="1388.2" y2="1794.8"/>
<line class="st5" x1="1323.9" y1="1816.5" x2="1323.9" y2="1863.4"/>
<path class="st5" d="M1324.4,1774.4h25.3c3.6,0,6.6-4,6.6-8.9c0-1.2,0-2.5,0-3.7c0-4.9,2.9-8.9,6.6-8.9h25.3"/>
<path class="st5" d="M1523.8,1752.8v13.7c0,2,2.2,3.6,4.8,3.6c0.7,0,1.4,0,2,0c2.7,0,4.8,1.6,4.8,3.6v13.7"/>
<path class="st5" d="M1541.8,1752.8v13.7c0,2,2.2,3.6,4.8,3.6c0.7,0,1.4,0,2,0c2.7,0,4.8,1.6,4.8,3.6v13.7"/>
<path class="st5" d="M1601,1752.8v13.7c0,2-2.2,3.6-4.8,3.6c-0.7,0-1.4,0-2,0c-2.7,0-4.8,1.6-4.8,3.6v13.7"/>
<path class="st5" d="M1512.4,1829.9v13.7c0,2-2.2,3.6-4.8,3.6c-0.7,0-1.4,0-2,0c-2.7,0-4.8,1.6-4.8,3.6v13.7"/>
<path class="st5" d="M1583,1752.8v13.7c0,2-2.2,3.6-4.8,3.6c-0.7,0-1.4,0-2,0c-2.7,0-4.8,1.6-4.8,3.6v13.7"/>
<path class="st5" d="M1438,1752.3v30.4c0,3.6,4,6.6,8.9,6.6c1.2,0,2.5,0,3.7,0c4.9,0,8.9,2.9,8.9,6.6v68.2"/>
<path class="st5" d="M1324.4,1816.3h25.3c3.6,0,6.6-4,6.6-8.9c0-1.2,0-2.5,0-3.7c0-4.9,2.9-8.9,6.6-8.9h25.3"/>
<g>
	<line class="st5" x1="564.7" y1="1764.9" x2="564.7" y2="1805.5"/>
	<line class="st5" x1="500.4" y1="1826.7" x2="500.4" y2="1863.4"/>
	<path class="st5" d="M500.8,1785.6h25.3c3.6,0,6.6-3.9,6.6-8.7c0-1.2,0-2.4,0-3.6c0-4.8,2.9-8.7,6.6-8.7h25.3"/>
	<path class="st5" d="M500.4,1863.4h25.3c3.6,0,6.6-3.9,6.6-8.7c0-1.2,0-2.4,0-3.6c0-4.8,2.9-8.7,6.6-8.7h25.3"/>
	<path class="st5" d="M500.8,1826.5h25.3c3.6,0,6.6-3.9,6.6-8.7c0-1.2,0-2.4,0-3.6c0-4.8,2.9-8.7,6.6-8.7h25.3"/>
</g>
<g>
	<line class="st5" x1="699" y1="1586.2" x2="699" y2="1687.3"/>
	<line class="st5" x1="762.6" y1="1607.9" x2="762.6" y2="1655.6"/>
	<path class="st5" d="M762.7,1607.7h-25.3c-3.6,0-6.6-4-6.6-8.9c0-1.2,0-2.5,0-3.7c0-4.9-2.9-8.9-6.6-8.9H699"/>
	<path class="st5" d="M762.7,1655.7h-25.3c-3.6,0-6.6-4-6.6-8.9c0-1.2,0-2.5,0-3.7c0-4.9-2.9-8.9-6.6-8.9H699"/>
	<path class="st5" d="M762.7,1686.7l-17.9-20.6c-2-2.4-2.2-6.2-0.7-9.4"/>
</g>
<g>
	<line class="st5" x1="699.6" y1="1417.8" x2="699.6" y2="1517.5"/>
	<path class="st5" d="M763.3,1439H738c-3.6,0-6.6-3.9-6.6-8.8c0-1.2,0-2.5,0-3.7c0-4.8-2.9-8.8-6.6-8.8h-25.3"/>
	<path class="st5" d="M763.3,1486.3H738c-3.6,0-6.6-3.9-6.6-8.8c0-1.2,0-2.5,0-3.7c0-4.8-2.9-8.8-6.6-8.8h-25.3"/>
	<path class="st5" d="M763.3,1538.7H738c-3.6,0-6.6-3.9-6.6-8.8c0-1.2,0-2.5,0-3.7c0-4.8-2.9-8.8-6.6-8.8h-25.3"/>
</g>
<g>
	<line class="st5" x1="661.8" y1="1760.4" x2="661.8" y2="1847.9"/>
	<path class="st5" d="M598.1,1779h25.3c3.6,0,6.6-3.4,6.6-7.7c0-1.1,0-2.2,0-3.2c0-4.2,2.9-7.7,6.6-7.7h25.3"/>
	<path class="st5" d="M598.1,1820.6h25.3c3.6,0,6.6-3.4,6.6-7.7c0-1.1,0-2.2,0-3.2c0-4.2,2.9-7.7,6.6-7.7h25.3"/>
	<path class="st5" d="M598.1,1866.6h25.3c3.6,0,6.6-3.4,6.6-7.7c0-1.1,0-2.2,0-3.2c0-4.2,2.9-7.7,6.6-7.7h25.3"/>
</g>
<line class="st5" x1="801.1" y1="1417.8" x2="801.1" y2="1517.5"/>
<path class="st5" d="M864.8,1486.3h-25.3c-3.6,0-6.6-3.9-6.6-8.8c0-1.2,0-2.5,0-3.7c0-4.8-2.9-8.8-6.6-8.8h-25.3"/>
<path class="st5" d="M864.8,1437.3h-25.3c-3.6,0-6.6-3.9-6.6-8.8c0-1.2,0-2.5,0-3.7c0-4.8-2.9-8.8-6.6-8.8h-25.3"/>
<line class="st5" x1="761" y1="1762.7" x2="761" y2="1860.9"/>
<line class="st5" x1="760.8" y1="1828.7" x2="700.4" y2="1828.7"/>
<path class="st5" d="M719.2,1764.6v25.3c0,3.6-3.4,6.6-7.7,6.6c-1.1,0-2.2,0-3.2,0c-4.2,0-7.7,2.9-7.7,6.6v25.3"/>
<line class="st5" x1="461" y1="1437.7" x2="461" y2="1532.2"/>
<g>
	<line class="st5" x1="397.1" y1="1416.3" x2="397.1" y2="1537.7"/>
	<path class="st5" d="M460.7,1437.5h-25.3c-3.6,0-6.6-3.9-6.6-8.8c0-1.2,0-2.5,0-3.7c0-4.8-2.9-8.8-6.6-8.8h-25.3"/>
	<path class="st5" d="M460.7,1484.9h-25.3c-3.6,0-6.6-3.9-6.6-8.8c0-1.2,0-2.5,0-3.7c0-4.8-2.9-8.8-6.6-8.8h-25.3"/>
	<path class="st5" d="M460.7,1532.2h-25.3c-3.6,0-6.6-3.9-6.6-8.8c0-1.2,0-2.5,0-3.7c0-4.8-2.9-8.8-6.6-8.8h-25.3"/>
</g>
<g>
	<line class="st5" x1="661.3" y1="1440.7" x2="661.3" y2="1535.1"/>
	<line class="st5" x1="597.4" y1="1419.3" x2="597.4" y2="1540.6"/>
	<path class="st5" d="M661.1,1440.5h-25.3c-3.6,0-6.6-3.9-6.6-8.8c0-1.2,0-2.5,0-3.7c0-4.8-2.9-8.8-6.6-8.8h-25.3"/>
	<path class="st5" d="M661.1,1535.1h-25.3c-3.6,0-6.6-3.9-6.6-8.8c0-1.2,0-2.5,0-3.7c0-4.8-2.9-8.8-6.6-8.8h-25.3"/>
</g>
<g>
	<line class="st5" x1="1274.1" y1="1442.9" x2="1274.1" y2="1537.3"/>
	<path class="st5" d="M1273.9,1537.4h-25.3c-3.6,0-6.6-3.9-6.6-8.8c0-1.2,0-2.5,0-3.7c0-4.8-2.9-8.8-6.6-8.8h-25.3"/>
</g>
<g>
	<path class="st5" d="M1486,1534.7h-25.3c-3.6,0-6.6-3.9-6.6-8.8c0-1.2,0-2.5,0-3.7c0-4.8-2.9-8.8-6.6-8.8h-25.3"/>
	<line class="st5" x1="1422.4" y1="1419.1" x2="1422.4" y2="1513.5"/>
</g>
<g>
	<path class="st5" d="M1591.3,1442h-25.3c-3.6,0-6.6-3.9-6.6-8.8c0-1.2,0-2.5,0-3.7c0-4.8-2.9-8.8-6.6-8.8h-25.3"/>
	<line class="st5" x1="1527.6" y1="1422" x2="1527.6" y2="1516.4"/>
	<line class="st5" x1="1559.5" y1="1434.1" x2="1559.5" y2="1528.5"/>
	<line class="st5" x1="1591.3" y1="1444.2" x2="1591.3" y2="1538.6"/>
</g>
<g>
	<line class="st5" x1="1280.5" y1="1708.7" x2="1280.5" y2="1613"/>
	<g>
		<path class="st5" d="M1214.2,1688.5h25.3c3.6,0,6.6,4,6.6,8.9c0,1.2,0,2.5,0,3.7c0,4.9,2.9,8.9,6.6,8.9h25.3"/>
		<line class="st5" x1="1246" y1="1696.5" x2="1246" y2="1600.7"/>
		<line class="st5" x1="1214.2" y1="1688.3" x2="1214.2" y2="1592.6"/>
	</g>
</g>
<g>
	<path class="st5" d="M356.3,1608.7H331c-3.6,0-6.6-4-6.6-8.9c0-1.2,0-2.5,0-3.7c0-4.9-2.9-8.9-6.6-8.9h-25.3"/>
	<line class="st5" x1="292.6" y1="1588.5" x2="292.6" y2="1684.2"/>
	<line class="st5" x1="356.3" y1="1610.9" x2="356.3" y2="1706.7"/>
</g>
<g>
	<path class="st5" d="M970.2,1602.3H945c-3.6,0-6.6-4-6.6-8.9c0-1.2,0-2.5,0-3.7c0-4.9-2.9-8.9-6.6-8.9h-25.3"/>
	<line class="st5" x1="940.1" y1="1604.5" x2="940.1" y2="1697.7"/>
</g>
<g>
	<path class="st5" d="M661.2,1611H636c-3.6,0-6.6-4-6.6-8.9c0-1.2,0-2.5,0-3.7c0-4.9-2.9-8.9-6.6-8.9h-25.3"/>
	<path class="st5" d="M661.2,1710.1H636c-3.6,0-6.6-4-6.6-8.9c0-1.2,0-2.5,0-3.7c0-4.9-2.9-8.9-6.6-8.9h-25.3"/>
	<line class="st5" x1="597.5" y1="1590.8" x2="597.5" y2="1686.5"/>
	<line class="st5" x1="661.2" y1="1613.2" x2="661.2" y2="1709"/>
	<line class="st5" x1="646" y1="1686.5" x2="646" y2="1729.4"/>
</g>
<g>
	<path class="st5" d="M464.5,1608.6h-25.3c-3.6,0-6.6-4-6.6-8.9c0-1.2,0-2.5,0-3.7c0-4.9-2.9-8.9-6.6-8.9h-25.3"/>
	<path class="st5" d="M464.5,1707.7h-25.3c-3.6,0-6.6-4-6.6-8.9c0-1.2,0-2.5,0-3.7c0-4.9-2.9-8.9-6.6-8.9h-25.3"/>
	<line class="st5" x1="400.8" y1="1588.4" x2="400.8" y2="1684.2"/>
	<line class="st5" x1="464.5" y1="1612.4" x2="464.5" y2="1708.2"/>
</g>
<path class="st5" d="M464.5,1777.7h-25.3c-3.6,0-6.6-3.4-6.6-7.7c0-1.1,0-2.2,0-3.2c0-4.2-2.9-7.7-6.6-7.7h-25.3"/>
<line class="st5" x1="464.5" y1="1781" x2="464.5" y2="1863.9"/>
<path class="st5" d="M1067.1,1777.7h-25.3c-3.6,0-6.6-3.4-6.6-7.7c0-1.1,0-2.2,0-3.2c0-4.2-2.9-7.7-6.6-7.7h-25.3"/>
<line class="st5" x1="1067.1" y1="1781" x2="1067.1" y2="1863.9"/>
<line class="st5" x1="1080.7" y1="1811.4" x2="1049.8" y2="1811.4"/>
<g>
	<path class="st6" d="M356.6,1863.5h-25.3c-3.6,0-6.6-3.4-6.6-7.7c0-1.1,0-2.2,0-3.2c0-4.2-2.9-7.7-6.6-7.7h-25.3l63.7-67.2h-25.3
		c-3.6,0-6.6-3.4-6.6-7.7c0-1.1,0-2.2,0-3.2c0-4.2-2.9-7.7-6.6-7.7h-25.3"/>
	<line class="st5" x1="292.9" y1="1760.2" x2="292.9" y2="1843.1"/>
	<line class="st5" x1="356.6" y1="1781" x2="356.6" y2="1863.9"/>
</g>
<line class="st5" x1="1486.5" y1="1607.2" x2="1486.5" y2="1703"/>
<g>
	<path class="st5" d="M1486.5,1704.6h-25.3c-3.6,0-6.6-4-6.6-8.9c0-1.2,0-2.5,0-3.7c0-4.9-2.9-8.9-6.6-8.9h-25.3"/>
	<path class="st5" d="M1486.1,1666.8h-25.3c-3.6,0-6.6-4-6.6-8.9c0-1.2,0-2.5,0-3.7c0-4.9-2.9-8.9-6.6-8.9h-25.3"/>
	<line class="st5" x1="1422.4" y1="1589.6" x2="1422.4" y2="1644.8"/>
</g>
<g>
	<line class="st5" x1="1004.1" y1="1584.9" x2="1004.1" y2="1680.6"/>
	<g>
		<path class="st5" d="M1067.8,1704.2h-25.3c-3.6,0-6.6-4-6.6-8.9c0-1.2,0-2.5,0-3.7c0-4.9-2.9-8.9-6.6-8.9h-25.3"/>
		<line class="st5" x1="1067.8" y1="1608.9" x2="1067.8" y2="1704.6"/>
	</g>
</g>
<g>
	<path class="st5" d="M1169.6,1703.2h-25.3c-3.6,0-6.6-4-6.6-8.9c0-1.2,0-2.5,0-3.7c0-4.9-2.9-8.9-6.6-8.9H1106"/>
	<line class="st5" x1="1106" y1="1585.4" x2="1106" y2="1681.2"/>
	<line class="st5" x1="1169.6" y1="1607.4" x2="1169.6" y2="1703.1"/>
</g>
<rect x="1317.1" y="1840.3" class="st0" width="12.8" height="12.8"/>
<rect x="1453.3" y="1840.3" class="st0" width="12.8" height="12.8"/>
</svg>
