<?xml version="1.0" encoding="utf-8"?>
<!-- Generator: Adobe Illustrator 21.1.0, SVG Export Plug-In . SVG Version: 6.00 Build 0)  -->
<svg version="1.1" id="Layer_1" xmlns="http://www.w3.org/2000/svg" xmlns:xlink="http://www.w3.org/1999/xlink" x="0px" y="0px"
	 viewBox="0 0 1366 768" style="enable-background:new 0 0 1366 768;" xml:space="preserve">
<style type="text/css">
	.st0{fill:#086AFF;}
	.st1{fill:none;stroke:#FFFFFF;stroke-width:4.9973;stroke-linecap:square;stroke-miterlimit:10;}
	.st2{fill:none;stroke:#FFFFFF;stroke-width:4.6642;stroke-linecap:square;stroke-miterlimit:10;}
	.st3{fill:none;stroke:#FFFFFF;stroke-width:4.9564;stroke-linecap:square;stroke-miterlimit:10;}
	.st4{fill:none;stroke:#FFFFFF;stroke-width:4.9973;stroke-linecap:square;stroke-linejoin:round;stroke-miterlimit:10;}
	.st5{fill:none;stroke:#FFFFFF;stroke-width:2.1674;stroke-linecap:square;stroke-linejoin:round;stroke-miterlimit:10;}
	.st6{fill:none;stroke:#FFFFFF;stroke-width:5.1055;stroke-linecap:square;stroke-miterlimit:10;}
</style>
<rect x="2.1" class="st0" width="1363.3" height="768"/>
<g>
	<line class="st1" x1="883.6" y1="348" x2="883.6" y2="408.1"/>
	<path class="st1" d="M907.4,348.8h-19c-2.7,0-5-2.6-5-5.8c0-0.8,0-1.6,0-2.4c0-3.2-2.2-5.8-5-5.8h-19"/>
	<path class="st1" d="M907.4,413.8h-19c-2.7,0-5-2.6-5-5.8c0-0.8,0-1.6,0-2.4c0-3.2-2.2-5.8-5-5.8h-19"/>
</g>
<g>
	<line class="st1" x1="788.1" y1="333.1" x2="788.1" y2="399.1"/>
	<line class="st1" x1="836.3" y1="347.3" x2="836.3" y2="413.2"/>
	<path class="st1" d="M836.1,379.1h-19c-2.7,0-5-2.6-5-5.8c0-0.8,0-1.6,0-2.4c0-3.2-2.2-5.8-5-5.8h-19"/>
</g>
<g>
	<line class="st1" x1="988" y1="334" x2="988" y2="399.9"/>
	<path class="st1" d="M1036,348h-19c-2.7,0-5-2.6-5-5.8c0-0.8,0-1.6,0-2.4c0-3.2-2.2-5.8-5-5.8h-19"/>
	<path class="st1" d="M1036,379.3h-19c-2.7,0-5-2.6-5-5.8c0-0.8,0-1.6,0-2.4c0-3.2-2.2-5.8-5-5.8h-19"/>
	<path class="st1" d="M1036,414h-19c-2.7,0-5-2.6-5-5.8c0-0.8,0-1.6,0-2.4c0-3.2-2.2-5.8-5-5.8h-19"/>
</g>
<g>
	<line class="st1" x1="522.7" y1="334" x2="522.7" y2="399.9"/>
	<path class="st1" d="M570.7,348h-19c-2.7,0-5-2.6-5-5.8c0-0.8,0-1.6,0-2.4c0-3.2-2.2-5.8-5-5.8h-19"/>
	<path class="st1" d="M570.7,379.3h-19c-2.7,0-5-2.6-5-5.8c0-0.8,0-1.6,0-2.4c0-3.2-2.2-5.8-5-5.8h-19"/>
	<path class="st1" d="M570.7,414h-19c-2.7,0-5-2.6-5-5.8c0-0.8,0-1.6,0-2.4c0-3.2-2.2-5.8-5-5.8h-19"/>
</g>
<g>
	<line class="st2" x1="376.1" y1="348.1" x2="376.1" y2="410.6"/>
	<g>
		<line class="st3" x1="327.9" y1="334" x2="327.9" y2="414.3"/>
		<path class="st1" d="M375.9,348h-19c-2.7,0-5-2.6-5-5.8c0-0.8,0-1.6,0-2.4c0-3.2-2.2-5.8-5-5.8h-19"/>
		<path class="st1" d="M375.9,379.3h-19c-2.7,0-5-2.6-5-5.8c0-0.8,0-1.6,0-2.4c0-3.2-2.2-5.8-5-5.8h-19"/>
		<path class="st1" d="M375.9,410.6h-19c-2.7,0-5-2.6-5-5.8c0-0.8,0-1.6,0-2.4c0-3.2-2.2-5.8-5-5.8h-19"/>
	</g>
</g>
<g>
	<path class="st1" d="M444.3,413.9h-19c-2.7,0-5-2.6-5-5.8c0-0.8,0-1.6,0-2.4c0-3.2-2.2-5.8-5-5.8h-19"/>
	<line class="st1" x1="396.3" y1="337.5" x2="396.3" y2="399.9"/>
</g>
<g>
	<line class="st4" x1="767.8" y1="413.4" x2="768" y2="350.1"/>
	<g>
		<path class="st4" d="M718.1,399.4h19c2.7,0,5,2.6,5,5.8c0,0.8,0,1.6,0,2.4c0,3.2,2.2,5.8,5,5.8l20.8,0"/>
		<line class="st4" x1="742" y1="404.6" x2="742" y2="342.1"/>
		<line class="st4" x1="718.1" y1="399.2" x2="718.1" y2="336.8"/>
	</g>
</g>
<g>
	<line class="st5" x1="633.7" y1="379.3" x2="657" y2="379.3"/>
	<g>
		<path class="st5" d="M638.6,360.7v7.1c0,1-1,1.8-2.2,1.8c-0.3,0-0.6,0-0.9,0c-1.2,0-2.2,0.8-2.2,1.8v7.1"/>
		<line class="st5" x1="636.7" y1="369.6" x2="660" y2="369.6"/>
		<line class="st5" x1="638.7" y1="360.7" x2="662" y2="360.7"/>
	</g>
</g>
<g>
	<path class="st6" d="M968.5,348.8h-19c-2.7,0-5-2.7-5-6c0-0.8,0-1.7,0-2.5c0-3.3-2.2-6-5-6h-19"/>
	<line class="st6" x1="945.9" y1="350.3" x2="945.9" y2="413.8"/>
</g>
<g>
	<line class="st1" x1="457" y1="335.6" x2="457" y2="398.1"/>
	<g>
		<path class="st1" d="M505,413.4h-19c-2.7,0-5-2.6-5-5.8c0-0.8,0-1.6,0-2.4c0-3.2-2.2-5.8-5-5.8h-19"/>
		<line class="st1" x1="505" y1="351.2" x2="504.8" y2="413.4"/>
	</g>
</g>
<line class="st5" x1="650.3" y1="360.7" x2="650.3" y2="349.1"/>
<line class="st5" x1="645" y1="391.1" x2="645" y2="379.6"/>
<line class="st5" x1="287.7" y1="369" x2="144.7" y2="369"/>
<line class="st5" x1="1219" y1="369" x2="1075.9" y2="369"/>
</svg>
