<?xml version="1.0" encoding="utf-8"?>
<!-- Generator: Adobe Illustrator 21.1.0, SVG Export Plug-In . SVG Version: 6.00 Build 0)  -->
<svg version="1.1" id="Layer_1" xmlns="http://www.w3.org/2000/svg" xmlns:xlink="http://www.w3.org/1999/xlink" x="0px" y="0px"
	 viewBox="0 0 1366 768" style="enable-background:new 0 0 1366 768;" xml:space="preserve">
<style type="text/css">
	.st0{fill:#086AFF;}
	.st1{fill:none;stroke:#FFFFFF;stroke-width:1.0818;stroke-linecap:round;stroke-linejoin:round;stroke-miterlimit:10;}
	.st2{fill:#FFFFFF;}
	.st3{opacity:0.15;fill:#086AFF;}
	.st4{fill:none;stroke:#086AFF;stroke-width:2;stroke-linecap:square;stroke-linejoin:round;stroke-miterlimit:10;}
</style>
<rect x="-541.5" y="-12" class="st0" width="2449" height="792"/>
<g>
	<polyline class="st1" points="699.3,270.3 656.3,200.6 632.3,278.9 	"/>
	<polyline class="st1" points="675.2,348.5 663.8,291.3 675,284.8 699.3,270.4 675.3,348.7 632.3,279 	"/>
</g>
<polygon class="st1" points="664.9,251.9 677.5,283.3 684.6,246.6 "/>
<polyline class="st1" points="663.8,291.3 644.3,239.8 664.9,251.9 655.2,204.4 "/>
<polygon class="st1" points="698.4,328.3 716.7,263.4 752.5,237.6 752.3,301.3 "/>
<polyline class="st1" points="698.4,328.3 734.5,279.2 752.3,301.3 "/>
<polyline class="st1" points="752.5,237.6 734.5,279.2 727.7,255.5 "/>
<polygon class="st1" points="627.6,269.6 618.6,251.3 621.5,238.2 634.3,252.6 "/>
<polyline class="st1" points="627.6,269.6 625.8,251.2 634.3,252.6 "/>
<polyline class="st1" points="621.5,238.2 625.8,251.2 619.5,247.2 "/>
<polygon class="st1" points="703,255.3 687.6,222.9 692,185.7 707,231.5 "/>
<polygon class="st1" points="711.7,248.4 717.6,222.8 735.9,213.5 734,231.2 "/>
<polyline class="st1" points="734,231.2 725.4,229.2 735.9,213.5 "/>
<polyline class="st1" points="711.7,248.4 725.4,229.2 717.6,222.8 "/>
<polygon class="st1" points="594.9,296 637,305.7 652.1,335.8 623,332.7 "/>
<polyline class="st1" points="623,332.7 626.5,318.6 652.1,335.8 "/>
<polyline class="st1" points="594.9,296 626.5,318.6 637,305.7 "/>
<polyline class="st1" points="703,255.3 696.2,218.6 707,231.5 "/>
<polyline class="st1" points="692,185.7 696.2,218.6 687.6,222.9 "/>
<polygon class="st1" points="690.7,348.9 721.6,325.8 761.2,317.2 716.3,344.4 "/>
<polyline class="st1" points="690.7,348.9 727.7,331.4 716.3,344.4 "/>
<polyline class="st1" points="761.2,317.2 727.7,331.4 721.6,325.8 "/>
<polygon class="st1" points="627.6,295.9 607.7,276.8 600.7,248.9 624,277.7 "/>
<polyline class="st1" points="627.6,295.9 612.7,271.4 624,277.7 "/>
<polyline class="st1" points="600.7,248.9 612.7,271.4 607.7,276.8 "/>
<g>
	<rect x="493" y="386.2" class="st2" width="373" height="72.6"/>
	<rect x="866" y="405.2" class="st2" width="83" height="72.6"/>
	<rect x="410" y="404.2" class="st2" width="83" height="72.6"/>
	<polyline class="st2" points="410,404.5 350,404.5 410,440.5 350,476.5 410,476.5 	"/>
	<polyline class="st2" points="949,477.5 1009,477.5 949,441.5 1009,405.5 949,405.5 	"/>
	<rect x="866" y="405.5" class="st3" width="15" height="72"/>
	<rect x="478" y="404.5" class="st3" width="15" height="72"/>
</g>
<g>
	<g>
		<line class="st4" x1="581.1" y1="408.5" x2="581.1" y2="438.3"/>
		<path class="st4" d="M592.9,410.3h-9.5c-1.4,0-2.5-1.3-2.5-2.9c0-0.4,0-0.8,0-1.2c0-1.6-1.1-2.9-2.5-2.9h-9.5"/>
		<path class="st4" d="M592.9,441.2h-9.5c-1.4,0-2.5-1.3-2.5-2.9c0-0.4,0-0.8,0-1.2c0-1.6-1.1-2.9-2.5-2.9h-9.5"/>
	</g>
	<g>
		<line class="st4" x1="608.1" y1="405.3" x2="608.1" y2="438.1"/>
		<line class="st4" x1="632.1" y1="412.3" x2="632.1" y2="445.1"/>
		<path class="st4" d="M632,412.3h-9.5c-1.4,0-2.5-1.3-2.5-2.9c0-0.4,0-0.8,0-1.2c0-1.6-1.1-2.9-2.5-2.9h-9.5"/>
		<path class="st4" d="M632,427.8h-9.5c-1.4,0-2.5-1.3-2.5-2.9c0-0.4,0-0.8,0-1.2c0-1.6-1.1-2.9-2.5-2.9h-9.5"/>
	</g>
	<g>
		<line class="st4" x1="807.9" y1="405.6" x2="807.9" y2="419.1"/>
		<line class="st4" x1="832" y1="426.2" x2="832" y2="438.3"/>
		<path class="st4" d="M831.8,412.5h-9.5c-1.4,0-2.5-1.3-2.5-2.9c0-0.4,0-0.8,0-1.2c0-1.6-1.1-2.9-2.5-2.9H808"/>
		<path class="st4" d="M832,438.4h-9.5c-1.4,0-2.5-1.3-2.5-2.9c0-0.4,0-0.8,0-1.2c0-1.6-1.1-2.9-2.5-2.9h-9.5"/>
		<path class="st4" d="M831.8,426.1h-9.5c-1.4,0-2.5-1.3-2.5-2.9c0-0.4,0-0.8,0-1.2c0-1.6-1.1-2.9-2.5-2.9H808"/>
	</g>
	<g>
		<line class="st4" x1="551.3" y1="406.1" x2="551.3" y2="437.2"/>
		<line class="st4" x1="527.4" y1="399.1" x2="527.4" y2="439"/>
		<path class="st4" d="M551.2,406h-9.5c-1.4,0-2.5-1.3-2.5-2.9c0-0.4,0-0.8,0-1.2c0-1.6-1.1-2.9-2.5-2.9h-9.5"/>
		<path class="st4" d="M551.2,437.2h-9.5c-1.4,0-2.5-1.3-2.5-2.9c0-0.4,0-0.8,0-1.2c0-1.6-1.1-2.9-2.5-2.9h-9.5"/>
	</g>
	<g>
		<line class="st4" x1="793.3" y1="410.8" x2="793.3" y2="441.8"/>
		<line class="st4" x1="769.4" y1="403.7" x2="769.4" y2="443.6"/>
		<path class="st4" d="M793.2,410.7h-9.5c-1.4,0-2.5-1.3-2.5-2.9c0-0.4,0-0.8,0-1.2c0-1.6-1.1-2.9-2.5-2.9h-9.5"/>
		<path class="st4" d="M793.2,441.8h-9.5c-1.4,0-2.5-1.3-2.5-2.9c0-0.4,0-0.8,0-1.2c0-1.6-1.1-2.9-2.5-2.9h-9.5"/>
	</g>
	<g>
		<path class="st4" d="M673.9,411.4h-9.5c-1.4,0-2.5-1.3-2.5-2.9c0-0.4,0-0.8,0-1.2c0-1.6-1.1-2.9-2.5-2.9H650"/>
		<line class="st4" x1="650" y1="404.8" x2="650" y2="435.8"/>
		<line class="st4" x1="661.9" y1="408.8" x2="661.9" y2="439.8"/>
		<line class="st4" x1="673.9" y1="411.5" x2="673.9" y2="443.1"/>
	</g>
	<g>
		<path class="st4" d="M754.3,411.4h-9.5c-1.4,0-2.5-1.3-2.5-2.9c0-0.4,0-0.8,0-1.2c0-1.6-1.1-2.9-2.5-2.9h-9.5"/>
		<line class="st4" x1="730.4" y1="404.8" x2="730.4" y2="435.8"/>
		<line class="st4" x1="754.3" y1="411.5" x2="754.3" y2="443.1"/>
	</g>
	<g>
		<path class="st4" d="M712.5,412.4h-9.5c-1.4,0-2.5-1.3-2.5-2.9c0-0.4,0-0.8,0-1.2c0-1.6-1.1-2.9-2.5-2.9h-9.5"/>
		<path class="st4" d="M712.5,444.5h-9.5c-1.4,0-2.5-1.3-2.5-2.9c0-0.4,0-0.8,0-1.2c0-1.6-1.1-2.9-2.5-2.9h-9.5"/>
		<line class="st4" x1="688.6" y1="405.9" x2="688.6" y2="437.5"/>
		<line class="st4" x1="712.5" y1="412.7" x2="712.5" y2="444.7"/>
	</g>
</g>
</svg>
