<?xml version="1.0" encoding="utf-8"?>
<!-- Generator: Adobe Illustrator 21.1.0, SVG Export Plug-In . SVG Version: 6.00 Build 0)  -->
<svg version="1.1" id="Layer_1" xmlns="http://www.w3.org/2000/svg" xmlns:xlink="http://www.w3.org/1999/xlink" x="0px" y="0px"
	 viewBox="0 0 1210.3 768" style="enable-background:new 0 0 1210.3 768;" xml:space="preserve">
<style type="text/css">
	.st0{fill:#086AFF;}
	.st1{fill:none;stroke:#FFFFFF;stroke-width:2.1997;stroke-linecap:square;stroke-miterlimit:10;}
	.st2{fill:none;stroke:#FFFFFF;stroke-width:0.4071;stroke-linecap:square;stroke-miterlimit:10;}
	.st3{fill:none;stroke:#FFFFFF;stroke-width:0.411;stroke-linecap:square;stroke-miterlimit:10;}
	.st4{fill:none;stroke:#FFFFFF;stroke-width:0.3744;stroke-linecap:square;stroke-miterlimit:10;}
	.st5{fill:none;stroke:#FFFFFF;stroke-width:0.4133;stroke-linecap:square;stroke-miterlimit:10;}
	.st6{fill:none;stroke:#FFFFFF;stroke-width:4.3428;stroke-linecap:round;stroke-miterlimit:10;}
	.st7{fill:none;stroke:#FFFFFF;stroke-width:3.8;stroke-linecap:round;stroke-miterlimit:10;}
	.st8{fill:none;stroke:#FFFFFF;stroke-width:5.1209;stroke-linecap:round;stroke-linejoin:round;stroke-miterlimit:10;}
</style>
<rect x="-102.6" y="-4.4" class="st0" width="1366" height="391.4"/>
<g>
	<line class="st1" x1="360.5" y1="54.3" x2="360.5" y2="88"/>
	<path class="st1" d="M385,61.5h-9.7c-1.4,0-2.5-1.3-2.5-3c0-0.4,0-0.8,0-1.2c0-1.6-1.1-3-2.5-3h-9.7"/>
	<path class="st1" d="M385,95.2h-9.7c-1.4,0-2.5-1.3-2.5-3c0-0.4,0-0.8,0-1.2c0-1.6-1.1-3-2.5-3h-9.7"/>
</g>
<g>
	<line class="st1" x1="374.4" y1="115" x2="374.4" y2="145.7"/>
	<path class="st1" d="M386.5,115.4h-9.7c-1.4,0-2.5-1.3-2.5-3c0-0.4,0-0.8,0-1.2c0-1.6-1.1-3-2.5-3H362"/>
	<path class="st1" d="M386.5,148.6h-9.7c-1.4,0-2.5-1.3-2.5-3c0-0.4,0-0.8,0-1.2c0-1.6-1.1-3-2.5-3H362"/>
</g>
<g>
	<line class="st1" x1="315.2" y1="131.2" x2="315.2" y2="148.1"/>
	<line class="st1" x1="290.1" y1="107.2" x2="290.1" y2="140.9"/>
	<path class="st1" d="M314.6,114.4h-9.7c-1.4,0-2.5-1.3-2.5-3c0-0.4,0-0.8,0-1.2c0-1.6-1.1-3-2.5-3h-9.7"/>
	<path class="st1" d="M315.1,131.2h-7.6c-1.1,0-2-1.3-2-3c0-0.4,0-0.8,0-1.2c0-1.6-0.9-3-2-3h-7.6"/>
	<path class="st1" d="M314.6,148.1h-9.7c-1.4,0-2.5-1.3-2.5-3c0-0.4,0-0.8,0-1.2c0-1.6-1.1-3-2.5-3h-9.7"/>
</g>
<g>
	<line class="st1" x1="290.6" y1="54.3" x2="290.6" y2="88"/>
	<line class="st1" x1="315.2" y1="61.5" x2="315.2" y2="95.2"/>
	<path class="st1" d="M315.1,61.5h-9.7c-1.4,0-2.5-1.3-2.5-3c0-0.4,0-0.8,0-1.2c0-1.6-1.1-3-2.5-3h-9.7"/>
	<path class="st1" d="M315.1,77.5h-9.7c-1.4,0-2.5-1.3-2.5-3c0-0.4,0-0.8,0-1.2c0-1.6-1.1-3-2.5-3h-9.7"/>
</g>
<line class="st1" x1="325.6" y1="107.7" x2="325.6" y2="141.4"/>
<line class="st1" x1="350.2" y1="115" x2="350.2" y2="148.6"/>
<path class="st1" d="M350.1,131.2h-9.7c-1.4,0-2.5-1.3-2.5-3c0-0.4,0-0.8,0-1.2c0-1.6-1.1-3-2.5-3h-9.7"/>
<g>
	<line class="st1" x1="432.2" y1="107.8" x2="432.2" y2="141.5"/>
	<path class="st1" d="M455,113l-6.9,6.9c-1,1-2.7,0.9-3.9-0.3c-0.3-0.3-0.6-0.6-0.9-0.9c-1.2-1.2-2.9-1.3-3.9-0.3l-6.9,6.9"/>
	<path class="st1" d="M455.6,141.2l-6.9-6.9c-1-1-0.9-2.7,0.3-3.9c0.3-0.3,0.6-0.6,0.9-0.9c1.2-1.2,1.3-2.9,0.3-3.9l-6.9-6.9"/>
</g>
<g>
	<line class="st1" x1="432.1" y1="157.6" x2="432.1" y2="191.3"/>
	<line class="st1" x1="456.6" y1="164.8" x2="456.6" y2="180.7"/>
	<path class="st1" d="M456.6,164.7h-9.7c-1.4,0-2.5-1.3-2.5-3c0-0.4,0-0.8,0-1.2c0-1.6-1.1-3-2.5-3h-9.7"/>
	<path class="st1" d="M456.6,180.7h-9.7c-1.4,0-2.5-1.3-2.5-3c0-0.4,0-0.8,0-1.2c0-1.6-1.1-3-2.5-3h-9.7"/>
</g>
<g>
	<path class="st1" d="M380.7,289.2l-9.8-5.6c-1.4-0.8-1.8-2.8-0.8-4.4c0.2-0.4,0.5-0.8,0.7-1.3c0.9-1.6,0.6-3.6-0.8-4.4l-9.8-5.6"/>
	<path class="st1" d="M392.7,305.6l-9.8-5.6c-1.4-0.8-1.8-2.8-0.8-4.4c0.2-0.4,0.5-0.8,0.7-1.3c0.9-1.6,0.6-3.6-0.8-4.4l-9.8-5.6"/>
	<path class="st1" d="M371.8,289.2l9.8-5.6c1.4-0.8,1.8-2.8,0.8-4.4c-0.2-0.4-0.5-0.8-0.7-1.3c-0.9-1.6-0.6-3.6,0.8-4.4l9.8-5.6"/>
	<path class="st1" d="M359.7,305.6l9.8-5.6c1.4-0.8,1.8-2.8,0.8-4.4c-0.2-0.4-0.5-0.8-0.7-1.3c-0.9-1.6-0.6-3.6,0.8-4.4l9.8-5.6"/>
</g>
<g>
	<line class="st1" x1="362" y1="215.7" x2="362" y2="229.5"/>
	<line class="st1" x1="386.7" y1="236.8" x2="386.7" y2="249.3"/>
	<path class="st1" d="M386.5,222.7h-9.7c-1.4,0-2.5-1.3-2.5-3c0-0.4,0-0.8,0-1.2c0-1.6-1.1-3-2.5-3H362"/>
	<path class="st1" d="M386.7,249.3H377c-1.4,0-2.5-1.3-2.5-3c0-0.4,0-0.8,0-1.2c0-1.6-1.1-3-2.5-3h-9.7"/>
	<path class="st1" d="M386.5,236.7h-9.7c-1.4,0-2.5-1.3-2.5-3c0-0.4,0-0.8,0-1.2c0-1.6-1.1-3-2.5-3H362"/>
</g>
<line class="st1" x1="457.8" y1="272.5" x2="457.8" y2="286.4"/>
<line class="st1" x1="433.1" y1="293.6" x2="433.1" y2="306.1"/>
<path class="st1" d="M433.2,279.6h9.7c1.4,0,2.5-1.3,2.5-3c0-0.4,0-0.8,0-1.2c0-1.6,1.1-3,2.5-3h9.7"/>
<path class="st1" d="M433.1,306.1h9.7c1.4,0,2.5-1.3,2.5-3c0-0.4,0-0.8,0-1.2c0-1.6,1.1-3,2.5-3h9.7"/>
<path class="st1" d="M433.2,293.5h9.7c1.4,0,2.5-1.3,2.5-3c0-0.4,0-0.8,0-1.2c0-1.6,1.1-3,2.5-3h9.7"/>
<g>
	<line class="st1" x1="325.6" y1="215.6" x2="325.6" y2="249.3"/>
	<line class="st1" x1="350.1" y1="222.8" x2="350.1" y2="238.7"/>
	<path class="st1" d="M350.1,222.7h-9.7c-1.4,0-2.5-1.3-2.5-3c0-0.4,0-0.8,0-1.2c0-1.6-1.1-3-2.5-3h-9.7"/>
	<path class="st1" d="M350.1,238.7h-9.7c-1.4,0-2.5-1.3-2.5-3c0-0.4,0-0.8,0-1.2c0-1.6-1.1-3-2.5-3h-9.7"/>
	<path class="st1" d="M350.1,249.1l-6.9-6.9c-0.8-0.8-0.9-2-0.3-3.1"/>
</g>
<g>
	<line class="st1" x1="432.1" y1="54.3" x2="432.1" y2="88"/>
	<path class="st1" d="M456.6,61.5h-9.7c-1.4,0-2.5-1.3-2.5-3c0-0.4,0-0.8,0-1.2c0-1.6-1.1-3-2.5-3h-9.7"/>
	<path class="st1" d="M456.6,77.5h-9.7c-1.4,0-2.5-1.3-2.5-3c0-0.4,0-0.8,0-1.2c0-1.6-1.1-3-2.5-3h-9.7"/>
	<path class="st1" d="M456.6,95.2h-9.7c-1.4,0-2.5-1.3-2.5-3c0-0.4,0-0.8,0-1.2c0-1.6-1.1-3-2.5-3h-9.7"/>
</g>
<line class="st1" x1="350.2" y1="61.5" x2="350.2" y2="93.4"/>
<g>
	<line class="st1" x1="325.6" y1="54.3" x2="325.6" y2="95.3"/>
	<path class="st1" d="M350.1,61.5h-9.7c-1.4,0-2.5-1.3-2.5-3c0-0.4,0-0.8,0-1.2c0-1.6-1.1-3-2.5-3h-9.7"/>
	<path class="st1" d="M350.1,77.5h-9.7c-1.4,0-2.5-1.3-2.5-3c0-0.4,0-0.8,0-1.2c0-1.6-1.1-3-2.5-3h-9.7"/>
	<path class="st1" d="M350.1,93.5h-9.7c-1.4,0-2.5-1.3-2.5-3c0-0.4,0-0.8,0-1.2c0-1.6-1.1-3-2.5-3h-9.7"/>
</g>
<g>
	<line class="st1" x1="421.8" y1="61.5" x2="421.8" y2="93.4"/>
	<line class="st1" x1="397.2" y1="54.3" x2="397.2" y2="95.3"/>
	<path class="st1" d="M421.7,61.5H412c-1.4,0-2.5-1.3-2.5-3c0-0.4,0-0.8,0-1.2c0-1.6-1.1-3-2.5-3h-9.7"/>
	<path class="st1" d="M421.7,93.5H412c-1.4,0-2.5-1.3-2.5-3c0-0.4,0-0.8,0-1.2c0-1.6-1.1-3-2.5-3h-9.7"/>
</g>
<g>
	<line class="st1" x1="421.8" y1="116.7" x2="421.8" y2="148.6"/>
	<path class="st1" d="M421.7,148.6H412c-1.4,0-2.5-1.3-2.5-3c0-0.4,0-0.8,0-1.2c0-1.6-1.1-3-2.5-3h-9.7"/>
</g>
<g>
	<path class="st1" d="M314.6,198.1h-9.7c-1.4,0-2.5-1.3-2.5-3c0-0.4,0-0.8,0-1.2c0-1.6-1.1-3-2.5-3h-9.7"/>
	<line class="st1" x1="290.1" y1="159" x2="290.1" y2="190.9"/>
</g>
<g>
	<path class="st1" d="M350.1,165.8h-9.7c-1.4,0-2.5-1.3-2.5-3c0-0.4,0-0.8,0-1.2c0-1.6-1.1-3-2.5-3h-9.7"/>
	<line class="st1" x1="325.6" y1="159" x2="325.6" y2="190.9"/>
	<line class="st1" x1="337.9" y1="163.1" x2="337.9" y2="195"/>
	<line class="st1" x1="350.1" y1="166.5" x2="350.1" y2="198.4"/>
</g>
<g>
	<line class="st1" x1="351.1" y1="305.8" x2="351.1" y2="273.9"/>
	<g>
		<path class="st1" d="M325.6,299.1h9.7c1.4,0,2.5,1.3,2.5,3c0,0.4,0,0.8,0,1.2c0,1.6,1.1,3,2.5,3h9.7"/>
		<line class="st1" x1="337.9" y1="301.8" x2="337.9" y2="269.9"/>
		<line class="st1" x1="325.6" y1="299" x2="325.6" y2="267.1"/>
	</g>
</g>
<g>
	<path class="st1" d="M386.5,165.8h-9.7c-1.4,0-2.5-1.3-2.5-3c0-0.4,0-0.8,0-1.2c0-1.6-1.1-3-2.5-3H362"/>
	<line class="st1" x1="362" y1="159" x2="362" y2="190.9"/>
	<line class="st1" x1="386.5" y1="166.5" x2="386.5" y2="198.4"/>
</g>
<g>
	<path class="st1" d="M421.1,218h-9.7c-1.4,0-2.5-1.3-2.5-3c0-0.4,0-0.8,0-1.2c0-1.6-1.1-3-2.5-3h-9.7"/>
	<line class="st1" x1="409.5" y1="218.7" x2="409.5" y2="249.8"/>
</g>
<g>
	<path class="st1" d="M314.6,215.9h-9.7c-1.4,0-2.5-1.3-2.5-3c0-0.4,0-0.8,0-1.2c0-1.6-1.1-3-2.5-3h-9.7"/>
	<path class="st1" d="M314.6,248.9h-9.7c-1.4,0-2.5-1.3-2.5-3c0-0.4,0-0.8,0-1.2c0-1.6-1.1-3-2.5-3h-9.7"/>
	<line class="st1" x1="290.1" y1="209.2" x2="290.1" y2="241.1"/>
	<line class="st1" x1="314.6" y1="216.7" x2="314.6" y2="248.6"/>
	<line class="st1" x1="308.7" y1="241.1" x2="308.7" y2="255.4"/>
</g>
<g>
	<path class="st1" d="M421.7,165.2H412c-1.4,0-2.5-1.3-2.5-3c0-0.4,0-0.8,0-1.2c0-1.6-1.1-3-2.5-3h-9.7"/>
	<path class="st1" d="M421.7,198.2H412c-1.4,0-2.5-1.3-2.5-3c0-0.4,0-0.8,0-1.2c0-1.6-1.1-3-2.5-3h-9.7"/>
	<line class="st1" x1="397.2" y1="158.5" x2="397.2" y2="190.4"/>
	<line class="st1" x1="421.7" y1="166.5" x2="421.7" y2="198.4"/>
</g>
<line class="st1" x1="424.5" y1="273" x2="424.5" y2="304.9"/>
<g>
	<path class="st1" d="M424.5,305.4h-9.7c-1.4,0-2.5-1.3-2.5-3c0-0.4,0-0.8,0-1.2c0-1.6-1.1-3-2.5-3H400"/>
	<path class="st1" d="M424.3,292.8h-9.7c-1.4,0-2.5-1.3-2.5-3c0-0.4,0-0.8,0-1.2c0-1.6-1.1-3-2.5-3h-9.7"/>
	<line class="st1" x1="399.8" y1="267.1" x2="399.8" y2="285.5"/>
</g>
<g>
	<line class="st1" x1="432.1" y1="209.7" x2="432.1" y2="241.6"/>
	<g>
		<path class="st1" d="M456.6,249.5h-9.7c-1.4,0-2.5-1.3-2.5-3c0-0.4,0-0.8,0-1.2c0-1.6-1.1-3-2.5-3h-9.7"/>
		<line class="st1" x1="456.6" y1="217.7" x2="456.6" y2="249.6"/>
	</g>
</g>
<g>
	<path class="st1" d="M315.4,306.4h-9.7c-1.4,0-2.5-1.3-2.5-3c0-0.4,0-0.8,0-1.2c0-1.6-1.1-3-2.5-3h-9.7"/>
	<line class="st1" x1="290.9" y1="267.2" x2="290.9" y2="299.1"/>
	<line class="st1" x1="315.4" y1="274.5" x2="315.4" y2="306.4"/>
</g>
<g>
	<line class="st2" x1="592.1" y1="53.2" x2="592.1" y2="86.9"/>
	<path class="st2" d="M616.6,60.4h-9.7c-1.4,0-2.5-1.3-2.5-3c0-0.4,0-0.8,0-1.2c0-1.6-1.1-3-2.5-3h-9.7"/>
	<path class="st2" d="M616.6,94.1h-9.7c-1.4,0-2.5-1.3-2.5-3c0-0.4,0-0.8,0-1.2c0-1.6-1.1-3-2.5-3h-9.7"/>
</g>
<line class="st2" x1="606" y1="113.9" x2="606" y2="144.6"/>
<path class="st2" d="M618.2,115.8h-9.7c-1.4,0-2.5-1.3-2.5-3c0-0.4,0-0.8,0-1.2c0-1.6-1.1-3-2.5-3h-9.7"/>
<path class="st2" d="M618.2,147.5h-9.7c-1.4,0-2.5-1.3-2.5-3c0-0.4,0-0.8,0-1.2c0-1.6-1.1-3-2.5-3h-9.7"/>
<g>
	<line class="st2" x1="546.8" y1="130.1" x2="546.8" y2="147"/>
	<line class="st2" x1="521.7" y1="106.1" x2="521.7" y2="139.8"/>
	<path class="st2" d="M546.2,113.3h-9.7c-1.4,0-2.5-1.3-2.5-3c0-0.4,0-0.8,0-1.2c0-1.6-1.1-3-2.5-3h-9.7"/>
	<path class="st2" d="M546.7,130.1h-7.6c-1.1,0-2-1.3-2-3c0-0.4,0-0.8,0-1.2c0-1.6-0.9-3-2-3h-7.6"/>
	<path class="st2" d="M546.2,147h-9.7c-1.4,0-2.5-1.3-2.5-3c0-0.4,0-0.8,0-1.2c0-1.6-1.1-3-2.5-3h-9.7"/>
</g>
<g>
	<line class="st2" x1="522.2" y1="53.2" x2="522.2" y2="86.9"/>
	<line class="st2" x1="546.8" y1="60.5" x2="546.8" y2="94.1"/>
	<path class="st2" d="M546.7,60.4H537c-1.4,0-2.5-1.3-2.5-3c0-0.4,0-0.8,0-1.2c0-1.6-1.1-3-2.5-3h-9.7"/>
	<path class="st2" d="M546.7,76.4H537c-1.4,0-2.5-1.3-2.5-3c0-0.4,0-0.8,0-1.2c0-1.6-1.1-3-2.5-3h-9.7"/>
</g>
<g>
	<line class="st2" x1="557.2" y1="106.6" x2="557.2" y2="140.3"/>
	<line class="st2" x1="581.8" y1="113.9" x2="581.8" y2="147.6"/>
	<path class="st2" d="M581.7,130.1H572c-1.4,0-2.5-1.3-2.5-3c0-0.4,0-0.8,0-1.2c0-1.6-1.1-3-2.5-3h-9.7"/>
</g>
<g>
	<line class="st2" x1="663.8" y1="106.7" x2="663.8" y2="140.4"/>
	<path class="st2" d="M686.7,111.9l-6.9,6.9c-1,1-2.7,0.9-3.9-0.3c-0.3-0.3-0.6-0.6-0.9-0.9c-1.2-1.2-2.9-1.3-3.9-0.3l-6.9,6.9"/>
	<path class="st2" d="M687.2,140.1l-6.9-6.9c-1-1-0.9-2.7,0.3-3.9c0.3-0.3,0.6-0.6,0.9-0.9c1.2-1.2,1.3-2.9,0.3-3.9l-6.9-6.9"/>
</g>
<g>
	<line class="st2" x1="663.7" y1="156.5" x2="663.7" y2="190.2"/>
	<line class="st2" x1="688.2" y1="163.7" x2="688.2" y2="179.6"/>
	<path class="st2" d="M688.2,163.6h-9.7c-1.4,0-2.5-1.3-2.5-3c0-0.4,0-0.8,0-1.2c0-1.6-1.1-3-2.5-3h-9.7"/>
	<path class="st2" d="M688.2,179.6h-9.7c-1.4,0-2.5-1.3-2.5-3c0-0.4,0-0.8,0-1.2c0-1.6-1.1-3-2.5-3h-9.7"/>
</g>
<g>
	<path class="st2" d="M612.3,288.1l-9.8-5.6c-1.4-0.8-1.8-2.8-0.8-4.4c0.2-0.4,0.5-0.8,0.7-1.3c0.9-1.6,0.6-3.6-0.8-4.4l-9.8-5.6"/>
	<path class="st2" d="M624.4,304.5l-9.8-5.6c-1.4-0.8-1.8-2.8-0.8-4.4c0.2-0.4,0.5-0.8,0.7-1.3c0.9-1.6,0.6-3.6-0.8-4.4l-9.8-5.6"/>
	<path class="st2" d="M603.4,288.1l9.8-5.6c1.4-0.8,1.8-2.8,0.8-4.4c-0.2-0.4-0.5-0.8-0.7-1.3c-0.9-1.6-0.6-3.6,0.8-4.4l9.8-5.6"/>
	<path class="st2" d="M591.4,304.5l9.8-5.6c1.4-0.8,1.8-2.8,0.8-4.4c-0.2-0.4-0.5-0.8-0.7-1.3c-0.9-1.6-0.6-3.6,0.8-4.4l9.8-5.6"/>
</g>
<g>
	<line class="st2" x1="593.6" y1="214.6" x2="593.6" y2="228.4"/>
	<line class="st2" x1="618.3" y1="235.7" x2="618.3" y2="248.2"/>
	<path class="st2" d="M618.2,221.7h-9.7c-1.4,0-2.5-1.3-2.5-3c0-0.4,0-0.8,0-1.2c0-1.6-1.1-3-2.5-3h-9.7"/>
	<path class="st2" d="M618.3,248.2h-9.7c-1.4,0-2.5-1.3-2.5-3c0-0.4,0-0.8,0-1.2c0-1.6-1.1-3-2.5-3h-9.7"/>
	<path class="st2" d="M618.2,235.6h-9.7c-1.4,0-2.5-1.3-2.5-3c0-0.4,0-0.8,0-1.2c0-1.6-1.1-3-2.5-3h-9.7"/>
</g>
<line class="st2" x1="664.7" y1="304.9" x2="664.7" y2="291.1"/>
<line class="st2" x1="689.4" y1="283.8" x2="689.4" y2="271.3"/>
<path class="st2" d="M689.3,297.9h-9.7c-1.4,0-2.5,1.3-2.5,3c0,0.4,0,0.8,0,1.2c0,1.6-1.1,3-2.5,3h-9.7"/>
<path class="st2" d="M664.9,278.5h9.7c1.4,0,2.5-1.3,2.5-3c0-0.4,0-0.8,0-1.2c0-1.6,1.1-3,2.5-3h9.7"/>
<path class="st2" d="M689.3,283.9h-9.7c-1.4,0-2.5,1.3-2.5,3c0,0.4,0,0.8,0,1.2c0,1.6-1.1,3-2.5,3h-9.7"/>
<g>
	<line class="st2" x1="557.2" y1="214.5" x2="557.2" y2="248.2"/>
	<line class="st2" x1="581.7" y1="221.7" x2="581.7" y2="237.6"/>
	<path class="st2" d="M581.7,221.7H572c-1.4,0-2.5-1.3-2.5-3c0-0.4,0-0.8,0-1.2c0-1.6-1.1-3-2.5-3h-9.7"/>
	<path class="st2" d="M581.7,237.7H572c-1.4,0-2.5-1.3-2.5-3c0-0.4,0-0.8,0-1.2c0-1.6-1.1-3-2.5-3h-9.7"/>
	<path class="st2" d="M581.8,248l-6.9-6.9c-0.8-0.8-0.9-2-0.3-3.1"/>
</g>
<g>
	<line class="st2" x1="663.7" y1="53.2" x2="663.7" y2="86.9"/>
	<path class="st2" d="M688.2,60.4h-9.7c-1.4,0-2.5-1.3-2.5-3c0-0.4,0-0.8,0-1.2c0-1.6-1.1-3-2.5-3h-9.7"/>
	<path class="st2" d="M688.2,76.4h-9.7c-1.4,0-2.5-1.3-2.5-3c0-0.4,0-0.8,0-1.2c0-1.6-1.1-3-2.5-3h-9.7"/>
	<path class="st2" d="M688.2,94.1h-9.7c-1.4,0-2.5-1.3-2.5-3c0-0.4,0-0.8,0-1.2c0-1.6-1.1-3-2.5-3h-9.7"/>
</g>
<line class="st2" x1="581.8" y1="60.5" x2="581.8" y2="92.3"/>
<g>
	<line class="st2" x1="557.2" y1="53.2" x2="557.2" y2="94.2"/>
	<path class="st2" d="M581.7,60.4H572c-1.4,0-2.5-1.3-2.5-3c0-0.4,0-0.8,0-1.2c0-1.6-1.1-3-2.5-3h-9.7"/>
	<path class="st2" d="M581.7,76.4H572c-1.4,0-2.5-1.3-2.5-3c0-0.4,0-0.8,0-1.2c0-1.6-1.1-3-2.5-3h-9.7"/>
	<path class="st2" d="M581.7,92.4H572c-1.4,0-2.5-1.3-2.5-3c0-0.4,0-0.8,0-1.2c0-1.6-1.1-3-2.5-3h-9.7"/>
</g>
<g>
	<line class="st2" x1="653.5" y1="60.5" x2="653.5" y2="92.3"/>
	<line class="st2" x1="628.9" y1="53.2" x2="628.9" y2="94.2"/>
	<path class="st2" d="M653.4,60.4h-9.7c-1.4,0-2.5-1.3-2.5-3c0-0.4,0-0.8,0-1.2c0-1.6-1.1-3-2.5-3h-9.7"/>
	<path class="st2" d="M653.4,92.4h-9.7c-1.4,0-2.5-1.3-2.5-3c0-0.4,0-0.8,0-1.2c0-1.6-1.1-3-2.5-3h-9.7"/>
</g>
<g>
	<line class="st2" x1="653.5" y1="115.6" x2="653.5" y2="147.5"/>
	<path class="st2" d="M653.4,147.5h-9.7c-1.4,0-2.5-1.3-2.5-3c0-0.4,0-0.8,0-1.2c0-1.6-1.1-3-2.5-3h-9.7"/>
</g>
<g>
	<path class="st2" d="M546.2,197h-9.7c-1.4,0-2.5-1.3-2.5-3c0-0.4,0-0.8,0-1.2c0-1.6-1.1-3-2.5-3h-9.7"/>
	<line class="st2" x1="521.7" y1="157.9" x2="521.7" y2="189.8"/>
</g>
<path class="st2" d="M581.7,164.7H572c-1.4,0-2.5-1.3-2.5-3c0-0.4,0-0.8,0-1.2c0-1.6-1.1-3-2.5-3h-9.7"/>
<line class="st2" x1="557.2" y1="157.9" x2="557.2" y2="189.8"/>
<line class="st2" x1="569.5" y1="162" x2="569.5" y2="193.9"/>
<line class="st3" x1="581.7" y1="164.8" x2="581.7" y2="197.3"/>
<line class="st2" x1="582" y1="305.1" x2="582" y2="273.2"/>
<path class="st2" d="M557.2,298h9.7c1.4,0,2.5,1.3,2.5,3c0,0.4,0,0.8,0,1.2c0,1.6,1.1,3,2.5,3h9.7"/>
<line class="st2" x1="569.5" y1="300.7" x2="569.5" y2="268.8"/>
<line class="st2" x1="557.2" y1="297.9" x2="557.2" y2="266"/>
<path class="st2" d="M618.2,164.7h-9.7c-1.4,0-2.5-1.3-2.5-3c0-0.4,0-0.8,0-1.2c0-1.6-1.1-3-2.5-3h-9.7"/>
<line class="st2" x1="593.7" y1="157.9" x2="593.7" y2="189.8"/>
<line class="st3" x1="618.2" y1="164.8" x2="618.2" y2="197.3"/>
<path class="st2" d="M652.7,218.7H643c-1.4,0-2.5-1.3-2.5-3c0-0.4,0-0.8,0-1.2c0-1.6-1.1-3-2.5-3h-9.7"/>
<line class="st2" x1="641.1" y1="218" x2="641.1" y2="249.1"/>
<g>
	<path class="st2" d="M546.2,214.9h-9.7c-1.4,0-2.5-1.3-2.5-3c0-0.4,0-0.8,0-1.2c0-1.6-1.1-3-2.5-3h-9.7"/>
	<path class="st2" d="M546.2,247.9h-9.7c-1.4,0-2.5-1.3-2.5-3c0-0.4,0-0.8,0-1.2c0-1.6-1.1-3-2.5-3h-9.7"/>
	<line class="st2" x1="521.7" y1="208.1" x2="521.7" y2="240"/>
	<line class="st2" x1="546.2" y1="215.6" x2="546.2" y2="247.5"/>
	<line class="st2" x1="540.3" y1="240" x2="540.3" y2="254.3"/>
</g>
<path class="st2" d="M653.4,164.2h-9.7c-1.4,0-2.5-1.3-2.5-3c0-0.4,0-0.8,0-1.2c0-1.6-1.1-3-2.5-3h-9.7"/>
<path class="st2" d="M653.4,197.2h-9.7c-1.4,0-2.5-1.3-2.5-3c0-0.4,0-0.8,0-1.2c0-1.6-1.1-3-2.5-3h-9.7"/>
<line class="st4" x1="628.8" y1="157.4" x2="628.8" y2="189.9"/>
<line class="st5" x1="653.4" y1="164.4" x2="653.4" y2="197.3"/>
<line class="st2" x1="656.1" y1="271.9" x2="656.1" y2="303.8"/>
<g>
	<path class="st2" d="M656.1,304.3h-9.7c-1.4,0-2.5-1.3-2.5-3c0-0.4,0-0.8,0-1.2c0-1.6-1.1-3-2.5-3h-9.7"/>
	<path class="st2" d="M655.9,291.8h-9.7c-1.4,0-2.5-1.3-2.5-3c0-0.4,0-0.8,0-1.2c0-1.6-1.1-3-2.5-3h-9.7"/>
	<line class="st2" x1="631.4" y1="266" x2="631.4" y2="284.4"/>
</g>
<g>
	<line class="st2" x1="663.7" y1="208.6" x2="663.7" y2="240.5"/>
	<g>
		<path class="st2" d="M688.2,248.4h-9.7c-1.4,0-2.5-1.3-2.5-3c0-0.4,0-0.8,0-1.2c0-1.6-1.1-3-2.5-3h-9.7"/>
		<line class="st2" x1="688.2" y1="216.6" x2="688.2" y2="248.5"/>
	</g>
</g>
<g>
	<path class="st2" d="M547,305.4h-9.7c-1.4,0-2.5-1.3-2.5-3c0-0.4,0-0.8,0-1.2c0-1.6-1.1-3-2.5-3h-9.7"/>
	<line class="st2" x1="522.5" y1="266.1" x2="522.5" y2="298"/>
	<line class="st2" x1="547" y1="273.4" x2="547" y2="305.3"/>
</g>
<g>
	<line class="st6" x1="820.7" y1="53.2" x2="820.7" y2="86.9"/>
	<path class="st6" d="M845.2,60.4h-9.7c-1.4,0-2.5-1.3-2.5-3c0-0.4,0-0.8,0-1.2c0-1.6-1.1-3-2.5-3h-9.7"/>
	<path class="st6" d="M845.2,94.1h-9.7c-1.4,0-2.5-1.3-2.5-3c0-0.4,0-0.8,0-1.2c0-1.6-1.1-3-2.5-3h-9.7"/>
</g>
<g>
	<line class="st6" x1="834.5" y1="113.9" x2="834.5" y2="144.6"/>
	<path class="st6" d="M846.7,114.3H837c-1.4,0-2.5-1.3-2.5-3c0-0.4,0-0.8,0-1.2c0-1.6-1.1-3-2.5-3h-9.7"/>
	<path class="st6" d="M846.7,147.5H837c-1.4,0-2.5-1.3-2.5-3c0-0.4,0-0.8,0-1.2c0-1.6-1.1-3-2.5-3h-9.7"/>
</g>
<g>
	<line class="st6" x1="775.3" y1="130.1" x2="775.3" y2="147"/>
	<line class="st6" x1="750.2" y1="106.1" x2="750.2" y2="139.8"/>
	<path class="st6" d="M774.7,113.3H765c-1.4,0-2.5-1.3-2.5-3c0-0.4,0-0.8,0-1.2c0-1.6-1.1-3-2.5-3h-9.7"/>
	<path class="st6" d="M775.2,130.1h-7.6c-1.1,0-2-1.3-2-3c0-0.4,0-0.8,0-1.2c0-1.6-0.9-3-2-3H756"/>
	<path class="st6" d="M774.7,147H765c-1.4,0-2.5-1.3-2.5-3c0-0.4,0-0.8,0-1.2c0-1.6-1.1-3-2.5-3h-9.7"/>
</g>
<g>
	<line class="st6" x1="750.8" y1="53.2" x2="750.8" y2="86.9"/>
	<line class="st6" x1="775.3" y1="60.5" x2="775.3" y2="94.1"/>
	<path class="st6" d="M775.2,60.4h-9.7c-1.4,0-2.5-1.3-2.5-3c0-0.4,0-0.8,0-1.2c0-1.6-1.1-3-2.5-3h-9.7"/>
	<path class="st6" d="M775.2,76.4h-9.7c-1.4,0-2.5-1.3-2.5-3c0-0.4,0-0.8,0-1.2c0-1.6-1.1-3-2.5-3h-9.7"/>
</g>
<g>
	<line class="st6" x1="785.8" y1="106.6" x2="785.8" y2="140.3"/>
	<line class="st6" x1="810.4" y1="113.9" x2="810.4" y2="147.6"/>
	<path class="st6" d="M810.3,130.1h-9.7c-1.4,0-2.5-1.3-2.5-3c0-0.4,0-0.8,0-1.2c0-1.6-1.1-3-2.5-3h-9.7"/>
</g>
<g>
	<line class="st6" x1="892.4" y1="106.7" x2="892.4" y2="140.4"/>
	<path class="st6" d="M915.2,111.9l-6.9,6.9c-1,1-2.7,0.9-3.9-0.3c-0.3-0.3-0.6-0.6-0.9-0.9c-1.2-1.2-2.9-1.3-3.9-0.3l-6.9,6.9"/>
	<path class="st6" d="M915.8,140.1l-6.9-6.9c-1-1-0.9-2.7,0.3-3.9c0.3-0.3,0.6-0.6,0.9-0.9c1.2-1.2,1.3-2.9,0.3-3.9l-6.9-6.9"/>
</g>
<g>
	<line class="st6" x1="892.3" y1="156.5" x2="892.3" y2="190.2"/>
	<line class="st6" x1="916.8" y1="163.7" x2="916.8" y2="179.6"/>
	<path class="st6" d="M916.8,163.6h-9.7c-1.4,0-2.5-1.3-2.5-3c0-0.4,0-0.8,0-1.2c0-1.6-1.1-3-2.5-3h-9.7"/>
	<path class="st6" d="M916.8,179.6h-9.7c-1.4,0-2.5-1.3-2.5-3c0-0.4,0-0.8,0-1.2c0-1.6-1.1-3-2.5-3h-9.7"/>
</g>
<g>
	<path class="st6" d="M840.9,288.1l-9.8-5.6c-1.4-0.8-1.8-2.8-0.8-4.4c0.2-0.4,0.5-0.8,0.7-1.3c0.9-1.6,0.6-3.6-0.8-4.4l-9.8-5.6"/>
	<path class="st6" d="M852.9,304.5l-9.8-5.6c-1.4-0.8-1.8-2.8-0.8-4.4c0.2-0.4,0.5-0.8,0.7-1.3c0.9-1.6,0.6-3.6-0.8-4.4l-9.8-5.6"/>
	<path class="st6" d="M831.9,288.1l9.8-5.6c1.4-0.8,1.8-2.8,0.8-4.4c-0.2-0.4-0.5-0.8-0.7-1.3c-0.9-1.6-0.6-3.6,0.8-4.4l9.8-5.6"/>
	<path class="st6" d="M819.9,304.5l9.8-5.6c1.4-0.8,1.8-2.8,0.8-4.4c-0.2-0.4-0.5-0.8-0.7-1.3c-0.9-1.6-0.6-3.6,0.8-4.4l9.8-5.6"/>
</g>
<g>
	<line class="st6" x1="822.1" y1="214.6" x2="822.1" y2="228.4"/>
	<line class="st6" x1="846.9" y1="235.7" x2="846.9" y2="248.2"/>
	<path class="st6" d="M846.7,221.7H837c-1.4,0-2.5-1.3-2.5-3c0-0.4,0-0.8,0-1.2c0-1.6-1.1-3-2.5-3h-9.7"/>
	<path class="st6" d="M846.9,248.2h-9.7c-1.4,0-2.5-1.3-2.5-3c0-0.4,0-0.8,0-1.2c0-1.6-1.1-3-2.5-3h-9.7"/>
	<path class="st6" d="M846.7,235.6H837c-1.4,0-2.5-1.3-2.5-3c0-0.4,0-0.8,0-1.2c0-1.6-1.1-3-2.5-3h-9.7"/>
</g>
<line class="st7" x1="918" y1="271.4" x2="918" y2="285.3"/>
<line class="st6" x1="893.3" y1="292.5" x2="893.3" y2="305"/>
<path class="st6" d="M893.4,278.5h9.7c1.4,0,2.5-1.3,2.5-3c0-0.4,0-0.8,0-1.2c0-1.6,1.1-3,2.5-3h9.7"/>
<path class="st6" d="M893.3,305h9.7c1.4,0,2.5-1.3,2.5-3c0-0.4,0-0.8,0-1.2c0-1.6,1.1-3,2.5-3h9.7"/>
<path class="st6" d="M893.4,292.4h9.7c1.4,0,2.5-1.3,2.5-3c0-0.4,0-0.8,0-1.2c0-1.6,1.1-3,2.5-3h9.7"/>
<g>
	<line class="st6" x1="785.8" y1="214.5" x2="785.8" y2="248.2"/>
	<line class="st6" x1="810.3" y1="221.7" x2="810.3" y2="237.6"/>
	<path class="st6" d="M810.3,221.7h-9.7c-1.4,0-2.5-1.3-2.5-3c0-0.4,0-0.8,0-1.2c0-1.6-1.1-3-2.5-3h-9.7"/>
	<path class="st6" d="M810.3,237.7h-9.7c-1.4,0-2.5-1.3-2.5-3c0-0.4,0-0.8,0-1.2c0-1.6-1.1-3-2.5-3h-9.7"/>
	<path class="st6" d="M810.3,248l-6.9-6.9c-0.8-0.8-0.9-2-0.3-3.1"/>
</g>
<g>
	<line class="st6" x1="892.3" y1="53.2" x2="892.3" y2="86.9"/>
	<path class="st6" d="M916.8,60.4h-9.7c-1.4,0-2.5-1.3-2.5-3c0-0.4,0-0.8,0-1.2c0-1.6-1.1-3-2.5-3h-9.7"/>
	<path class="st6" d="M916.8,76.4h-9.7c-1.4,0-2.5-1.3-2.5-3c0-0.4,0-0.8,0-1.2c0-1.6-1.1-3-2.5-3h-9.7"/>
	<path class="st6" d="M916.8,94.1h-9.7c-1.4,0-2.5-1.3-2.5-3c0-0.4,0-0.8,0-1.2c0-1.6-1.1-3-2.5-3h-9.7"/>
</g>
<line class="st6" x1="810.4" y1="60.5" x2="810.4" y2="92.3"/>
<g>
	<line class="st6" x1="785.8" y1="53.2" x2="785.8" y2="94.2"/>
	<path class="st6" d="M810.3,60.4h-9.7c-1.4,0-2.5-1.3-2.5-3c0-0.4,0-0.8,0-1.2c0-1.6-1.1-3-2.5-3h-9.7"/>
	<path class="st6" d="M810.3,76.4h-9.7c-1.4,0-2.5-1.3-2.5-3c0-0.4,0-0.8,0-1.2c0-1.6-1.1-3-2.5-3h-9.7"/>
	<path class="st6" d="M810.3,92.4h-9.7c-1.4,0-2.5-1.3-2.5-3c0-0.4,0-0.8,0-1.2c0-1.6-1.1-3-2.5-3h-9.7"/>
</g>
<g>
	<line class="st6" x1="882" y1="60.5" x2="882" y2="92.3"/>
	<line class="st6" x1="857.4" y1="53.2" x2="857.4" y2="94.2"/>
	<path class="st6" d="M881.9,60.4h-9.7c-1.4,0-2.5-1.3-2.5-3c0-0.4,0-0.8,0-1.2c0-1.6-1.1-3-2.5-3h-9.7"/>
	<path class="st6" d="M881.9,92.4h-9.7c-1.4,0-2.5-1.3-2.5-3c0-0.4,0-0.8,0-1.2c0-1.6-1.1-3-2.5-3h-9.7"/>
</g>
<g>
	<line class="st6" x1="882" y1="115.6" x2="882" y2="147.5"/>
	<path class="st6" d="M881.9,147.5h-9.7c-1.4,0-2.5-1.3-2.5-3c0-0.4,0-0.8,0-1.2c0-1.6-1.1-3-2.5-3h-9.7"/>
</g>
<g>
	<path class="st6" d="M774.7,197H765c-1.4,0-2.5-1.3-2.5-3c0-0.4,0-0.8,0-1.2c0-1.6-1.1-3-2.5-3h-9.7"/>
	<line class="st6" x1="750.2" y1="157.9" x2="750.2" y2="189.8"/>
</g>
<g>
	<path class="st6" d="M810.3,164.7h-9.7c-1.4,0-2.5-1.3-2.5-3c0-0.4,0-0.8,0-1.2c0-1.6-1.1-3-2.5-3h-9.7"/>
	<line class="st6" x1="785.8" y1="157.9" x2="785.8" y2="189.8"/>
	<line class="st6" x1="798" y1="162" x2="798" y2="193.9"/>
	<line class="st6" x1="810.3" y1="165.4" x2="810.3" y2="197.3"/>
</g>
<g>
	<line class="st6" x1="811.3" y1="304.7" x2="811.3" y2="272.9"/>
	<g>
		<path class="st6" d="M785.8,298h9.7c1.4,0,2.5,1.3,2.5,3c0,0.4,0,0.8,0,1.2c0,1.6,1.1,3,2.5,3h9.7"/>
		<line class="st6" x1="798" y1="300.7" x2="798" y2="268.8"/>
		<line class="st6" x1="785.8" y1="297.9" x2="785.8" y2="266"/>
	</g>
</g>
<g>
	<path class="st6" d="M846.7,164.7H837c-1.4,0-2.5-1.3-2.5-3c0-0.4,0-0.8,0-1.2c0-1.6-1.1-3-2.5-3h-9.7"/>
	<line class="st6" x1="822.2" y1="157.9" x2="822.2" y2="189.8"/>
	<line class="st6" x1="846.7" y1="165.4" x2="846.7" y2="197.3"/>
</g>
<g>
	<path class="st6" d="M881.2,216.9h-9.7c-1.4,0-2.5-1.3-2.5-3c0-0.4,0-0.8,0-1.2c0-1.6-1.1-3-2.5-3h-9.7"/>
	<line class="st6" x1="869.7" y1="217.6" x2="869.7" y2="248.7"/>
</g>
<g>
	<path class="st6" d="M774.7,214.9H765c-1.4,0-2.5-1.3-2.5-3c0-0.4,0-0.8,0-1.2c0-1.6-1.1-3-2.5-3h-9.7"/>
	<path class="st6" d="M774.7,247.9H765c-1.4,0-2.5-1.3-2.5-3c0-0.4,0-0.8,0-1.2c0-1.6-1.1-3-2.5-3h-9.7"/>
	<line class="st6" x1="750.2" y1="208.1" x2="750.2" y2="240"/>
	<line class="st6" x1="774.7" y1="215.6" x2="774.7" y2="247.5"/>
	<line class="st6" x1="768.9" y1="240" x2="768.9" y2="254.3"/>
</g>
<g>
	<path class="st6" d="M881.9,164.2h-9.7c-1.4,0-2.5-1.3-2.5-3c0-0.4,0-0.8,0-1.2c0-1.6-1.1-3-2.5-3h-9.7"/>
	<path class="st6" d="M881.9,197.2h-9.7c-1.4,0-2.5-1.3-2.5-3c0-0.4,0-0.8,0-1.2c0-1.6-1.1-3-2.5-3h-9.7"/>
	<line class="st6" x1="857.4" y1="157.4" x2="857.4" y2="189.3"/>
	<line class="st6" x1="881.9" y1="165.4" x2="881.9" y2="197.3"/>
</g>
<line class="st6" x1="884.6" y1="271.9" x2="884.6" y2="303.8"/>
<g>
	<path class="st6" d="M884.6,304.3h-9.7c-1.4,0-2.5-1.3-2.5-3c0-0.4,0-0.8,0-1.2c0-1.6-1.1-3-2.5-3h-9.7"/>
	<path class="st6" d="M884.5,291.8h-9.7c-1.4,0-2.5-1.3-2.5-3c0-0.4,0-0.8,0-1.2c0-1.6-1.1-3-2.5-3H860"/>
	<line class="st6" x1="859.9" y1="266" x2="859.9" y2="284.4"/>
</g>
<g>
	<line class="st6" x1="892.3" y1="208.6" x2="892.3" y2="240.5"/>
	<g>
		<path class="st6" d="M916.8,248.4h-9.7c-1.4,0-2.5-1.3-2.5-3c0-0.4,0-0.8,0-1.2c0-1.6-1.1-3-2.5-3h-9.7"/>
		<line class="st6" x1="916.8" y1="216.6" x2="916.8" y2="248.5"/>
	</g>
</g>
<g>
	<path class="st6" d="M775.6,305.4h-9.7c-1.4,0-2.5-1.3-2.5-3c0-0.4,0-0.8,0-1.2c0-1.6-1.1-3-2.5-3h-9.7"/>
	<line class="st6" x1="751.1" y1="266.1" x2="751.1" y2="298"/>
	<line class="st6" x1="775.6" y1="273.4" x2="775.6" y2="305.3"/>
</g>
<g>
	<defs>
		<rect id="SVGID_1_" y="387" width="1210.3" height="391.4"/>
	</defs>
	<clipPath id="SVGID_2_">
		<use xlink:href="#SVGID_1_"  style="overflow:visible;"/>
	</clipPath>
	<g transform="matrix(1 0 0 1 -9.536743e-07 0)" style="clip-path:url(#SVGID_2_);">
		
			<image style="overflow:visible;" width="3433" height="1219" xlink:href="coffee.jpg"  transform="matrix(0.3563 0 0 0.3563 -12.3546 367.9165)">
		</image>
	</g>
</g>
<g>
	<path class="st8" d="M588.5,428.7c0-5.4,6.1-5.4,6.1-10.8c0-5.4-6.1-5.4-6.1-10.8c0-5.4,6.1-5.4,6.1-10.8c0-5.4-6.1-5.4-6.1-10.8
		c0-5.4,6.1-5.4,6.1-10.8"/>
</g>
<g>
	<path class="st8" d="M615.7,427.2c0-5.4,6.1-5.4,6.1-10.8c0-5.4-6.1-5.4-6.1-10.8c0-5.4,6.1-5.4,6.1-10.8c0-5.4-6.1-5.4-6.1-10.8
		s6.1-5.4,6.1-10.8"/>
</g>
<g>
	<path class="st8" d="M602.5,410.4c0-5.4,6.1-5.4,6.1-10.8c0-5.4-6.1-5.4-6.1-10.8c0-5.4,6.1-5.4,6.1-10.8c0-5.4-6.1-5.4-6.1-10.8
		c0-5.4,6.1-5.4,6.1-10.8"/>
</g>
</svg>
