<?xml version="1.0" encoding="utf-8"?>
<!-- Generator: Adobe Illustrator 21.1.0, SVG Export Plug-In . SVG Version: 6.00 Build 0)  -->
<svg version="1.1" id="Layer_1" xmlns="http://www.w3.org/2000/svg" xmlns:xlink="http://www.w3.org/1999/xlink" x="0px" y="0px"
	 viewBox="0 0 1366 768" style="enable-background:new 0 0 1366 768;" xml:space="preserve">
<style type="text/css">
	.st0{fill:#086AFF;}
	.st1{fill:none;stroke:#086AFF;stroke-width:3.6946;stroke-miterlimit:10;}
	.st2{fill:none;stroke:#FFFFFF;stroke-width:3.6946;stroke-linecap:square;stroke-miterlimit:10;}
</style>
<g>
	<polygon class="st0" points="168.5,203.9 116.8,203.9 91,248.6 116.8,293.3 168.5,293.3 194.3,248.6 	"/>
	<polygon class="st1" points="168.5,295.1 116.8,295.1 91,339.9 116.8,384.6 168.5,384.6 194.3,339.9 	"/>
	<polygon class="st1" points="168.5,384.6 116.8,384.6 91,429.4 116.8,474.1 168.5,474.1 194.3,429.4 	"/>
	<polygon class="st1" points="168.5,472.8 116.8,472.8 91,517.5 116.8,562.2 168.5,562.2 194.3,517.5 	"/>
	<polygon class="st1" points="246.3,159.8 194.6,159.8 168.8,204.5 194.6,249.3 246.3,249.3 272.1,204.5 	"/>
	<polygon class="st1" points="246.3,251.1 194.6,251.1 168.8,295.8 194.6,340.6 246.3,340.6 272.1,295.8 	"/>
	<polygon class="st0" points="246.3,340.6 194.6,340.6 168.8,385.3 194.6,430 246.3,430 272.1,385.3 	"/>
	<polygon class="st1" points="246.3,428.7 194.6,428.7 168.8,473.4 194.6,518.2 246.3,518.2 272.1,473.4 	"/>
	<polygon class="st0" points="246.3,517.7 194.6,517.7 168.8,562.5 194.6,607.2 246.3,607.2 272.1,562.5 	"/>
	<polygon class="st1" points="322.7,203.9 271.1,203.9 245.2,248.6 271.1,293.3 322.7,293.3 348.6,248.6 	"/>
	<polygon class="st1" points="322.7,295.1 271.1,295.1 245.2,339.9 271.1,384.6 322.7,384.6 348.6,339.9 	"/>
	<polygon class="st0" points="322.7,384.6 271.1,384.6 245.2,429.4 271.1,474.1 322.7,474.1 348.6,429.4 	"/>
	<polygon class="st1" points="322.7,472.8 271.1,472.8 245.2,517.5 271.1,562.2 322.7,562.2 348.6,517.5 	"/>
	<polygon class="st1" points="400.5,159.8 348.9,159.8 323,204.5 348.9,249.3 400.5,249.3 426.4,204.5 	"/>
	<polygon class="st0" points="400.5,251.1 348.9,251.1 323,295.8 348.9,340.6 400.5,340.6 426.4,295.8 	"/>
	<polygon class="st1" points="400.5,340.6 348.9,340.6 323,385.3 348.9,430 400.5,430 426.4,385.3 	"/>
	<polygon class="st1" points="400.5,428.7 348.9,428.7 323,473.4 348.9,518.2 400.5,518.2 426.4,473.4 	"/>
	<polygon class="st1" points="400.5,517.7 348.9,517.7 323,562.5 348.9,607.2 400.5,607.2 426.4,562.5 	"/>
	<polygon class="st1" points="477,203.9 425.3,203.9 399.5,248.6 425.3,293.3 477,293.3 502.8,248.6 	"/>
	<polygon class="st1" points="477,295.1 425.3,295.1 399.5,339.9 425.3,384.6 477,384.6 502.8,339.9 	"/>
	<polygon class="st1" points="477,384.6 425.3,384.6 399.5,429.4 425.3,474.1 477,474.1 502.8,429.4 	"/>
	<polygon class="st0" points="477,472.8 425.3,472.8 399.5,517.5 425.3,562.2 477,562.2 502.8,517.5 	"/>
	<polygon class="st1" points="554.8,159.8 503.1,159.8 477.3,204.5 503.1,249.3 554.8,249.3 580.6,204.5 	"/>
	<polygon class="st1" points="554.8,251.1 503.1,251.1 477.3,295.8 503.1,340.6 554.8,340.6 580.6,295.8 	"/>
	<polygon class="st0" points="554.8,340.6 503.1,340.6 477.3,385.3 503.1,430 554.8,430 580.6,385.3 	"/>
	<polygon class="st1" points="554.8,428.7 503.1,428.7 477.3,473.4 503.1,518.2 554.8,518.2 580.6,473.4 	"/>
	<polygon class="st1" points="554.8,517.7 503.1,517.7 477.3,562.5 503.1,607.2 554.8,607.2 580.6,562.5 	"/>
	<polygon class="st1" points="631.2,203.9 579.5,203.9 553.7,248.6 579.5,293.3 631.2,293.3 657,248.6 	"/>
	<polygon class="st1" points="631.2,295.1 579.5,295.1 553.7,339.9 579.5,384.6 631.2,384.6 657,339.9 	"/>
	<polygon class="st1" points="631.2,384.6 579.5,384.6 553.7,429.4 579.5,474.1 631.2,474.1 657,429.4 	"/>
	<polygon class="st1" points="631.2,472.8 579.5,472.8 553.7,517.5 579.5,562.2 631.2,562.2 657,517.5 	"/>
	<polygon class="st0" points="709,159.8 657.3,159.8 631.5,204.5 657.3,249.3 709,249.3 734.8,204.5 	"/>
	<polygon class="st0" points="708.6,248.6 656.9,248.6 631.1,293.8 656.9,339 708.6,339 734.4,293.8 	"/>
	<polygon class="st1" points="709,340.6 657.3,340.6 631.5,385.3 657.3,430 709,430 734.8,385.3 	"/>
	<polygon class="st1" points="709,428.7 657.3,428.7 631.5,473.4 657.3,518.2 709,518.2 734.8,473.4 	"/>
	<polygon class="st0" points="709,517.7 657.3,517.7 631.5,562.5 657.3,607.2 709,607.2 734.8,562.5 	"/>
	<polygon class="st1" points="785.5,203.9 733.8,203.9 708,248.6 733.8,293.3 785.5,293.3 811.3,248.6 	"/>
	<polygon class="st1" points="785.5,295.1 733.8,295.1 708,339.9 733.8,384.6 785.5,384.6 811.3,339.9 	"/>
	<polygon class="st0" points="785.5,384.6 733.8,384.6 708,429.4 733.8,474.1 785.5,474.1 811.3,429.4 	"/>
	<polygon class="st1" points="785.5,472.8 733.8,472.8 708,517.5 733.8,562.2 785.5,562.2 811.3,517.5 	"/>
	<polygon class="st0" points="863.2,159.8 811.6,159.8 785.7,204.5 811.6,249.3 863.2,249.3 889.1,204.5 	"/>
	<polygon class="st1" points="863.2,251.1 811.6,251.1 785.7,295.8 811.6,340.6 863.2,340.6 889.1,295.8 	"/>
	<polygon class="st1" points="863.2,340.6 811.6,340.6 785.7,385.3 811.6,430 863.2,430 889.1,385.3 	"/>
	<polygon class="st1" points="863.2,428.7 811.6,428.7 785.7,473.4 811.6,518.2 863.2,518.2 889.1,473.4 	"/>
	<polygon class="st1" points="863.2,517.7 811.6,517.7 785.7,562.5 811.6,607.2 863.2,607.2 889.1,562.5 	"/>
	<polygon class="st1" points="939.7,203.9 888,203.9 862.2,248.6 888,293.3 939.7,293.3 965.5,248.6 	"/>
	<polygon class="st0" points="939.7,295.1 888,295.1 862.2,339.9 888,384.6 939.7,384.6 965.5,339.9 	"/>
	<polygon class="st1" points="939.7,384.6 888,384.6 862.2,429.4 888,474.1 939.7,474.1 965.5,429.4 	"/>
	<polygon class="st1" points="939.7,472.8 888,472.8 862.2,517.5 888,562.2 939.7,562.2 965.5,517.5 	"/>
	<polygon class="st1" points="1017.5,159.8 965.8,159.8 940,204.5 965.8,249.3 1017.5,249.3 1043.3,204.5 	"/>
	<polygon class="st1" points="1017.5,251.1 965.8,251.1 940,295.8 965.8,340.6 1017.5,340.6 1043.3,295.8 	"/>
	<polygon class="st1" points="1017.5,340.6 965.8,340.6 940,385.3 965.8,430 1017.5,430 1043.3,385.3 	"/>
	<polygon class="st0" points="1017.5,428.7 965.8,428.7 940,473.4 965.8,518.2 1017.5,518.2 1043.3,473.4 	"/>
	<polygon class="st1" points="1017.5,517.7 965.8,517.7 940,562.5 965.8,607.2 1017.5,607.2 1043.3,562.5 	"/>
	<polygon class="st0" points="1093.9,203.9 1042.3,203.9 1016.4,248.6 1042.3,293.3 1093.9,293.3 1119.8,248.6 	"/>
	<polygon class="st1" points="1093.9,295.1 1042.3,295.1 1016.4,339.9 1042.3,384.6 1093.9,384.6 1119.8,339.9 	"/>
	<polygon class="st1" points="1093.9,384.6 1042.3,384.6 1016.4,429.4 1042.3,474.1 1093.9,474.1 1119.8,429.4 	"/>
	<polygon class="st1" points="1093.9,472.8 1042.3,472.8 1016.4,517.5 1042.3,562.2 1093.9,562.2 1119.8,517.5 	"/>
	<polygon class="st0" points="1171.7,159.8 1120.1,159.8 1094.2,204.5 1120.1,249.3 1171.7,249.3 1197.6,204.5 	"/>
	<polygon class="st1" points="1171.7,251.1 1120.1,251.1 1094.2,295.8 1120.1,340.6 1171.7,340.6 1197.6,295.8 	"/>
	<polygon class="st0" points="1171.7,340.6 1120.1,340.6 1094.2,385.3 1120.1,430 1171.7,430 1197.6,385.3 	"/>
	<polygon class="st1" points="1171.7,428.7 1120.1,428.7 1094.2,473.4 1120.1,518.2 1171.7,518.2 1197.6,473.4 	"/>
	<polygon class="st1" points="1171.7,517.7 1120.1,517.7 1094.2,562.5 1120.1,607.2 1171.7,607.2 1197.6,562.5 	"/>
	<polygon class="st1" points="1248.2,203.9 1196.5,203.9 1170.7,248.6 1196.5,293.3 1248.2,293.3 1274,248.6 	"/>
	<polygon class="st1" points="1248.2,295.1 1196.5,295.1 1170.7,339.9 1196.5,384.6 1248.2,384.6 1274,339.9 	"/>
	<polygon class="st1" points="1248.2,384.6 1196.5,384.6 1170.7,429.4 1196.5,474.1 1248.2,474.1 1274,429.4 	"/>
	<polygon class="st0" points="1248.2,472.8 1196.5,472.8 1170.7,517.5 1196.5,562.2 1248.2,562.2 1274,517.5 	"/>
</g>
<g>
	<line class="st2" x1="310.3" y1="454" x2="310.3" y2="415.1"/>
	<g>
		<path class="st2" d="M279.2,445.8H291c1.7,0,3.1,1.6,3.1,3.6c0,0.5,0,1,0,1.5c0,2,1.4,3.6,3.1,3.6h11.8"/>
		<line class="st2" x1="294.1" y1="449" x2="294.1" y2="410.2"/>
		<line class="st2" x1="279.2" y1="445.7" x2="279.2" y2="406.8"/>
	</g>
</g>
<g>
	<line class="st2" x1="358.6" y1="273.8" x2="358.6" y2="314.9"/>
	<path class="st2" d="M388.5,282.5h-11.8c-1.7,0-3.1-1.6-3.1-3.6c0-0.5,0-1,0-1.5c0-2-1.4-3.6-3.1-3.6h-11.8"/>
	<path class="st2" d="M388.5,302h-11.8c-1.7,0-3.1-1.6-3.1-3.6c0-0.5,0-1,0-1.5c0-2-1.4-3.6-3.1-3.6h-11.8"/>
	<path class="st2" d="M388.5,323.6h-11.8c-1.7,0-3.1-1.6-3.1-3.6c0-0.5,0-1,0-1.5c0-2-1.4-3.6-3.1-3.6h-11.8"/>
</g>
<g>
	<path class="st2" d="M547.7,406.3h-11.8c-1.7,0-3.1-1.6-3.1-3.6c0-0.5,0-1,0-1.5c0-2-1.4-3.6-3.1-3.6h-11.8"/>
	<line class="st2" x1="517.8" y1="358.7" x2="517.8" y2="397.6"/>
</g>
<g>
	<line class="st2" x1="668.9" y1="271.4" x2="668.9" y2="312.5"/>
	<path class="st2" d="M698.8,280.2h-11.8c-1.7,0-3.1-1.6-3.1-3.6c0-0.5,0-1,0-1.5c0-2-1.4-3.6-3.1-3.6h-11.8"/>
	<path class="st2" d="M698.8,321.2h-11.8c-1.7,0-3.1-1.6-3.1-3.6c0-0.5,0-1,0-1.5c0-2-1.4-3.6-3.1-3.6h-11.8"/>
</g>
<g>
	<path class="st2" d="M928.5,323.3h-11.8c-1.7,0-3.1-1.6-3.1-3.6c0-0.5,0-1,0-1.5c0-2-1.4-3.6-3.1-3.6h-11.8"/>
	<path class="st2" d="M928.5,363.5h-11.8c-1.7,0-3.1-1.6-3.1-3.6c0-0.5,0-1,0-1.5c0-2-1.4-3.6-3.1-3.6h-11.8"/>
	<line class="st2" x1="898.6" y1="315" x2="898.6" y2="353.9"/>
	<line class="st2" x1="928.5" y1="324.8" x2="928.5" y2="363.7"/>
</g>
<g>
	<path class="st2" d="M1005.2,459.6h-11.8c-1.7,0-3.1-1.6-3.1-3.6c0-0.5,0-1,0-1.5c0-2-1.4-3.6-3.1-3.6h-11.8"/>
	<line class="st2" x1="975.3" y1="451.3" x2="975.3" y2="490.2"/>
	<line class="st2" x1="990.3" y1="456.3" x2="990.3" y2="495.2"/>
	<line class="st2" x1="1005.2" y1="460.5" x2="1005.2" y2="499.3"/>
</g>
<g>
	<line class="st2" x1="1129.8" y1="358.3" x2="1129.8" y2="399.4"/>
	<path class="st2" d="M1159.7,367.1h-11.8c-1.7,0-3.1-1.6-3.1-3.6c0-0.5,0-1,0-1.5c0-2-1.4-3.6-3.1-3.6h-11.8"/>
	<path class="st2" d="M1159.7,386.6h-11.8c-1.7,0-3.1-1.6-3.1-3.6c0-0.5,0-1,0-1.5c0-2-1.4-3.6-3.1-3.6h-11.8"/>
	<path class="st2" d="M1159.7,408.1h-11.8c-1.7,0-3.1-1.6-3.1-3.6c0-0.5,0-1,0-1.5c0-2-1.4-3.6-3.1-3.6h-11.8"/>
</g>
</svg>
