<?xml version="1.0" encoding="utf-8"?>
<!-- Generator: Adobe Illustrator 21.1.0, SVG Export Plug-In . SVG Version: 6.00 Build 0)  -->
<svg version="1.1" id="Layer_1" xmlns="http://www.w3.org/2000/svg" xmlns:xlink="http://www.w3.org/1999/xlink" x="0px" y="0px"
	 viewBox="0 0 1366 768" style="enable-background:new 0 0 1366 768;" xml:space="preserve">
<style type="text/css">
	.st0{fill:#086AFF;}
	.st1{fill:#FFFFFF;stroke:#086AFF;stroke-width:2.9301;stroke-linecap:round;stroke-linejoin:round;stroke-miterlimit:10;}
	.st2{fill:none;stroke:#086AFF;stroke-width:1.4651;stroke-linecap:round;stroke-linejoin:round;stroke-miterlimit:10;}
	.st3{fill:none;}
	.st4{font-family:'DIN2014-Narrow';}
	.st5{font-size:38.8241px;}
	.st6{letter-spacing:2;}
</style>
<rect class="st0" width="1366" height="768"/>
<polygon class="st1" points="1076.3,223.6 1076.3,613.2 752.5,613.2 752.5,173.9 1029.8,173.9 "/>
<polygon class="st1" points="297.2,563.5 297.2,173.9 621,173.9 621,613.2 343.7,613.2 "/>
<polyline class="st2" points="297.2,563.5 343.7,563.5 343.7,613.2 "/>
<rect x="335.5" y="293.7" class="st3" width="276.9" height="343.9"/>
<text transform="matrix(1 0 0 1 337.8145 320.4688)"><tspan x="0" y="0" class="st0 st4 st5 st6">BLUE AND WHITE </tspan><tspan x="13.1" y="46.6" class="st0 st4 st5 st6">IS A TYPE FACE </tspan><tspan x="30.6" y="93.2" class="st0 st4 st5 st6">DESIGNED BY </tspan><tspan x="3.8" y="139.8" class="st0 st4 st5 st6">EDGAR CASWELL</tspan></text>
<polyline class="st2" points="1076.3,223.6 1029.8,223.6 1029.8,173.9 "/>
<rect x="793.3" y="293.7" class="st3" width="283" height="186.5"/>
<text transform="matrix(1 0 0 1 854.6709 320.4688)"><tspan x="0" y="0" class="st0 st4 st5 st6">HAVE FUN</tspan><tspan x="-58" y="46.6" class="st0 st4 st5 st6">HAVE A NICE DAY</tspan><tspan x="-17.1" y="93.2" class="st0 st4 st5 st6">HAVE IT ALL</tspan><tspan x="-58.6" y="139.8" class="st0 st4 st5 st6">-EDGAR CASWELL</tspan></text>
</svg>
