<?xml version="1.0" encoding="utf-8"?>
<!-- Generator: Adobe Illustrator 21.1.0, SVG Export Plug-In . SVG Version: 6.00 Build 0)  -->
<svg version="1.1" id="Layer_1" xmlns="http://www.w3.org/2000/svg" xmlns:xlink="http://www.w3.org/1999/xlink" x="0px" y="0px"
	 viewBox="0 0 1366 768" style="enable-background:new 0 0 1366 768;" xml:space="preserve">
<style type="text/css">
	.st0{fill:#FFFFFF;}
	.st1{fill:none;stroke:#086AFF;stroke-width:11;stroke-linecap:round;stroke-linejoin:round;stroke-miterlimit:10;}
</style>
<rect x="-545" y="-14" class="st0" width="2454" height="796"/>
<g>
	<line class="st1" x1="529.2" y1="422" x2="529.2" y2="513.3"/>
	<path class="st1" d="M595.6,441.4h-26.3c-3.8,0-6.9-3.6-6.9-8c0-1.1,0-2.3,0-3.4c0-4.4-3.1-8-6.9-8h-26.3"/>
	<path class="st1" d="M595.6,532.7h-26.3c-3.8,0-6.9-3.6-6.9-8c0-1.1,0-2.3,0-3.4c0-4.4-3.1-8-6.9-8h-26.3"/>
</g>
<g>
	<line class="st1" x1="471.8" y1="441.6" x2="471.8" y2="524.8"/>
	<path class="st1" d="M504.7,442.8h-26.3c-3.8,0-6.9-3.6-6.9-8c0-1.1,0-2.3,0-3.4c0-4.4-3.1-8-6.9-8h-26.3"/>
	<path class="st1" d="M504.7,532.7h-26.3c-3.8,0-6.9-3.6-6.9-8c0-1.1,0-2.3,0-3.4c0-4.4-3.1-8-6.9-8h-26.3"/>
</g>
<g>
	<line class="st1" x1="827.7" y1="258.5" x2="827.7" y2="349.8"/>
	<line class="st1" x1="894.3" y1="278.1" x2="894.3" y2="369.4"/>
	<path class="st1" d="M894.1,278h-26.3c-3.8,0-6.9-3.6-6.9-8c0-1.1,0-2.3,0-3.4c0-4.4-3.1-8-6.9-8h-26.3"/>
	<path class="st1" d="M894.1,321.3h-26.3c-3.8,0-6.9-3.6-6.9-8c0-1.1,0-2.3,0-3.4c0-4.4-3.1-8-6.9-8h-26.3"/>
</g>
<g>
	<line class="st1" x1="845.7" y1="421.8" x2="845.7" y2="513.1"/>
	<line class="st1" x1="912.3" y1="441.4" x2="912.3" y2="532.7"/>
	<path class="st1" d="M912.1,441.2h-26.3c-3.8,0-6.9-3.6-6.9-8c0-1.1,0-2.3,0-3.4c0-4.4-3.1-8-6.9-8h-26.3"/>
	<path class="st1" d="M912.1,484.5h-26.3c-3.8,0-6.9-3.6-6.9-8c0-1.1,0-2.3,0-3.4c0-4.4-3.1-8-6.9-8h-26.3"/>
</g>
<g>
	<line class="st1" x1="528.7" y1="237.5" x2="528.7" y2="328.8"/>
	<line class="st1" x1="595.3" y1="257.1" x2="595.3" y2="348.4"/>
	<path class="st1" d="M595.1,257h-26.3c-3.8,0-6.9-3.6-6.9-8c0-1.1,0-2.3,0-3.4c0-4.4-3.1-8-6.9-8h-26.3"/>
	<path class="st1" d="M595.1,300.3h-26.3c-3.8,0-6.9-3.6-6.9-8c0-1.1,0-2.3,0-3.4c0-4.4-3.1-8-6.9-8h-26.3"/>
</g>
<g>
	<line class="st1" x1="439.7" y1="236" x2="439.7" y2="327.3"/>
	<line class="st1" x1="506.3" y1="255.6" x2="506.3" y2="346.9"/>
	<path class="st1" d="M506.1,299.7h-26.3c-3.8,0-6.9-3.6-6.9-8c0-1.1,0-2.3,0-3.4c0-4.4-3.1-8-6.9-8h-26.3"/>
</g>
<g>
	<line class="st1" x1="623.3" y1="422" x2="623.3" y2="513.3"/>
	<path class="st1" d="M689.7,441.4h-26.3c-3.8,0-6.9-3.6-6.9-8c0-1.1,0-2.3,0-3.4c0-4.4-3.1-8-6.9-8h-26.3"/>
	<path class="st1" d="M689.7,484.7h-26.3c-3.8,0-6.9-3.6-6.9-8c0-1.1,0-2.3,0-3.4c0-4.4-3.1-8-6.9-8h-26.3"/>
	<path class="st1" d="M689.7,532.7h-26.3c-3.8,0-6.9-3.6-6.9-8c0-1.1,0-2.3,0-3.4c0-4.4-3.1-8-6.9-8h-26.3"/>
</g>
<g>
	<line class="st1" x1="705.3" y1="244.5" x2="705.3" y2="335.8"/>
	<path class="st1" d="M771.7,263.9h-26.3c-3.8,0-6.9-3.6-6.9-8c0-1.1,0-2.3,0-3.4c0-4.4-3.1-8-6.9-8h-26.3"/>
	<path class="st1" d="M771.7,307.2h-26.3c-3.8,0-6.9-3.6-6.9-8c0-1.1,0-2.3,0-3.4c0-4.4-3.1-8-6.9-8h-26.3"/>
	<path class="st1" d="M771.7,355.2h-26.3c-3.8,0-6.9-3.6-6.9-8c0-1.1,0-2.3,0-3.4c0-4.4-3.1-8-6.9-8h-26.3"/>
</g>
<g>
	<line class="st1" x1="823.4" y1="441.1" x2="823.4" y2="527.6"/>
	<line class="st1" x1="756.8" y1="421.5" x2="756.8" y2="532.7"/>
	<path class="st1" d="M823.2,441h-26.3c-3.8,0-6.9-3.6-6.9-8c0-1.1,0-2.3,0-3.4c0-4.4-3.1-8-6.9-8h-26.3"/>
	<path class="st1" d="M823.2,527.7h-26.3c-3.8,0-6.9-3.6-6.9-8c0-1.1,0-2.3,0-3.4c0-4.4-3.1-8-6.9-8h-26.3"/>
</g>
<g>
	<path class="st1" d="M411.7,444.2h-26.3c-3.8,0-6.9-3.6-6.9-8c0-1.1,0-2.3,0-3.4c0-4.4-3.1-8-6.9-8h-26.3"/>
	<line class="st1" x1="345.3" y1="425.9" x2="345.3" y2="512.4"/>
	<line class="st1" x1="411.7" y1="446.2" x2="411.7" y2="532.7"/>
</g>
<line class="st1" x1="1002.6" y1="446.2" x2="1002.6" y2="532.7"/>
<g>
	<path class="st1" d="M1002.6,532.7h-26.3c-3.8,0-6.9-3.6-6.9-8c0-1.1,0-2.3,0-3.4c0-4.4-3.1-8-6.9-8h-26.3"/>
	<path class="st1" d="M1002.1,498.6h-26.3c-3.8,0-6.9-3.6-6.9-8c0-1.1,0-2.3,0-3.4c0-4.4-3.1-8-6.9-8h-26.3"/>
	<line class="st1" x1="935.7" y1="428.9" x2="935.7" y2="478.7"/>
</g>
<g>
	<path class="st1" d="M682,353.7h-26.3c-3.8,0-6.9-3.6-6.9-8c0-1.1,0-2.3,0-3.4c0-4.4-3.1-8-6.9-8h-26.3"/>
	<line class="st1" x1="615.6" y1="247.4" x2="615.6" y2="333.8"/>
	<line class="st1" x1="682" y1="267.2" x2="682" y2="353.6"/>
</g>
</svg>
