<?xml version="1.0" encoding="utf-8"?>
<!-- Generator: Adobe Illustrator 21.1.0, SVG Export Plug-In . SVG Version: 6.00 Build 0)  -->
<svg version="1.1" id="Layer_1" xmlns="http://www.w3.org/2000/svg" xmlns:xlink="http://www.w3.org/1999/xlink" x="0px" y="0px"
	 viewBox="0 0 4179.2 2006" style="enable-background:new 0 0 4179.2 2006;" xml:space="preserve">
<style type="text/css">
	.st0{fill:#FFF8A4;}
	.st1{fill:#FFFFFF;}
	.st2{fill:#8DE1FF;}
	.st3{fill:#FFAB9A;}
	.st4{fill:#FF7D68;}
	.st5{fill:#FFD5BA;}
	.st6{fill:none;stroke:#8DE1FF;stroke-width:41.2561;stroke-miterlimit:10;}
	.st7{fill:none;stroke:#FFFFFF;stroke-width:27.2884;stroke-linecap:round;stroke-miterlimit:10;}
	.st8{fill:#FFC764;}
	.st9{fill:#FFFFFF;stroke:#8DE1FF;stroke-width:41.2561;stroke-miterlimit:10;}
</style>
<g>
	<path class="st0" d="M1760,1817.1H578.7c-109.7,0-193.5-117.9-176.5-248.3L538.2,526.1c13.6-104.6,88.5-181.6,176.5-181.6h917.1
		c88.5,0,163.8,78.1,176.7,183.6l128.3,1042.8C1952.9,1700.5,1869.2,1817.1,1760,1817.1z"/>
</g>
<path class="st1" d="M1572.2,932.2c0-90.2-73.2-163.4-163.4-163.4c-90.2,0-163.4,73.2-163.4,163.4"/>
<path class="st1" d="M756.6,933.9c0-90.2,73.2-163.4,163.4-163.4s163.4,73.2,163.4,163.4"/>
<path class="st0" d="M1808.4,526.1l-54.1-257.3c-17.1-81.3-119.9-107.8-174.2-45l-104.5,120.8L1808.4,526.1z"/>
<path d="M859.2,933.1c0-88,26.7-159.4,59.5-159.4c32.8,0,59.5,71.4,59.5,159.4"/>
<path d="M1347.8,933.1c0-89.2,26.7-161.6,59.5-161.6c32.9,0,59.5,72.2,59.5,161.6"/>
<path class="st2" d="M483.6,948.3c0,0-19.3,91,345.9,151.3c0,0-218.4,70-364.7-11.3L483.6,948.3z"/>
<path class="st2" d="M462.1,1107.2c0,0-19,93.6,346,154c0,0-218.7,67.4-365-13.9L462.1,1107.2z"/>
<path class="st2" d="M439.8,1282.3c0,0-22.2,80.1,342.8,140.4c0,0-214.8,78.3-361-3L439.8,1282.3z"/>
<path class="st2" d="M1865.3,988.8c0,0,21.2,98.4-346.9,137.1c0,0,215,80.8,365.8,8.4L1865.3,988.8z"/>
<path class="st2" d="M1887,1171.9c0,0,16.6,80.5-351.4,119.1c0,0,217,71.6,367.9-1L1887,1171.9z"/>
<path class="st2" d="M1907.3,1331.3c0,0,17.5,81.3-350.7,119.9c0,0,217.2,86.8,367.9,14.4L1907.3,1331.3z"/>
<polygon class="st3" points="1135.3,907.5 1084.4,1166.9 1228.9,1166.9 1156.7,826.9 "/>
<ellipse class="st4" cx="1146.1" cy="1334.7" rx="176.4" ry="70.2"/>
<path class="st3" d="M1542.8,361.8c-6.2-2.5-8.6-9.9-5-15.5l34.1-53.8c9.7-15.5,27.5-24.7,45.7-22.3c11.1,1.3,22.5,6.7,30.1,20.5
	c4,7.2,5.7,15.3,5.5,23.5l0.3,76.9c0,7.6-7.6,12.8-14.6,9.9L1542.8,361.8z"/>
<path class="st0" d="M538.5,534.1l54.1-257.3c17.1-81.3,119.9-107.8,174.2-45l104.5,120.8L538.5,534.1z"/>
<path class="st3" d="M804.1,369.8c6.2-2.5,8.6-9.9,5-15.5L775,300.6c-9.7-15.5-27.5-24.7-45.7-22.3c-11.1,1.3-22.5,6.7-30.1,20.5
	c-4,7.2-5.7,15.3-5.5,23.5l-0.3,76.9c0,7.6,7.6,12.8,14.6,9.9L804.1,369.8z"/>
<g>
	<path class="st5" d="M3431.2,408.8h-907c-83.5,0-151.9,68.3-151.9,151.9v1093.4c0,83.5,68.3,151.9,151.9,151.9h907
		c83.5,0,151.9-68.3,151.9-151.9V560.8C3583.1,477.3,3514.8,408.8,3431.2,408.8z"/>
	<path class="st5" d="M3631.4,816h-153.7c-21.3,0-38.7,17.4-38.7,38.7v460.9c0,21.3,17.4,38.7,38.7,38.7h153.7
		c21.3,0,38.7-17.4,38.7-38.7V854.6C3670,833.4,3652.7,816,3631.4,816z"/>
	<path class="st5" d="M2489.9,816h-153.7c-21.3,0-38.7,17.4-38.7,38.7v460.9c0,21.3,17.4,38.7,38.7,38.7h153.7
		c21.3,0,38.7-17.4,38.7-38.7V854.6C2528.5,833.4,2511.1,816,2489.9,816z"/>
</g>
<line class="st6" x1="2904" y1="942.5" x2="3033.4" y2="942.5"/>
<path class="st4" d="M3355.9,1443h-763.6c-23,0-41.8-18.8-41.8-41.8v-141.9c0-23,18.8-41.8,41.8-41.8h763.6
	c23,0,41.8,18.8,41.8,41.8v141.9C3397.7,1424.2,3378.9,1443,3355.9,1443z"/>
<line class="st7" x1="2657.9" y1="1322" x2="3293.2" y2="1322"/>
<path class="st8" d="M2904,1028.2v207.9c0,47.4,28.7,85.9,64.3,85.9h2c35.6,0,64.3-38.4,64.3-85.9v-207.9
	c0-47.4-28.7-85.9-64.3-85.9h-2C2932.7,942.5,2904,980.9,2904,1028.2z"/>
<path class="st9" d="M2873,1108.8h-386c-17.2,0-31.1-14-31.1-31.1V826.4c0-17.2,14-31.1,31.1-31.1h386c17.2,0,31.1,14,31.1,31.1
	v251.4C2904,1094.9,2890,1108.8,2873,1108.8z"/>
<path class="st9" d="M3451.9,1108.8h-389c-16.5,0-29.7-13.4-29.7-29.7V825c0-16.5,13.4-29.7,29.7-29.7h389
	c16.5,0,29.7,13.4,29.7,29.7v254.2C3481.7,1095.6,3468.3,1108.8,3451.9,1108.8z"/>
<circle cx="2678.5" cy="952.2" r="97.7"/>
<circle cx="3264.3" cy="952.2" r="97.7"/>
<g>
	<path class="st0" d="M3609.5,693.6c0,122.2-64.1-43.9-628.5-43.9s-837.5-97.5-837.5-219.7s273.2-223,837.5-223
		S3609.5,571.4,3609.5,693.6z"/>
</g>
</svg>
