<?xml version="1.0" encoding="utf-8"?>
<!-- Generator: Adobe Illustrator 21.1.0, SVG Export Plug-In . SVG Version: 6.00 Build 0)  -->
<svg version="1.1" id="Layer_1" xmlns="http://www.w3.org/2000/svg" xmlns:xlink="http://www.w3.org/1999/xlink" x="0px" y="0px"
	 viewBox="0 0 200 200" style="enable-background:new 0 0 200 200;" xml:space="preserve">
<style type="text/css">
	.st0{fill:#FFF8A4;}
	.st1{fill:#FFFFFF;}
	.st2{fill:#8DE1FF;}
	.st3{fill:#FFAB9A;}
	.st4{fill:#FF7D68;}
</style>
<g>
	<g>
		<path class="st0" d="M143.7,155H68.4c-7,0-12.3-7.5-11.3-15.8l8.7-66.5c0.9-6.7,5.6-11.6,11.3-11.6h58.5c5.6,0,10.4,5,11.3,11.7
			l8.2,66.5C156,147.6,150.7,155,143.7,155z"/>
	</g>
	<path class="st1" d="M131.7,98.6c0-5.7-4.7-10.4-10.4-10.4s-10.4,4.7-10.4,10.4"/>
	<path class="st1" d="M79.7,98.7c0-5.7,4.7-10.4,10.4-10.4c5.7,0,10.4,4.7,10.4,10.4"/>
	<path class="st0" d="M146.8,72.7l-3.4-16.4c-1.1-5.2-7.6-6.9-11.1-2.9l-6.7,7.7L146.8,72.7z"/>
	<path d="M86.3,98.6c0-5.6,1.7-10.2,3.8-10.2s3.8,4.6,3.8,10.2"/>
	<path d="M117.4,98.6c0-5.7,1.7-10.3,3.8-10.3c2.1,0,3.8,4.6,3.8,10.3"/>
	<path class="st2" d="M62.3,99.6c0,0-1.2,5.8,22,9.6c0,0-13.9,4.5-23.2-0.7L62.3,99.6z"/>
	<path class="st2" d="M61,109.8c0,0-1.2,6,22.1,9.8c0,0-13.9,4.3-23.3-0.9L61,109.8z"/>
	<path class="st2" d="M59.5,120.9c0,0-1.4,5.1,21.9,9c0,0-13.7,5-23-0.2L59.5,120.9z"/>
	<path class="st2" d="M150.4,102.2c0,0,1.3,6.3-22.1,8.7c0,0,13.7,5.2,23.3,0.5L150.4,102.2z"/>
	<path class="st2" d="M151.8,113.9c0,0,1.1,5.1-22.4,7.6c0,0,13.8,4.6,23.4-0.1L151.8,113.9z"/>
	<path class="st2" d="M153.1,124c0,0,1.1,5.2-22.4,7.6c0,0,13.8,5.5,23.4,0.9L153.1,124z"/>
	<polygon class="st3" points="103.9,97 100.6,113.6 109.8,113.6 105.2,91.9 	"/>
	<ellipse class="st4" cx="104.6" cy="124.2" rx="11.2" ry="4.5"/>
	<path class="st3" d="M129.9,62.2c-0.4-0.2-0.5-0.6-0.3-1l2.2-3.4c0.6-1,1.8-1.6,2.9-1.4c0.7,0.1,1.4,0.4,1.9,1.3
		c0.3,0.5,0.4,1,0.4,1.5l0,4.9c0,0.5-0.5,0.8-0.9,0.6L129.9,62.2z"/>
	<path class="st0" d="M65.8,73.2l3.4-16.4c1.1-5.2,7.6-6.9,11.1-2.9l6.7,7.7L65.8,73.2z"/>
	<path class="st3" d="M82.8,62.7c0.4-0.2,0.5-0.6,0.3-1l-2.2-3.4c-0.6-1-1.8-1.6-2.9-1.4c-0.7,0.1-1.4,0.4-1.9,1.3
		c-0.3,0.5-0.4,1-0.4,1.5l0,4.9c0,0.5,0.5,0.8,0.9,0.6L82.8,62.7z"/>
</g>
</svg>
