<?xml version="1.0" encoding="utf-8"?>
<!-- Generator: Adobe Illustrator 21.1.0, SVG Export Plug-In . SVG Version: 6.00 Build 0)  -->
<svg version="1.1" id="Layer_1" xmlns="http://www.w3.org/2000/svg" xmlns:xlink="http://www.w3.org/1999/xlink" x="0px" y="0px"
	 viewBox="0 0 200 200" style="enable-background:new 0 0 200 200;" xml:space="preserve">
<style type="text/css">
	.st0{fill:#FFF65F;}
	.st1{fill:none;}
	.st2{fill:#56CDFF;}
	.st3{font-family:'Chantal-Bold';}
	.st4{font-size:58.3722px;}
	.st5{fill:#FF5B5B;}
	.st6{font-size:61.8886px;}
	.st7{fill:#FFB468;}
	.st8{font-size:56.2624px;}
</style>
<g>
	<path class="st0" d="M74.1,37.1c-0.5,0-1.1,0.1-1.5,0.4c0,0,0,0-0.1,0l0,0l0,0l0,0l0,0l0,0l0,0l0,0l0,0l0,0c0,0,0,0-0.1,0l0,0
		c-1.3,0.6-2.5,1.1-3.7,1.8l0,0l0,0l0,0c0,0,0,0-0.1,0l0,0l0,0l0,0l0,0l0,0c-0.1,0-0.1,0.1-0.2,0.1l0,0l0,0l0,0l0,0l0,0l0,0l0,0l0,0
		l0,0l0,0l0,0l0,0l0,0c0,0,0,0-0.1,0l0,0c-0.1,0-0.1,0.1-0.1,0.1l0,0l0,0l0,0l0,0l0,0l0,0l0,0l0,0l0,0l0,0l0,0l0,0l0,0l0,0l0,0l0,0
		l0,0l0,0l0,0l0,0l0,0c0,0-0.1,0-0.1,0.1l0,0l0,0l0,0l0,0l0,0l0,0l0,0l0,0l0,0l0,0l0,0l0,0l0,0l0,0l0,0l0,0l0,0l0,0l0,0l0,0l0,0l0,0
		l0,0l0,0l0,0c0,0,0,0-0.1,0l0,0l0,0l0,0l0,0l0,0l0,0l0,0l0,0l0,0l0,0l0,0l0,0l0,0l0,0l0,0l0,0l0,0l0,0l0,0l0,0l0,0l0,0l0,0l0,0l0,0
		l0,0c0,0-0.1,0-0.1,0.1l0,0l0,0l0,0l0,0l0,0l0,0l0,0l0,0l0,0l0,0l0,0l0,0l0,0l0,0l0,0l0,0l0,0l0,0l0,0l0,0l0,0l0,0l0,0
		c-0.1,0-0.1,0.1-0.1,0.1l0,0c0,0,0,0-0.1,0l0,0l0,0l0,0l0,0l0,0l0,0l0,0l0,0l0,0c-0.1,0.1-0.2,0.1-0.3,0.2l0,0
		c-2,1.1-3.9,2.4-5.8,3.7c-1.8,1.3-2.1,3.7-0.9,5.4c0.8,1.1,2,1.6,3.2,1.6c0.8,0,1.5-0.2,2.3-0.7c3.4-2.4,7-4.5,10.8-6.1
		c2-0.8,2.9-3.2,2-5.1C77,38,75.6,37.1,74.1,37.1L74.1,37.1z M52.6,52.4c-1.1,0-2,0.4-2.8,1.3c-0.6,0.7-1.3,1.4-1.9,2.2l0,0l0,0l0,0
		l0,0l0,0l0,0l0,0l0,0l0,0l0,0l0,0l0,0l0,0c-0.1,0.1-0.1,0.1-0.1,0.1l0,0l0,0l0,0l0,0l0,0l0,0l0,0l0,0l0,0l0,0l0,0l0,0l0,0l0,0l0,0
		l0,0l0,0c0,0.1-0.1,0.1-0.1,0.1l0,0l0,0l0,0l0,0l0,0l0,0l0,0l0,0l0,0l0,0l0,0l0,0l0,0l0,0l0,0l0,0l0,0l0,0l0,0l0,0l0,0l0,0
		c0,0,0,0,0,0.1l0,0l0,0l0,0l0,0l0,0l0,0l0,0l0,0l0,0l0,0l0,0l0,0l0,0l0,0l0,0l0,0l0,0l0,0l0,0l0,0l0,0l0,0l0,0l-0.1,0.1l0,0l0,0
		l0,0l0,0l0,0l0,0l0,0l0,0l0,0l0,0l0,0l0,0l0,0l0,0l0,0l0,0l0,0l0,0l0,0c-0.1,0.1-0.1,0.1-0.1,0.1l0,0l0,0l0,0l0,0l0,0l0,0l0,0l0,0
		l0,0c-0.1,0.1-0.1,0.1-0.2,0.3l0,0c-0.6,0.8-1.3,1.6-1.8,2.5l0,0c-0.1,0.1-0.1,0.1-0.1,0.2l0,0l0,0l0,0l0,0l0,0l0,0l0,0l0,0l0,0
		l0,0l0,0l0,0l0,0l0,0l0,0l0,0l0,0c0,0.1-0.1,0.1-0.1,0.1l0,0l0,0l0,0l0,0l0,0l0,0l0,0l0,0l0,0l0,0l0,0l0,0l0,0l0,0l0,0l0,0l0,0l0,0
		l0,0l0,0l0,0c0,0,0,0.1-0.1,0.1l0,0l0,0l0,0l0,0l0,0l0,0l0,0l0,0l0,0l0,0l0,0l0,0l0,0l0,0l0,0l0,0l0,0l0,0l0,0l0,0l0,0l0,0l0,0l0,0
		c0,0,0,0,0,0.1l0,0l0,0l0,0l0,0l0,0l0,0l0,0l0,0l0,0l0,0l0,0l0,0l0,0l0,0l0,0l0,0l0,0l0,0l0,0l0,0l0,0c0,0.1-0.1,0.1-0.1,0.1l0,0
		c0,0,0,0,0,0.1l0,0l0,0l0,0l0,0l0,0l0,0l0,0l0,0l0,0c-0.7,1.1-1.4,2.1-2,3.2c-1.1,1.8-0.5,4.2,1.3,5.3c0.6,0.4,1.3,0.6,2,0.6
		c1.3,0,2.6-0.7,3.3-1.9c2.1-3.6,4.6-6.9,7.5-10c1.5-1.5,1.3-4-0.2-5.5C54.5,52.8,53.5,52.4,52.6,52.4L52.6,52.4z M39.1,75
		c-1.6,0-3.1,1-3.7,2.6c-0.5,1.5-1,3-1.4,4.6l0,0c0,0,0,0,0,0.1l0,0l0,0l0,0l0,0l0,0l0,0l0,0l0,0l0,0l0,0l0,0l0,0l0,0l0,0l0,0l0,0
		l0,0l0,0l0,0l0,0l0,0l0,0l0,0l0,0l0,0l0,0l0,0l0,0l0,0l0,0l0,0l0,0l0,0l0,0l0,0l0,0c0,0.1,0,0.1,0,0.1l0,0l0,0l0,0l0,0l0,0l0,0l0,0
		l0,0l0,0l0,0l0,0l0,0l0,0l0,0l0,0l0,0l0,0l0,0l0,0l0,0l0,0l0,0l0,0l0,0l0,0c-0.7,2.7-1.2,5.4-1.5,8.2c-0.3,2.1,1.2,4.1,3.4,4.3
		c0.1,0,0.4,0,0.5,0c1.9,0,3.6-1.4,3.8-3.4c0.5-4.1,1.5-8.2,2.8-12.1c0.7-2-0.4-4.2-2.4-4.9C39.9,75.1,39.5,75,39.1,75L39.1,75z
		 M35.8,101.2c-0.1,0-0.2,0-0.3,0c-2.1,0.1-3.7,2-3.6,4.1c0.3,3.5,0.8,6.9,1.6,10.3l0,0l0,0l0,0l0,0l0,0l0,0l0,0l0,0l0,0l0,0l0,0
		l0,0l0,0l0,0l0,0l0,0l0,0l0,0l0,0l0,0l0,0l0,0l0,0l0,0l0,0l0,0l0,0l0,0l0,0l0,0l0,0l0,0l0,0l0,0l0,0l0,0c0.3,1.1,0.6,2.1,0.8,3.1
		c0.5,1.7,2,2.7,3.7,2.7c0.4,0,0.7-0.1,1.1-0.1c2-0.6,3.2-2.7,2.6-4.8c-1.2-3.9-1.9-8.1-2.3-12.2C39.4,102.7,37.7,101.2,35.8,101.2
		L35.8,101.2z M43.1,126.4c-0.6,0-1.3,0.1-1.8,0.5c-1.9,1-2.6,3.4-1.6,5.2c0.9,1.8,2,3.4,3,5.1l0,0l0,0l0,0l0,0l0,0l0,0l0,0l0,0l0,0
		c0,0.1,0.1,0.1,0.1,0.1l0,0l0,0l0,0l0,0l0,0l0,0l0,0l0,0l0,0l0,0l0,0l0,0l0,0l0,0l0,0l0,0l0,0l0,0l0,0l0,0l0,0l0,0l0,0
		c0,0,0,0,0,0.1l0,0c0,0,0,0,0,0.1l0,0l0,0l0,0l0,0l0,0l0,0l0,0l0,0l0,0l0,0l0,0l0,0l0,0l0,0l0,0l0,0l0,0l0,0l0,0l0,0l0,0l0,0
		l0.1,0.1l0,0l0,0l0,0l0,0l0,0l0,0l0,0l0,0l0,0l0,0l0,0l0,0l0,0l0,0l0,0l0,0l0,0l0,0l0,0l0,0l0,0c0,0.1,0.1,0.1,0.1,0.1l0,0l0,0l0,0
		l0,0l0,0l0,0l0,0l0,0l0,0l0,0l0,0l0,0l0,0l0,0l0,0l0,0l0,0c0.1,0.1,0.1,0.1,0.1,0.1l0,0l0,0l0,0l0,0l0,0l0,0l0,0l0,0l0,0l0,0l0,0
		l0,0l0,0l0,0l0,0c0.1,0.1,0.1,0.1,0.1,0.2l0,0l0,0l0,0l0,0l0,0l0,0l0,0l0,0l0,0l0,0l0,0c0.1,0.1,0.1,0.1,0.1,0.2l0,0l0,0l0,0l0,0
		l0,0l0,0l0,0l0,0l0,0l0,0l0,0l0,0l0,0l0.1,0.1l0,0l0,0l0,0l0,0l0,0l0,0l0,0l0,0l0,0l0,0l0,0l0,0l0,0l0,0l0,0l0,0l0,0l0,0l0,0l0,0
		l0,0l0,0l0,0c0,0,0,0.1,0.1,0.1l0,0l0,0l0,0l0,0l0,0l0,0l0,0l0,0l0,0l0,0l0,0l0,0l0,0l0,0l0,0l0,0l0,0l0,0l0,0l0,0l0,0l0,0l0,0l0,0
		c0,0,0,0,0.1,0.1l0,0l0,0l0,0l0,0l0,0l0,0l0,0l0,0l0,0l0,0l0,0l0,0l0,0l0,0l0,0l0,0l0,0l0,0l0,0l0,0l0,0l0,0l0,0
		c0.1,0.1,0.1,0.1,0.1,0.1l0,0l0,0l0,0l0,0l0,0l0,0l0,0c0.8,1,1.5,2,2.3,3c0.8,0.9,1.8,1.4,3,1.4c0.8,0,1.8-0.3,2.5-0.9
		c1.6-1.4,1.8-3.8,0.5-5.4c-2.7-3.2-5-6.7-7-10.3C45.8,127.2,44.5,126.4,43.1,126.4L43.1,126.4z M60.1,146.7c-1.1,0-2.3,0.5-3,1.5
		c-1.3,1.7-1.1,4.1,0.6,5.4c3.7,2.9,7.7,5.4,11.9,7.5c0.6,0.3,1.1,0.4,1.7,0.4c1.4,0,2.8-0.8,3.4-2.1c1-1.9,0.1-4.2-1.8-5.2
		c-3.7-1.8-7.2-4.1-10.5-6.7C61.7,146.9,60.9,146.7,60.1,146.7L60.1,146.7z M83.6,158.4c-1.7,0-3.3,1.1-3.7,2.9
		c-0.6,2,0.7,4.1,2.7,4.7c3.3,0.8,6.7,1.5,10.1,1.8l0,0l0,0l0,0l0,0l0,0l0,0l0,0l0,0l0,0l0,0l0,0l0,0l0,0l0,0l0,0l0,0l0,0l0,0l0,0
		l0,0l0,0l0,0l0,0l0,0l0,0l0,0l0,0l0,0l0,0l0,0l0,0l0,0l0,0l0,0l0,0l0,0l0,0l0,0l0,0l0,0l0,0l0,0l0,0l0,0l0,0l0,0l0,0l0,0l0,0l0,0
		l0,0l0,0l0,0h0.1l0,0c0,0,0,0,0.1,0l0,0l0,0l0,0l0,0l0,0l0,0l0,0l0,0l0,0l0,0l0,0l0,0l0,0l0,0l0,0l0,0l0,0l0,0l0,0l0,0l0,0l0,0l0,0
		l0,0l0,0l0,0l0,0l0,0l0,0l0,0l0,0l0,0l0,0l0,0l0,0l0,0l0,0l0,0l0,0l0,0l0,0l0,0l0,0l0,0l0,0l0,0l0,0l0,0l0,0l0,0
		c0.8,0.1,1.5,0.1,2.3,0.1c0.1,0,0.1,0,0.2,0c2,0,3.7-1.6,3.9-3.7c0.1-2.1-1.5-3.9-3.7-4.1c-4.1-0.2-8.3-0.8-12.3-1.9
		C84.3,158.4,83.9,158.4,83.6,158.4L83.6,158.4z M122.8,156.3c-0.4,0-0.9,0.1-1.4,0.3c-3.9,1.5-7.9,2.5-12,3.2
		c-2.1,0.4-3.6,2.3-3.2,4.4c0.3,1.9,2,3.2,3.8,3.2c0.2,0,0.4,0,0.6-0.1c0.2,0,0.4-0.1,0.6-0.1l0,0l0,0l0,0l0,0l0,0l0,0l0,0l0,0l0,0
		l0,0l0,0l0,0l0,0l0,0l0,0l0,0l0,0l0,0l0,0h0.1l0,0l0,0l0,0l0,0l0,0l0,0l0,0l0,0l0,0l0,0l0,0l0,0l0,0l0,0l0,0l0,0l0,0l0,0l0,0l0,0
		l0,0l0,0l0,0l0,0l0,0l0,0l0,0l0,0l0,0l0,0l0,0l0,0l0,0l0,0c0,0,0,0,0.1,0l0,0c1.6-0.3,3.2-0.6,4.9-1.1l0,0l0,0l0,0l0,0l0,0l0,0l0,0
		l0,0l0,0l0,0l0,0l0,0l0,0c0,0,0,0,0.1,0l0,0c0.1,0,0.2-0.1,0.4-0.1l0,0l0,0l0,0l0,0l0,0l0,0l0,0l0,0l0,0l0,0l0,0l0,0l0,0l0,0l0,0
		l0,0l0,0l0,0l0,0l0,0l0,0l0,0l0,0l0,0l0,0l0,0l0,0l0,0l0,0l0,0l0,0l0,0l0,0h0.1l0,0l0,0l0,0l0,0l0,0l0,0l0,0l0,0l0,0l0,0l0,0l0,0
		l0,0l0,0l0,0l0,0l0,0l0,0l0,0l0,0l0,0l0,0l0,0l0,0l0,0l0,0l0,0l0,0l0,0l0,0l0,0l0,0l0,0l0,0l0,0l0,0c2-0.6,3.9-1.2,5.8-1.9
		c2-0.8,3-3,2.3-5C125.8,157.2,124.3,156.3,122.8,156.3L122.8,156.3z M145,142c-1,0-2,0.4-2.7,1.1c-3,2.9-6.3,5.6-9.7,7.7
		c-1.8,1.1-2.3,3.5-1.2,5.3c0.8,1.1,2,1.8,3.2,1.8c0.7,0,1.4-0.2,2.1-0.6c2.3-1.4,4.4-3,6.4-4.6l0,0l0.1-0.1l0,0
		c0.1-0.1,0.1-0.1,0.3-0.2l0,0c0,0,0,0,0.1,0l0,0l0,0l0,0l0,0l0,0c0.1-0.1,0.1-0.1,0.1-0.1l0,0l0,0l0,0l0,0l0,0l0,0l0,0l0,0l0,0l0,0
		l0,0l0,0l0,0c0.1-0.1,0.1-0.1,0.1-0.1l0,0l0,0l0,0l0,0l0,0l0,0l0,0l0,0l0,0l0,0l0,0l0,0l0,0l0,0l0,0l0,0l0,0l0,0l0,0l0.1-0.1l0,0
		l0,0l0,0l0,0l0,0l0,0l0,0l0,0l0,0l0,0l0,0l0,0l0,0l0,0l0,0l0,0l0,0l0,0l0,0l0,0l0,0c0,0,0.1,0,0.1-0.1l0,0l0,0l0,0l0,0l0,0l0,0l0,0
		l0,0l0,0l0,0l0,0l0,0l0,0l0,0l0,0l0,0l0,0l0,0l0,0l0,0l0,0l0,0l0,0l0,0c0,0,0,0,0.1-0.1l0,0l0,0l0,0l0,0l0,0l0,0l0,0l0,0l0,0l0,0
		l0,0l0,0l0,0l0,0l0,0l0,0l0,0l0,0l0,0l0,0l0,0c0.1-0.1,0.1-0.1,0.1-0.1l0,0l0,0l0,0l0,0l0,0l0,0l0,0l0,0l0,0l0,0l0,0l0,0l0,0
		c0.1-0.1,0.1-0.1,0.1-0.1l0,0l0,0l0,0l0,0l0,0l0,0l0,0l0,0l0,0c0.1-0.1,0.1-0.1,0.2-0.2l0,0l0.1-0.1l0,0c0.6-0.6,1.3-1.2,1.9-1.8
		c1.5-1.5,1.5-3.9,0.1-5.5C146.9,142.4,146,142,145,142L145,142z M159.6,120.1c-1.5,0-3,0.9-3.6,2.4c-1.5,3.9-3.5,7.5-5.8,11
		c-1.2,1.8-0.7,4.1,1.1,5.3c0.6,0.4,1.4,0.6,2.2,0.6c1.3,0,2.5-0.6,3.2-1.7c0.4-0.6,0.9-1.3,1.3-2l0,0l0,0l0,0l0,0l0,0
		c0-0.1,0.1-0.1,0.1-0.1l0,0c0,0,0,0,0-0.1l0,0l0,0l0,0l0,0l0,0l0,0l0,0l0,0l0,0l0,0l0,0l0,0l0,0l0,0l0,0l0,0l0,0l0,0l0,0l0,0l0,0
		l0,0l0,0c0,0,0,0,0-0.1c0,0,0,0,0-0.1l0,0l0,0l0,0l0,0l0,0l0,0l0,0l0,0l0,0l0,0l0,0l0,0l0,0l0,0l0,0l0,0l0,0l0,0l0,0
		c0.6-1.1,1.3-2.2,1.8-3.3l0,0l0,0l0,0l0,0l0,0c0.1-0.1,0.1-0.1,0.1-0.2l0,0l0,0l0,0l0,0l0,0l0,0l0,0l0,0l0,0l0,0l0,0l0,0l0,0l0,0
		l0,0l0,0l0,0l0,0l0,0c0-0.1,0.1-0.1,0.1-0.1l0,0l0,0l0,0l0,0l0,0l0,0l0,0l0,0l0,0l0,0l0,0l0,0l0,0l0,0l0,0l0,0l0,0l0,0l0,0l0,0l0,0
		l0,0l0,0l0,0l0,0l0,0l0,0l0,0c0,0,0,0,0-0.1l0,0l0,0l0,0l0,0l0,0l0,0l0,0l0,0l0,0l0,0l0,0l0,0l0,0l0,0l0,0l0,0l0,0l0,0l0,0l0,0l0,0
		l0,0l0,0l0,0l0,0c0,0,0-0.1,0.1-0.1l0,0l0,0l0,0l0,0l0,0l0,0l0,0l0,0l0,0l0,0l0,0l0,0l0,0l0,0l0,0l0,0l0,0c0.7-1.4,1.3-2.8,2-4.3
		l0,0c0-0.1,0.1-0.1,0.1-0.3l0,0l0,0l0,0l0,0l0,0l0,0l0,0l0,0l0,0l0,0l0,0l0,0l0,0l0,0l0,0l0,0l0,0l0,0l0,0l0,0l0,0
		c0.8-2-0.1-4.2-2.1-5.1C160.6,120.2,160.1,120.1,159.6,120.1L159.6,120.1z M164.2,94.2c-0.1,0-0.1,0-0.1,0c-2.1,0.1-3.8,1.8-3.7,4
		c0,0.6,0,1.2,0,1.8c0,3.6-0.3,7.2-0.9,10.6c-0.4,2.1,1.1,4.1,3.2,4.5c0.2,0.1,0.4,0.1,0.7,0.1c1.8,0,3.4-1.3,3.8-3.2c0,0,0,0,0-0.1
		l0,0v-0.1l0,0c0,0,0,0,0-0.1l0,0v-0.1l0,0c0,0,0,0,0-0.1l0,0c0,0,0,0,0-0.1l0,0v-0.1l0,0c0,0,0,0,0-0.1l0,0c0-0.1,0-0.1,0-0.1l0,0
		c0,0,0,0,0-0.1l0,0c0-0.1,0-0.1,0-0.1l0,0c0,0,0,0,0-0.1l0,0c0-0.1,0-0.1,0-0.1l0,0c0,0,0,0,0-0.1l0,0c0-0.1,0-0.1,0-0.1l0,0
		c0-0.1,0-0.1,0-0.2l0,0c0,0,0,0,0-0.1l0,0c0-0.1,0-0.1,0-0.1l0,0v-0.1l0,0c0-0.1,0-0.1,0-0.1l0,0c0-0.1,0-0.1,0-0.2l0,0
		c0-0.1,0-0.1,0-0.1l0,0c0,0,0,0,0-0.1l0,0c0-0.1,0-0.2,0.1-0.4l0,0c0,0,0,0,0-0.1l0,0c0-0.1,0-0.1,0-0.1l0,0c0-0.1,0-0.1,0-0.2l0,0
		c0-0.1,0-0.1,0-0.2l0,0c0-0.1,0-0.1,0-0.1l0,0c0,0,0,0,0-0.1l0,0c0-0.1,0-0.1,0-0.1l0,0c0,0,0,0,0-0.1l0,0c0-0.1,0-0.1,0-0.1l0,0
		c0,0,0,0,0-0.1l0,0c0-0.1,0-0.1,0-0.1l0,0c0,0,0,0,0-0.1l0,0v-0.1l0,0c0,0,0,0,0-0.1l0,0c0,0,0,0,0-0.1l0,0v-0.1l0,0c0,0,0,0,0-0.1
		l0,0c0,0,0,0,0-0.1l0,0l0,0l0,0c0,0,0,0,0-0.1l0,0c0,0,0,0,0-0.1l0,0c0,0,0,0,0-0.1l0,0v-0.1l0,0c0,0,0,0,0-0.1l0,0v-0.1l0,0
		c0,0,0,0,0-0.1l0,0c0,0,0,0,0-0.1l0,0c0,0,0,0,0-0.1l0,0l0,0l0,0c0,0,0,0,0-0.1l0,0c0,0,0,0,0-0.1l0,0l0,0l0,0l0,0l0,0l0,0l0,0l0,0
		l0,0l0,0l0,0l0,0l0,0l0,0l0,0l0,0l0,0l0,0l0,0l0,0l0,0l0,0l0,0l0,0l0,0l0,0l0,0l0,0l0,0l0,0l0,0l0,0l0,0l0,0l0,0l0,0l0,0l0,0l0,0
		l0,0l0,0l0,0l0,0l0,0l0,0l0,0l0,0l0,0l0,0l0,0l0,0l0,0l0,0l0,0l0,0l0,0l0,0l0,0l0,0l0,0l0,0l0,0l0,0l0,0l0,0l0,0l0,0l0,0l0,0l0,0
		l0,0l0,0l0,0l0,0l0,0l0,0l0,0l0,0l0,0l0,0l0,0l0,0l0,0l0,0l0,0l0,0l0,0l0,0l0,0l0,0l0,0l0,0l0,0l0,0l0,0l0,0l0,0l0,0l0,0l0,0l0,0
		l0,0l0,0l0,0l0,0l0,0l0,0l0,0l0,0l0,0l0,0l0,0l0,0l0,0l0,0l0,0l0,0l0,0c0,0,0,0,0-0.1l0,0l0,0l0,0l0,0l0,0c0,0,0,0,0-0.1l0,0
		c0,0,0,0,0-0.1l0,0l0,0l0,0l0,0l0,0c0,0,0,0,0-0.1l0,0c0,0,0,0,0-0.1l0,0l0,0l0,0c0,0,0,0,0-0.1l0,0c0,0,0,0,0-0.1l0,0
		c0,0,0,0,0-0.1l0,0l0,0l0,0c0,0,0,0,0-0.1l0,0c0,0,0,0,0-0.1l0,0c0,0,0,0,0-0.1l0,0c0,0,0,0,0-0.1l0,0c0,0,0,0,0-0.1l0,0
		c0,0,0,0,0-0.1l0,0c0,0,0,0,0-0.1l0,0c0,0,0,0,0-0.1l0,0c0,0,0,0,0-0.1l0,0c0,0,0,0,0-0.1l0,0c0,0,0,0,0-0.1l0,0c0,0,0,0,0-0.1l0,0
		c0,0,0,0,0-0.1l0,0c0,0,0,0,0-0.1l0,0c0,0,0,0,0-0.1l0,0c0,0,0,0,0-0.1l0,0c0,0,0,0,0-0.1l0,0c0,0,0,0,0-0.1l0,0c0,0,0,0,0-0.1l0,0
		c0,0,0,0,0-0.1l0,0c0,0,0,0,0-0.1l0,0c0,0,0,0,0-0.1l0,0c0,0,0,0,0-0.1l0,0c0,0,0,0,0-0.1l0,0c0,0,0,0,0-0.1l0,0c0,0,0,0,0-0.1l0,0
		c0,0,0,0,0-0.1l0,0c0,0,0,0,0-0.1l0,0c0,0,0,0,0-0.1l0,0c0,0,0,0,0-0.1l0,0c0,0,0,0,0-0.1l0,0c0,0,0,0,0-0.1l0,0c0,0,0,0,0-0.1l0,0
		c0,0,0,0,0-0.1l0,0c0,0,0,0,0-0.1l0,0c0,0,0,0,0-0.1l0,0c0,0,0,0,0-0.1l0,0c0,0,0,0,0-0.1l0,0c0,0,0,0,0-0.1l0,0c0,0,0,0,0-0.1l0,0
		c0,0,0,0,0-0.1l0,0c0,0,0,0,0-0.1l0,0c0,0,0,0,0-0.1l0,0c0,0,0,0,0-0.1l0,0c0,0,0,0,0-0.1l0,0c0,0,0,0,0-0.1l0,0c0,0,0,0,0-0.1l0,0
		c0,0,0,0,0-0.1l0,0c0,0,0,0,0-0.1l0,0c0,0,0,0,0-0.1l0,0c0,0,0,0,0-0.1l0,0c0,0,0,0,0-0.1l0,0c0,0,0,0,0-0.1l0,0c0,0,0,0,0-0.1l0,0
		c0,0,0,0,0-0.1l0,0c0,0,0,0,0-0.1l0,0c0,0,0,0,0-0.1l0,0c0,0,0,0,0-0.1l0,0c0,0,0,0,0-0.1l0,0c0,0,0,0,0-0.1l0,0c0,0,0,0,0-0.1l0,0
		c0,0,0,0,0-0.1l0,0c0,0,0,0,0-0.1l0,0c0,0,0,0,0-0.1l0,0c0,0,0,0,0-0.1l0,0c0,0,0,0,0-0.1l0,0c0,0,0,0,0-0.1l0,0c0,0,0,0,0-0.1l0,0
		c0,0,0,0,0-0.1l0,0c0,0,0,0,0-0.1l0,0c0,0,0,0,0-0.1l0,0c0,0,0,0,0-0.1l0,0c0,0,0,0,0-0.1l0,0c0,0,0,0,0-0.1l0,0c0,0,0,0,0-0.1l0,0
		c0,0,0,0,0-0.1l0,0c0,0,0,0,0-0.1l0,0c0,0,0,0,0-0.1l0,0c0,0,0,0,0-0.1l0,0c0,0,0,0,0-0.1l0,0l0,0l0,0l0,0l0,0l0,0l0,0l0,0l0,0l0,0
		l0,0l0,0l0,0l0,0l0,0l0,0l0,0l0,0l0,0l0,0l0,0l0,0l0,0l0,0l0,0l0,0l0,0l0,0v-0.1l0,0l0,0l0,0l0,0l0,0l0,0l0,0l0,0l0,0
		c0-0.1,0-0.1,0-0.1l0,0l0,0l0,0l0,0l0,0c0-0.1,0-0.1,0-0.2l0,0l0,0l0,0l0,0l0,0c0-0.1,0-0.1,0-0.1l0,0l0,0l0,0l0,0l0,0l0,0l0,0l0,0
		l0,0l0,0l0,0l0,0l0,0l0,0l0,0l0,0l0,0l0,0l0,0l0,0c0-0.1,0-0.4,0-0.5C168,95.9,166.3,94.2,164.2,94.2L164.2,94.2z M158.1,68.6
		c-0.6,0-1.1,0.1-1.7,0.4c-1.9,0.9-2.7,3.2-1.8,5.1c1.8,3.7,3.2,7.7,4.1,11.7c0.4,1.8,2,3,3.7,3c0.3,0,0.6,0,0.9-0.1
		c2.1-0.5,3.4-2.6,2.9-4.6c-1-4.1-2.3-8-4-11.7l0,0c0,0,0,0,0-0.1l0,0l0,0l0,0l0,0l0,0l0,0l0,0l0,0l0,0l0,0l0,0l0,0l0,0l0,0l0,0l0,0
		l0,0l0,0l0,0l0,0l0,0l0,0v-0.1l0,0l0,0l0,0l0,0l0,0l0,0l0,0l0,0l0,0l0,0l0,0c-0.1-0.4-0.3-0.7-0.5-1
		C160.9,69.4,159.5,68.6,158.1,68.6L158.1,68.6z M142.2,47.6c-1.1,0-2.2,0.4-2.9,1.3c-1.4,1.6-1.3,4.1,0.4,5.5
		c3.2,2.7,6,5.8,8.5,9.1c0.8,1,1.9,1.5,3.1,1.5c0.8,0,1.6-0.3,2.3-0.8c1.7-1.3,2-3.7,0.8-5.4l0,0c0,0,0,0,0-0.1l0,0c0,0,0,0,0-0.1
		l0,0c0,0,0,0,0-0.1l0,0c0,0,0,0,0-0.1l0,0c0,0,0,0,0-0.1l0,0c0,0,0,0,0-0.1l0,0c0,0,0,0,0-0.1l0,0c0,0,0,0,0-0.1l0,0c0,0,0,0,0-0.1
		l0,0c0,0,0,0,0-0.1l0,0c0,0,0,0,0-0.1l0,0c0,0,0,0,0-0.1l0,0l-0.1-0.1l0,0c0,0,0,0,0-0.1l0,0c0,0,0,0,0-0.1l0,0c0,0,0,0,0-0.1l0,0
		c-1.3-1.6-2.6-3.2-4-4.7l0,0c0,0,0,0-0.1-0.1l0,0c0,0,0,0-0.1-0.1l0,0c-0.1-0.1-0.1-0.1-0.1-0.1l0,0c0,0,0,0-0.1-0.1l0,0
		c0,0,0,0-0.1-0.1l0,0c0,0,0,0-0.1-0.1l0,0c0,0,0,0-0.1-0.1l0,0l-0.1-0.1l0,0c0,0,0,0-0.1-0.1l0,0c0,0,0,0,0-0.1l0,0l0,0l0,0l0,0
		l0,0c0,0,0,0,0-0.1l0,0c0,0,0,0-0.1-0.1l0,0c0,0,0,0-0.1-0.1l0,0c0,0,0,0,0-0.1l0,0l0,0l0,0l0,0l0,0l0,0l0,0l0,0l0,0
		c0,0,0,0-0.1-0.1l0,0c0,0,0,0-0.1-0.1l0,0l0,0l0,0l0,0l0,0l0,0l0,0l0,0l0,0l0,0l0,0l0,0l0,0l0,0l0,0l0,0l0,0l0,0l0,0l0,0l0,0l0,0
		l0,0l0,0l0,0l0,0l0,0l0,0l0,0l0,0l0,0l0,0l0,0l0,0l0,0l0,0l0,0l0,0l0,0l0,0l0,0l0,0l0,0l0,0l0,0l0,0l0,0l0,0l0,0l0,0l0,0l0,0l0,0
		l0,0l0,0l0,0l0,0l0,0l0,0l0,0l0,0l0,0l0,0l0,0l0,0l0,0l0,0l0,0l0,0l0,0l0,0l0,0l0,0l0,0l0,0l0,0l0,0l0,0l0,0l0,0l0,0l0,0l0,0l0,0
		l0,0l0,0l0,0l0,0l0,0l0,0l0,0l0,0l0,0l0,0l0,0l0,0l0,0l0,0l-0.1-0.1l0,0l0,0l0,0l0,0l0,0l0,0l0,0l0,0l0,0c-0.1-0.1-0.1-0.1-0.1-0.1
		l0,0c0,0,0,0-0.1,0l0,0l0,0l0,0c0,0,0,0-0.1,0l0,0c0,0,0,0-0.1,0l0,0c-0.5-0.5-1.1-1-1.5-1.4C144,47.9,143.1,47.6,142.2,47.6
		L142.2,47.6z M119.2,34.7c-1.6,0-3.2,1.1-3.7,2.7c-0.6,2,0.5,4.2,2.5,4.9c3.9,1.3,7.8,2.9,11.4,4.9c0.6,0.4,1.3,0.5,1.9,0.5
		c1.3,0,2.7-0.7,3.4-2c1.1-1.8,0.4-4.2-1.5-5.3c-0.7-0.4-1.4-0.8-2.2-1.2l0,0c-0.1-0.1-0.3-0.1-0.4-0.2l0,0
		c-0.1-0.1-0.2-0.1-0.4-0.2l0,0l0,0l0,0c0,0-0.1,0-0.1-0.1l0,0l0,0l0,0c-3.2-1.5-6.4-2.9-9.8-3.9C119.9,34.8,119.6,34.7,119.2,34.7
		L119.2,34.7z M99.9,31.7L99.9,31.7C99.9,31.7,99.8,31.7,99.9,31.7C99.8,31.7,99.8,31.7,99.9,31.7C99.8,31.7,99.8,31.7,99.9,31.7
		L99.9,31.7L99.9,31.7L99.9,31.7L99.9,31.7L99.9,31.7L99.9,31.7L99.9,31.7L99.9,31.7L99.9,31.7L99.9,31.7L99.9,31.7L99.9,31.7
		L99.9,31.7L99.9,31.7L99.9,31.7L99.9,31.7L99.9,31.7L99.9,31.7L99.9,31.7L99.9,31.7L99.9,31.7L99.9,31.7L99.9,31.7L99.9,31.7
		L99.9,31.7L99.9,31.7L99.9,31.7L99.9,31.7L99.9,31.7L99.9,31.7L99.9,31.7L99.9,31.7L99.9,31.7L99.9,31.7L99.9,31.7L99.9,31.7
		L99.9,31.7L99.9,31.7L99.9,31.7L99.9,31.7L99.9,31.7L99.9,31.7L99.9,31.7L99.9,31.7L99.9,31.7L99.9,31.7L99.9,31.7L99.9,31.7
		L99.9,31.7L99.9,31.7L99.9,31.7L99.9,31.7L99.9,31.7L99.9,31.7L99.9,31.7L99.9,31.7L99.9,31.7L99.9,31.7L99.9,31.7L99.9,31.7
		L99.9,31.7L99.9,31.7L99.9,31.7L99.9,31.7L99.9,31.7L99.9,31.7L99.9,31.7L99.9,31.7L99.9,31.7L99.9,31.7L99.9,31.7L99.9,31.7
		L99.9,31.7L99.9,31.7L99.9,31.7L99.9,31.7L99.9,31.7L99.9,31.7L99.9,31.7L99.9,31.7L99.9,31.7L99.9,31.7L99.9,31.7L99.9,31.7
		L99.9,31.7L99.9,31.7L99.9,31.7L99.9,31.7L99.9,31.7L99.9,31.7L99.9,31.7L99.9,31.7L99.9,31.7L99.9,31.7L99.9,31.7L99.9,31.7
		L99.9,31.7L99.9,31.7L99.9,31.7L99.9,31.7h-0.1l0,0c-0.1,0-0.2,0-0.3,0l0,0h-0.1l0,0h-0.1l0,0l0,0l0,0l0,0l0,0c0,0,0,0-0.1,0l0,0
		l0,0l0,0l0,0l0,0l0,0l0,0l0,0l0,0l0,0l0,0l0,0l0,0l0,0l0,0l0,0l0,0l0,0l0,0l0,0l0,0l0,0l0,0l0,0l0,0l0,0l0,0l0,0l0,0l0,0l0,0l0,0
		l0,0l0,0l0,0l0,0l0,0l0,0l0,0l0,0l0,0l0,0l0,0l0,0l0,0h-0.1l0,0l0,0l0,0l0,0l0,0h-0.1l0,0l0,0l0,0c-5.8,0.2-9.6,0.7-13.2,1.4
		c-2.1,0.4-3.4,2.5-3,4.6c0.4,1.8,2,3.1,3.8,3.1c0.3,0,0.5,0,0.8-0.1c4.1-0.8,8.3-1.3,12.4-1.3l0,0c2,0,4,0.1,6,0.3
		c0.1,0,0.3,0,0.4,0c2,0,3.7-1.5,3.9-3.5c0.2-2.1-1.3-4-3.4-4.2c-0.5-0.1-1.1-0.1-1.5-0.1l0,0l0,0l0,0l0,0l0,0l0,0l0,0l0,0l0,0l0,0
		l0,0l0,0l0,0l0,0l0,0l0,0l0,0l0,0l0,0l0,0c-1.3-0.1-2.5-0.1-3.8-0.1l0,0l0,0l0,0l0,0l0,0l0,0l0,0l0,0l0,0l0,0l0,0l0,0l0,0l0,0l0,0
		l0,0l0,0l0,0l0,0l0,0l0,0c0,0,0,0-0.1,0l0,0c-0.1,0-0.1,0-0.1,0l0,0l0,0l0,0l0,0l0,0l0,0l0,0l0,0l0,0l0,0l0,0l0,0l0,0l0,0l0,0l0,0
		l0,0l0,0l0,0l0,0l0,0l0,0l0,0l0,0l0,0l0,0l0,0l0,0l0,0l0,0l0,0l0,0l0,0l0,0l0,0l0,0l0,0l0,0l0,0C100,31.7,100,31.7,99.9,31.7
		C100,31.7,100,31.7,99.9,31.7C100,31.7,100,31.7,99.9,31.7L99.9,31.7L99.9,31.7L99.9,31.7z	">
<animateTransform  
	accumulate="none" 
	additive="replace" 
	attributeName="transform" 
	attributeType="XML" 
	calcMode="linear" 
	dur="10s" 
	fill="remove" 
	from="0 100 100" 
	repeatCount="indefinite" 
	restart="always" 
	to="360 100 100" 
	type="rotate">
	
			</animateTransform>
	</path>
</g>
<rect x="54.2" y="78.2" class="st1" width="48.1" height="60.5"/>
<text transform="matrix(1 0 0 1 54.1475 117.2627)" class="st2 st3 st4">B</text>
<rect x="80.5" y="93.8" transform="matrix(0.978 -0.2086 0.2086 0.978 -23.6683 24.6327)" class="st1" width="48.9" height="61.5"/>
<text transform="matrix(1 0 0 1 88.25 130.834)" class="st5 st3 st6">F</text>
<rect x="123.5" y="73.7" class="st1" width="30.6" height="38.4"/>
<text transform="matrix(1 0 0 1 123.4189 111.4209)" class="st7 st3 st8">F</text>
</svg>
